<mxfile host="app.diagrams.net" modified="2021-05-08T09:46:34.927Z" agent="5.0 (Windows NT 10.0; Win64; x64) AppleWebKit/537.36 (KHTML, like Gecko) Chrome/90.0.4430.93 Safari/537.36" etag="CcEG8ObT2l4zuS4fmYba" version="14.6.11" type="github">
  <diagram name="Page-1" id="42789a77-a242-8287-6e28-9cd8cfd52e62">
    <mxGraphModel dx="1422" dy="1571" grid="1" gridSize="10" guides="1" tooltips="1" connect="1" arrows="1" fold="1" page="1" pageScale="1" pageWidth="1100" pageHeight="850" background="#ffffff" math="0" shadow="0">
      <root>
        <mxCell id="0" />
        <mxCell id="1" parent="0" />
        <mxCell id="529dLqMRrzq7dsGYqpGg-48" value="" style="shape=ext;double=1;rounded=0;whiteSpace=wrap;html=1;" vertex="1" parent="1">
          <mxGeometry x="920" y="200" width="440" height="370" as="geometry" />
        </mxCell>
        <mxCell id="529dLqMRrzq7dsGYqpGg-47" value="" style="shape=ext;double=1;rounded=0;whiteSpace=wrap;html=1;" vertex="1" parent="1">
          <mxGeometry x="1240" y="450" width="200" height="120" as="geometry" />
        </mxCell>
        <mxCell id="529dLqMRrzq7dsGYqpGg-46" value="" style="shape=ext;double=1;rounded=0;whiteSpace=wrap;html=1;" vertex="1" parent="1">
          <mxGeometry x="1000" y="450" width="220" height="192" as="geometry" />
        </mxCell>
        <mxCell id="1ea317790d2ca983-12" style="edgeStyle=none;rounded=1;html=1;labelBackgroundColor=none;startArrow=none;startFill=0;startSize=5;endArrow=classicThin;endFill=1;endSize=5;jettySize=auto;orthogonalLoop=1;strokeColor=#B3B3B3;strokeWidth=1;fontFamily=Verdana;fontSize=12" parent="1" source="1ea317790d2ca983-1" target="1ea317790d2ca983-2" edge="1">
          <mxGeometry relative="1" as="geometry" />
        </mxCell>
        <mxCell id="1ea317790d2ca983-13" value="relation" style="edgeStyle=none;rounded=1;html=1;labelBackgroundColor=none;startArrow=none;startFill=0;startSize=5;endArrow=classicThin;endFill=1;endSize=5;jettySize=auto;orthogonalLoop=1;strokeColor=#B3B3B3;strokeWidth=1;fontFamily=Verdana;fontSize=12" parent="1" source="1ea317790d2ca983-1" target="1ea317790d2ca983-9" edge="1">
          <mxGeometry relative="1" as="geometry" />
        </mxCell>
        <mxCell id="1ea317790d2ca983-14" value="relation" style="edgeStyle=none;rounded=1;html=1;labelBackgroundColor=none;startArrow=none;startFill=0;startSize=5;endArrow=classicThin;endFill=1;endSize=5;jettySize=auto;orthogonalLoop=1;strokeColor=#B3B3B3;strokeWidth=1;fontFamily=Verdana;fontSize=12" parent="1" source="1ea317790d2ca983-1" target="1ea317790d2ca983-3" edge="1">
          <mxGeometry relative="1" as="geometry" />
        </mxCell>
        <mxCell id="1ea317790d2ca983-1" value="Starting&amp;nbsp;&lt;div&gt;node&lt;/div&gt;" style="ellipse;whiteSpace=wrap;html=1;rounded=0;shadow=1;comic=0;labelBackgroundColor=none;strokeWidth=1;fontFamily=Verdana;fontSize=12;align=center;" parent="1" vertex="1">
          <mxGeometry x="635" y="-300" width="90" height="60" as="geometry" />
        </mxCell>
        <mxCell id="1ea317790d2ca983-21" value="relation" style="edgeStyle=none;rounded=1;html=1;labelBackgroundColor=none;startArrow=none;startFill=0;startSize=5;endArrow=classicThin;endFill=1;endSize=5;jettySize=auto;orthogonalLoop=1;strokeColor=#B3B3B3;strokeWidth=1;fontFamily=Verdana;fontSize=12" parent="1" source="1ea317790d2ca983-2" target="1ea317790d2ca983-7" edge="1">
          <mxGeometry relative="1" as="geometry" />
        </mxCell>
        <mxCell id="1ea317790d2ca983-22" value="relation" style="edgeStyle=none;rounded=1;html=1;labelBackgroundColor=none;startArrow=none;startFill=0;startSize=5;endArrow=classicThin;endFill=1;endSize=5;jettySize=auto;orthogonalLoop=1;strokeColor=#B3B3B3;strokeWidth=1;fontFamily=Verdana;fontSize=12" parent="1" source="1ea317790d2ca983-2" target="1ea317790d2ca983-6" edge="1">
          <mxGeometry relative="1" as="geometry" />
        </mxCell>
        <mxCell id="1ea317790d2ca983-2" value="&lt;span&gt;Node 2&lt;/span&gt;" style="ellipse;whiteSpace=wrap;html=1;rounded=0;shadow=1;comic=0;labelBackgroundColor=none;strokeWidth=1;fontFamily=Verdana;fontSize=12;align=center;" parent="1" vertex="1">
          <mxGeometry x="642.5" y="-190" width="75" height="50" as="geometry" />
        </mxCell>
        <mxCell id="1ea317790d2ca983-15" value="relation" style="edgeStyle=none;rounded=1;html=1;labelBackgroundColor=none;startArrow=none;startFill=0;startSize=5;endArrow=classicThin;endFill=1;endSize=5;jettySize=auto;orthogonalLoop=1;strokeColor=#B3B3B3;strokeWidth=1;fontFamily=Verdana;fontSize=12" parent="1" source="1ea317790d2ca983-3" target="1ea317790d2ca983-4" edge="1">
          <mxGeometry relative="1" as="geometry" />
        </mxCell>
        <mxCell id="1ea317790d2ca983-3" value="&lt;span&gt;Node 3&lt;/span&gt;" style="ellipse;whiteSpace=wrap;html=1;rounded=0;shadow=1;comic=0;labelBackgroundColor=none;strokeWidth=1;fontFamily=Verdana;fontSize=12;align=center;" parent="1" vertex="1">
          <mxGeometry x="885" y="-190" width="75" height="50" as="geometry" />
        </mxCell>
        <mxCell id="1ea317790d2ca983-16" value="relation" style="edgeStyle=none;rounded=1;html=1;labelBackgroundColor=none;startArrow=none;startFill=0;startSize=5;endArrow=classicThin;endFill=1;endSize=5;jettySize=auto;orthogonalLoop=1;strokeColor=#B3B3B3;strokeWidth=1;fontFamily=Verdana;fontSize=12" parent="1" source="1ea317790d2ca983-4" target="1ea317790d2ca983-5" edge="1">
          <mxGeometry relative="1" as="geometry" />
        </mxCell>
        <mxCell id="1ea317790d2ca983-4" value="&lt;span&gt;Node 7&lt;/span&gt;" style="ellipse;whiteSpace=wrap;html=1;rounded=0;shadow=1;comic=0;labelBackgroundColor=none;strokeWidth=1;fontFamily=Verdana;fontSize=12;align=center;" parent="1" vertex="1">
          <mxGeometry x="885" y="-60" width="75" height="50" as="geometry" />
        </mxCell>
        <mxCell id="1ea317790d2ca983-17" value="relation" style="edgeStyle=none;rounded=1;html=1;labelBackgroundColor=none;startArrow=none;startFill=0;startSize=5;endArrow=classicThin;endFill=1;endSize=5;jettySize=auto;orthogonalLoop=1;strokeColor=#B3B3B3;strokeWidth=1;fontFamily=Verdana;fontSize=12" parent="1" source="1ea317790d2ca983-5" target="1ea317790d2ca983-8" edge="1">
          <mxGeometry relative="1" as="geometry" />
        </mxCell>
        <mxCell id="1ea317790d2ca983-5" value="&lt;span&gt;Node 9&lt;/span&gt;" style="ellipse;whiteSpace=wrap;html=1;rounded=0;shadow=1;comic=0;labelBackgroundColor=none;strokeWidth=1;fontFamily=Verdana;fontSize=12;align=center;" parent="1" vertex="1">
          <mxGeometry x="885" y="90" width="75" height="50" as="geometry" />
        </mxCell>
        <mxCell id="1ea317790d2ca983-23" value="relation" style="edgeStyle=none;rounded=1;html=1;labelBackgroundColor=none;startArrow=none;startFill=0;startSize=5;endArrow=classicThin;endFill=1;endSize=5;jettySize=auto;orthogonalLoop=1;strokeColor=#B3B3B3;strokeWidth=1;fontFamily=Verdana;fontSize=12" parent="1" source="1ea317790d2ca983-6" target="1ea317790d2ca983-8" edge="1">
          <mxGeometry relative="1" as="geometry" />
        </mxCell>
        <mxCell id="1ea317790d2ca983-6" value="&lt;span&gt;Node 6&lt;/span&gt;" style="ellipse;whiteSpace=wrap;html=1;rounded=0;shadow=1;comic=0;labelBackgroundColor=none;strokeWidth=1;fontFamily=Verdana;fontSize=12;align=center;" parent="1" vertex="1">
          <mxGeometry x="735" y="-60" width="75" height="50" as="geometry" />
        </mxCell>
        <mxCell id="1ea317790d2ca983-24" value="relation" style="edgeStyle=none;rounded=1;html=1;labelBackgroundColor=none;startArrow=none;startFill=0;startSize=5;endArrow=classicThin;endFill=1;endSize=5;jettySize=auto;orthogonalLoop=1;strokeColor=#B3B3B3;strokeWidth=1;fontFamily=Verdana;fontSize=12" parent="1" source="1ea317790d2ca983-7" target="1ea317790d2ca983-8" edge="1">
          <mxGeometry relative="1" as="geometry" />
        </mxCell>
        <mxCell id="1ea317790d2ca983-7" value="&lt;span&gt;Node 5&lt;/span&gt;" style="ellipse;whiteSpace=wrap;html=1;rounded=0;shadow=1;comic=0;labelBackgroundColor=none;strokeWidth=1;fontFamily=Verdana;fontSize=12;align=center;" parent="1" vertex="1">
          <mxGeometry x="545" y="-60" width="75" height="50" as="geometry" />
        </mxCell>
        <mxCell id="1ea317790d2ca983-8" value="End node" style="ellipse;whiteSpace=wrap;html=1;rounded=0;shadow=1;comic=0;labelBackgroundColor=none;strokeWidth=1;fontFamily=Verdana;fontSize=12;align=center;" parent="1" vertex="1">
          <mxGeometry x="585" y="-40" width="75" height="50" as="geometry" />
        </mxCell>
        <mxCell id="1ea317790d2ca983-19" value="relation" style="edgeStyle=none;rounded=1;html=1;labelBackgroundColor=none;startArrow=none;startFill=0;startSize=5;endArrow=classicThin;endFill=1;endSize=5;jettySize=auto;orthogonalLoop=1;strokeColor=#B3B3B3;strokeWidth=1;fontFamily=Verdana;fontSize=12" parent="1" source="1ea317790d2ca983-9" target="1ea317790d2ca983-10" edge="1">
          <mxGeometry relative="1" as="geometry" />
        </mxCell>
        <mxCell id="1ea317790d2ca983-9" value="Node 1" style="ellipse;whiteSpace=wrap;html=1;rounded=0;shadow=1;comic=0;labelBackgroundColor=none;strokeWidth=1;fontFamily=Verdana;fontSize=12;align=center;" parent="1" vertex="1">
          <mxGeometry x="395" y="-190" width="75" height="50" as="geometry" />
        </mxCell>
        <mxCell id="1ea317790d2ca983-10" value="&lt;span&gt;Node 4&lt;/span&gt;" style="ellipse;whiteSpace=wrap;html=1;rounded=0;shadow=1;comic=0;labelBackgroundColor=none;strokeWidth=1;fontFamily=Verdana;fontSize=12;align=center;" parent="1" vertex="1">
          <mxGeometry x="395" y="-60" width="75" height="50" as="geometry" />
        </mxCell>
        <mxCell id="1ea317790d2ca983-11" value="&lt;span&gt;Authentication&lt;/span&gt;" style="ellipse;whiteSpace=wrap;html=1;rounded=0;shadow=1;comic=0;labelBackgroundColor=none;strokeWidth=1;fontFamily=Verdana;fontSize=12;align=center;" parent="1" vertex="1">
          <mxGeometry x="35.08" y="350" width="90" height="50" as="geometry" />
        </mxCell>
        <mxCell id="529dLqMRrzq7dsGYqpGg-1" value="" style="aspect=fixed;html=1;points=[];align=center;image;fontSize=12;image=img/lib/mscae/Cache_Redis_Product.svg;" vertex="1" parent="1">
          <mxGeometry x="350" y="650" width="50" height="42" as="geometry" />
        </mxCell>
        <mxCell id="529dLqMRrzq7dsGYqpGg-2" value="" style="aspect=fixed;html=1;points=[];align=center;image;fontSize=12;image=img/lib/mscae/Kubernetes.svg;" vertex="1" parent="1">
          <mxGeometry x="490" y="220" width="50" height="48" as="geometry" />
        </mxCell>
        <mxCell id="529dLqMRrzq7dsGYqpGg-3" value="" style="aspect=fixed;html=1;points=[];align=center;image;fontSize=12;image=img/lib/mscae/VirtualMachineWindows.svg;" vertex="1" parent="1">
          <mxGeometry x="1380" y="460" width="50" height="46" as="geometry" />
        </mxCell>
        <mxCell id="529dLqMRrzq7dsGYqpGg-4" value="" style="aspect=fixed;html=1;points=[];align=center;image;fontSize=12;image=img/lib/mscae/Azure_Database_for_MySQL_servers.svg;" vertex="1" parent="1">
          <mxGeometry x="202" y="570" width="38" height="50" as="geometry" />
        </mxCell>
        <mxCell id="529dLqMRrzq7dsGYqpGg-5" value="" style="shape=image;verticalLabelPosition=bottom;labelBackgroundColor=#ffffff;verticalAlign=top;aspect=fixed;imageAspect=0;image=data:image/png,iVBORw0KGgoAAAANSUhEUgAAAQcAAAC/CAYAAADzRRkLAAAZg0lEQVR4Ae2dvestxRnHf39CgoWFdQjKDZLGYKcSbp3YJMUFLUxlZ0BIsEoaSRdsxMbeFJIUFgH7wA0B84YGkbxoCgPJBUkgl+AJn+N5fnd+c+Z1d2Z39ux3YNmzu/PyzHee5zvPvOyeq4OCEBACQiCAwFXgnm4JASEgBA4iBymBEBACQQREDkFYdFMICAGRg3RACAiBIAIihyAsuikEhIDIQTogBIRAEAGRQxAW3RQCQkDkIB0QAkIgiIDIIQiLbgoBISBykA4IASEQREDkEIRFN4WAEBA5SAeEgBAIIiByCMKim0JACIgcpANCQAgEERA5BGHRTSEgBEQO0gEhIASCCIgcgrDophAQAiKHwXXg008/PbzwwguHq6urw9tvvz24tBLvkhAQOQzcmnfv3j2SAsTA8dJLLw0srUS7NAREDoO26IcffniDGCCH27dvDyqtxLpEBEQOg7aqDSXMa7DzvXv3BpVYYl0aAiKHAVsUAjAy8M94FApCYAkERA5LoFxZxjvvvBMlh7feeqsyN0UXAtMQEDlMw61rqldeeSVKDq+++mrXspW5EDAERA6GxEDnxx57LEoOzzzzzECSSpRLRkDkMGDr+vMM/vWAIkukC0RA5DBgo/pk4F9/8MEHA0otkS4NAZHDgC3qk4F/rZ2SAzbaBYokchiwUX0y8K+1U3LARrtAkUQOAzaqTwah6wHFlkgXhoDIYcAGDZGBf0/7HQZsuAsTSeQwYIM+9NBD0aVMIwniaCv1gI13QSKJHAZszCeffDJLDpAE718oCIFeCIgceiE7I1/evjQPIXe+c+dO0oPgXQxe/WZLNkMRdlgyoUm6Z5999nDr1q3D448/fuOAnHgO+RCf1ZF33333oCXUGY26waQihwEb7cUXXywmByOP55577vDaa68djRmjt/s9zpAJpAHhaGgzoAI1Eknk0AjIltlgeD2MuleeeBlvvvnmga9WKVwOAiKHAdvy9ddf3xQ5uKSDB/Pee+8NiKpEqkVA5FCL2ALx6YVdg9vib14QY55CYbsIiBwGbLvU9xy2RhRMbmoic0AlKxBJ5FAA0tJR6HG3RgI5eflGhSYvl9akeeWJHObh1yX1JZID5PHII48cl1W7gKZMmyMgcmgO6fwM2Y+Q64m3/JzVGIXxERA5DNhGU/Y5bI0sWP78/P79AdGXSIaAyMGQGOSc+vL01gggJy+7M7U3YhDFC4ghcgiAsuat3rsbcwa79HNeIBNBrKlx8bJFDnFsFn+ytZ2RLYlEBLG4umULFDlkIVomwiXtbZhKGiKIZXSttBSRQylSHeOF/hdzqoEtmY45g5dffvn4AhZvfrLZiTkTjJwt1Nxj5YW3O1Of23dlFkF0VLTKrEUOlYD1iM5bjq6BjP6bDU1Tdj1CGKk/7KHeYKHNUj20rD5PkUM9Zk1T0POOTgYmH9+BaNGzY/yp+RX9m3hTFZucmchhMnTzE25pnqHmJSri8vIYxMeQggNiYYjBUMMCw6nYcIO9HgrrIiByWAn/Lc0zIGtpKP2KFWTBMIONULE0vLqusB4CIocVsMcgnnjiiU0MJ2qIASiJj3fAYR4ERMD+jdCHc8EhtV28xmNZoSkvukiRwwrNm5uUszH+2ucphmmrFcxNcLiTi/xmIhOyKK2bNkmtoKCnIkUOC2OPwZUaxprxMOCSgKdAz8+7EixthmTmbUy+60Ce1B+SwLMIxQ3d0wRlSUu0jyNyaI/p8WvNbo9pRXAvpPwj3gvJb/XgzGSqvwQLQUAUEIANLTjz9WrmD3hudWUikq9F2XXujLelsCwCIofGeNu7EZz9YM9yhrD2c1YaYgFSwBMwGVmJgABqAt4GZZT+P4eVNWWYUyOX4t5EQORwE49ZV/7avWtkqUk3U/4RzngDocD8gdvzU9cWex5YsYBgSuteO0EaqovulSEgcijDKRsLQwkpOMq/peFEqHfmntWN/QctSMEHFJxKhhnaQekj1+9a5NAI29gKBB5Dzey8GeEa59BQiD/KMVkYUvQOeFtWXuyMp6HQHwGRQwOM2bfgjsNNqenlamblLd1aZ98jsC9SsRfBf9YAtmgWlBVb+TBsIDLIKjdxGi1ED7IIiByyEOUjsHZvSuueccdj24PdeCP8xkOwgMHZ5Cl/UrP059woH1KlbMMGeWLLpWzTnvIimNVX5zACIocwLlV3Q5ONKPNW/rkKD8cIAMO0VYS1lg9t4pPJR3sxzSZ3kQ/PgmvfW1tL3ipl2VBkkUODxgrNN7iTeNb7jXq2SUgIAqJATjPGBvBUZcGeCMq39y0gApuzCQ1tfGJeeghUVbmNRRY5NGgwG5ub8XNtPZ7dG/WMrAQMz3ri2n0LDSA8ZoGnAE7IQbD5GrwFvAm2UpuH45bJcxsGGc4hInHT6HceAZFDHqNsDJ8crPczRd3KGQNby6gwcJufcfcy4BlAFvY8tVLhenB4QArzEBA5zMPvmNolB1zgkbwGZv0xGoYJkBbG5h/ct/0YkEPuaADZWRa2x8GGOG4E5MVrsInfUByL7xIEG7UUpiMgcpiO3XVKd2fkSHMNyIJrjsEwhqc3jR2QiA0rcp5O62GHDQncFZNrcE8/IDDzLHLfebD5CuqBx6EwDQGRwzTcbqQyQoAkRvAaMA6MwvVocgZf8zzVc98ApuDCiBWCSAWIAVKg7NC8g5vW5i6oU4pw3DT6fY6AyOEck+o7uOEoorm9NYbWOi5GhvHYcmTr/HHvWwXXiFMGD+Ey7LC5h1D5fnojRkhFYRoCIodpuJ2lghisF2xtkKX5mfGYm16ariZey57Y8HKXTW2+A+JgB6QNERhW2HwCRMF992AJk3oThzxspYO6ca1Qj4DIoR6zYAp6rhojy8Wlh0bRMRwm5GytP5WOSUWMNxVn7rNg5SfetCEY2CF7zNuh9zcDBwtIgHuQg/326+Xi0HqOZGJ1N5dM5NCoyVBaX0GnXodecMrlTy/s9pZTy06laznXAOxGDjZnQ9nm9UAWtQHcIA2/DiKHWiS/iC9ymIbbWSrbWegrZs01G31iIZU/PSgTkDVl1cZtOZywOtqwAlmoX4gULW7NmSGekQx5Q6wK9QiIHOoxO0tBL1drbH781OYeCvTj2zXjb9xy2ydg91ue6eF7BHdCEoNuHWwo1op0Wss3en4ihwYtZBNlUw2SsXYqxMgHjwFiMPd8avmpdPTuPYN5D73KoG4aVkxDV+QwDbfrVLatN2VguWe5XjNEPrzOTDDjypUx5TkrBEuEXP3nyIB3ojANAZHDNNyuU82dBEzNM1AIhuMbNmRBcL934MeZc41HIqO6buLd/hA5zGz6UK9eY5ipFQB3TG55MrkGIZVudbZ0JWdm+jU+n6kQF5Rc5DCzMecaaax4XHr2OrhGzaRliDDcOFN+M7MPKTB/oSAEDAGRgyEx4dzCUP1imcNwl+FcY2fiscUcB3myo5ANVra5yJdD10JA5DBDBzAu13in/HYn49zNQLG8mICElDjwLiCM0MYfPz1LnexVoAwIRkEI5BAQOeQQSjzHzfeNsPYaL4F5hJi3ABlAIBi2P4RhHZ+0EAUBo+c38TnwCjRUSDSgHiUREDkk4Uk/rCWC2vi2XGlSYPxMRuItMCyw/CAQBSHQGgGRwwxEzTjnnPEYMPrQS0ep+QCGFJRry5ozqqGkQiCIgMghCEv+JoY7hxRIyzCBENrIlFpStE/e93jfIV9zxdgLAiKHiS0d29I8lzBIHzN6PAybm9DLRBMbTsmKERA5FEN1M2IvcmA+IRTclQzKVhACvREQOUxEuAc5hDwGvAVbFeHMtYIQWAIBkcNElFkqbDGEsDxCcwzuPorQ84miK5kQKEJA5FAE03kkenAz7DlnW61wS4AILE9WI7RXwUVHv5dCQOQwA2kz4Cln9in4L12xh8H+ep6vJ9vmphkiKqkQmIyAyGEydIfrP52tJQf/T1lYFrVPqYsUZjSIkjZFQOQwA06bKKwhB+Yq3GDzCgwv/GduPP0WAksjIHKYgTirCzXE4O54hAjYBMWhpckZjaCk3RAQOcyA1nr9EoIwr8D95qM2Ms0AX0m7IyBymAGxuzEpRRBGDBZf+xVmgK6kiyEgcpgBNV6A/7UmlyR4mYqhhLuRyV+hmFG8kgqBrgiIHGbCG/rALIRhQwabl+CDLO6cw8xilVwIdEdA5NAAYgjCPAgmGJmLsD9UwZPgWkEIbA0BkUOjFmPogJfAkiQH5MAQQrsbGwGsbBZHQOSwOOQqUAhsAwGRwzbaSVIKgcUREDksDrkKFALbQEDksI12kpRCYHEERA6LQ64ChcA2EBA5bKOdJKUQWBwBkcPikKtAIbANBIYmB/YIsH+g9OgFeWn5frxe8li+o+Bj8nBeUyYXf1em0G83Lr9bBj/v0uvR9sQMSw68xsyXmHlJqeTgIyk9vrOIHHfu3CmSwZeTj7q0VjxTYuTi/y78MlPXbOnuJQ9bw6kv7ZCSwZ7xb17I38ogKN9tp9xWdXatEp/DtrobtnPOU/UFPEg7UhiSHNiODFimSKXn1g1NQ01tbGRGHgygtUHylid512Jk8rQySFNk5IEUauXpRQ7IUUIOxGutM1P1BVlEDqZRkTOG5PaINJ5tSU6dTTFLFCNSdPC239gpGdxnJg/yQ3atAoYNPm7+brmx30awo8iDnHiGrYhqiucAhr3JIdYeofst9aSFvg3nOdALmSLzfgLGScOnDj7EaoRCY7d8LdolB74EnZLDnkFwuK0oH4f/zcg5DUddzXXnjEJZuamzi0/LF8EoE0WnzZAH7FNyuM9aelTkS9ub7uTytvbpSQ7or1vf3O9WRDlHv9y0w5EDxmgNjDHmGtkqY42NMfIns62CSw4YWGnAaE1Za9Ll8occqKMZIwpXEhhXI08PsjJywBjWUnCfHAwX5PEP8DJ96UkOsX8vK2mvEeKIHDKt4JNDqfJjjBgiR+ifrDLFRh9DDkY69NSl5Alh9iAHjNDIoeUwIQpA5IFPDhBy6oDIINie5ED7pGRwn/WYTI9AVXx7aHKg8WhE/8Cj8A8agvgYYy/PwXprysodxDV5Wg5zfHLwcYhdmzG09hxccqCMUvIs1tDCiD45GPZG0P7Z2qcnOeRkMJmQoeVQrxCybLThycEasfQM4D3JoVQOUwwMBsVtFVxyqJHF4oJPyzmQUcnBDC92NjxEDnHNHJ4cYo3r37fG5v6a5GByIQ+9OMbcMvjkYOXlzi4+LckBeUYcVqADeGy46+7BPQ5cejDpSQ54l5QdksOVid8MX0cLQ5MDxsXEXsnBuN4MpBc5mLHTW2IUoYPVFg7ilM4H1CiFSw4oH4qXwwfFgxAMn5bkMKrnkMNeE5J5rRuaHGD3XCNbFa2xMYBe5IA8aweXHBiylOIDJvSS4NOSHCjfPAd6Ykja7xVj1xBbqwBJUT/zkLhOBdOXJTyHWP39+zmZU/Xp8exiyMHtGfdCDngOpQrVaykTpcTQzDDNO8mdiY8n1moCc0RygKhyONhz8MADHCkMSQ4AZcpT2jNCDpau9V55ekaTZ+3GM88BpaolB6tHy6VV8KCN8KrAyJQ9dzY8W5MD5ZJ3jjSN0MCkh77k6u8/R2aRQ8a6UH4MnQMPoFR5cFFReo6WICMPisSBG7h2QOmpI/ggUyl5gonh09Kdd/GgDAzN2i93Jm5p+7rlhH6Dg1teDpee+mLt48qT+00adG2kMJznADgozBSlmZpupAYpkWVqPaemK5GpNs6U9s2VUVu/2vi58u35lLpNSWPl9ToPSQ69Kqt8hYAQKEdgOHI4svlnnx0+jxzlVauLmSz3/v3rzJLxIjLH6lJz/1qABj+OdQi8c3B2v7Q+Dj5zxVsSX1/WJcsOtn1DHP26Tbkejhzu3b17+P1Xbx1+/7Wv3zy+8ujh/W99e0odi9L8/Y03Dr95+OGbZSLDVx49/PXHP7rO494vfn68dyafL2/D6989/dTh/e989/DJT35y+M9HH1UPuVB6cKUef/re9444gmXuKK0j8pEvGCJfbfjvx387/ONnbx3+/P2XDu/fvn3eBg2xPNbpq7eOeGKgbojqQOvyA/mhe/9quLTr1mvq7+HIAYDuXl2dHb+6ujoqzdSK5tKhGJThl809lNYCShyK56drfU2ZVi4G9O/flu2oQ94/fOMbx7RuHj3lgygw+FzAOCG8X3/5S9fytZYrlB84/O6b3zx6pyYjBPrxaz+9xjiUruc9ZPrnL39p4gxx3gw50DAoea8wOjm4ioki0dPkCCJWJzevHr+R74Pnn8sSxF9++IPVjHE0cqAdRA4Z6455DoAncrjp2UAQMTee4Q9G2sP4S/KkbIZCvutuzc8QZ035RA7WEvGzPIcTNrFeFgUeYVgRMkhfNmvm/33yydFVD6VZ8h7ygasfmP9YkxjAQOTgt8r5tcjhhMkWycEM3e+d1xw7m0x2ZgLQlw+PQuRw06sDDw0rzgnqxp0tDytoYCbX3APXf87Bagn5mbH5Z8p0Z7kxRHpFP5577cqX+l0qd87Q8RQsIF8ufkqmFs/AgpUal7RyE5KUW4rHlHjI5Laj4bXmWZ7DCf25ngMKzwQbs/TMA9jB9ZwDBWaY8Mfnnw8aPOW6rjvlosguGdhv4uJVmGy5c6ncTIxibCGj9+VLDSkgQnrPnFytnkMIFnLkwKpPKR5T4tHGLlmZXGueRQ4n9FuQA8tyvUJsCdUM3spNGR/7EXopIEYdIwcXlxTOLIGuFXLkwATv3oLI4dTiKaUtmZDEMFwjaK1IKeNzPYcYOSBfavVgrry4xHPJwcV5rjy16UUO54iJHE6YjE4OKfncMf3o5JDygCCvtUKOHEabLFwCp02Rg41JcfFaH7i0sZ7P7dFSys3Gn9ZykR/EwKy/zR34Z3eoMDo5MD8Rwpk6cZ/9Dy0xxKgp08UoZFg5cmgt1406OhO2IdnWurcpcjAFQolaH77B2TXl+ORgz0Ln1nJZfrGy/KHMWuSQKteXMTZhSh2tvi3P5Au5YuBMFoZCjhxayuPntabHFMLC7m2OHEJG0vMeDVlDDj1l8fP2l+No1JiRkpYJSTyfG71WxAujx8VjKT1iW6HBzyeHtXZHIgvLjGDkhxw5+Ni3ukYmPM4Rg8ghs8V4VHLg5auQq5wih1qFpu6lRyxv0vvkgNxshY+l6X0fmfw9BSKHc3oSOWyUHJh/CfWALcmhhZGGyAE1xDhb5D8lD2TCi3KHGCIHkUO1QqJIow4rkM2fRd8KORhB4OZTjylGPicNZTIUsrAWOVAHDSusFTLnXI9Co/Y4YopGWTXk0EM28ozJh3G5w4stkQOqwEoCxoEntAp2p12SOXLoJRv5akIyQwr2OEUOGAKTWTB+6yP2PgKNV0oOuKqt5bL8yDtEEMjHpKGFrZGDyQ1JUA+2dzNH0eqg7cAohB33KJeQIwcmf60tWp6Rz20/w2OE86bmHEb5nkNI0VBAf+KtZQMzPg6Vy73jzsdTD5gjB+TsdYTk641LCcbggxy+fNyzYVmOHCxeSXmXEkfkcGpJ2DumQCWeQ28jSM3wQ5o2uZYiB7wPPK9WvbKbD0MD3/i47o1LiSHGlk6RjaVdQo4cWP7dWxA5nFp8C+TAuDxkgAy3eFORECMHDMEludaKTs9KGb58I5ADw4CQbMgqcohrgsjhhE0LcqCHogeily86Sj4Pf4qTmouBNErJwZ28jKtF/RN61pABxsjhiFNF/afEpxZ4VKn5GnAllHoOU+QoTVOPet8UIocTvnPJgV6IHhwXn+P4CfTAJ8i5b89RWiZCs0dkMtJ6afIxo895DhavtVrVkAPGwrssxfUvwSgSh785MJxCZyPVHDnQZtl2ishQlO7pp4L7Vlq3U01+IoeG5BBSvt736Jnd4cImyIGvVT39VNDT6I2X5Q9uELWFHDlYup5n82JMprXPIodTC7TwHHoqTixvlNxVqs2QQ+ZTdrH6troPbrS5BZGDIfHgLHI4YbFFcvC9BqoicjifFPUJBdwY1kAIFkQOhsSDs8jhhMXWyAEFZ2OOLWFak4oc0uQAbswf2OYnw03kYEg8OG+GHKxRH4je9tdWyAEc6AnZ2OMTA4hshhwyk6x+bz/3GtxMh2wS0tUgkYOLxhe/RQ4nTGrIwQx0rsLWprft46ndemuRQ+oLWf7OUVZMlp6QxMtCRnco4ZrD2uSATrlzR65sa/0ejhxoJD7THTp6LcMBPnmHyvQ/GZ6SL5a+xX3kK6k/8lncs7Mzxm6tcJQVq2dIbryeWPzW9484FNQ9VYfWMoXyo+1GCsORw0jgSBYhsGcERA57bn3VXQgkEBA5JMDRIyGwZwREDntufdVdCCQQEDkkwNEjIbBnBEQOe2591V0IJBAQOSTA0SMhsGcERA57bn3VXQgkEBA5JMDRIyGwZwREDntufdVdCCQQEDkkwNEjIbBnBEQOe2591V0IJBAQOSTA0SMhsGcERA57bn3VXQgkEBA5JMDRIyGwZwREDntufdVdCCQQEDkkwNEjIbBnBEQOe2591V0IJBAQOSTA0SMhsGcERA57bn3VXQgkEBA5JMDRIyGwZwREDntufdVdCCQQEDkkwNEjIbBnBEQOe2591V0IJBAQOSTA0SMhsGcERA57bn3VXQgkEBA5JMDRIyGwZwREDntufdVdCCQQEDkkwNEjIbBnBEQOe2591V0IJBAQOSTA0SMhsGcERA57bn3VXQgkEBA5JMDRIyGwZwT+D27vV3Diq6ToAAAAAElFTkSuQmCC;" vertex="1" parent="1">
          <mxGeometry x="460" y="570" width="88.13" height="64" as="geometry" />
        </mxCell>
        <mxCell id="529dLqMRrzq7dsGYqpGg-6" value="" style="shape=image;verticalLabelPosition=bottom;labelBackgroundColor=#ffffff;verticalAlign=top;aspect=fixed;imageAspect=0;image=data:image/png,iVBORw0KGgoAAAANSUhEUgAAAEkAAABOCAYAAABsdjtkAAAHUElEQVR4Ae2aXascRRCG85sEwQtRFL0QBEEECXgleKUS8EIQBCWIIAiCoB4MfhAJBmNQAsEQlcSDweAHkUjwGJVIMBgkEgkGiURKnrO8szW9PTM9O92zG5mCpXdnenqqnqmururZHTZJJ4EdnT2mDjZBSnCCCdI6Q7r+r9npi2YbX5k9dtjs/v1md+81u2lj1vKb45ynH/1XJaN70oUrZi+fNLvz7RkQoKR8APjql2aXro6PajRIl/82233c7ObX06A0geP6F0+YXbk2HqxRIB3aMrv9zUU4eNOTR832nTb7+oLZmd/N8DSm18lfZ8efOGJ26xuL197zjtnmL+OAKg4JAKFXMHU4fu16mpF4DbEpBI1Xffxz2hhDehWFtOebOqC+cELDYrDGAFUMEnHDe9DDH5pd/Sc0e7nf5y7PV0LuURpUEUgvfVEOkLDGQJWKUdkhoaj3IAJzLg8SILUhKIJ5apzTGCltVkjEDBQVpEcOlU8CAXXLnvk9CfC5JSskFBQg4gQGjCE+/pEu5E44s0HCi/wSTVwaS4DivemZY3nvPBgScE6cN3vqk7oXkRSOKd6b8Oa3Ts2S0xwxailIF/+a1VEUoZpeviVLHlvwplhmjoeRfnzw/fJBvRekrUuzMoJ446H475QaQFyFHPmxWS90RDfCAN7fR5Ig4bIE5SY4PEG2NSg1xp5mobHUfYDYeaAZGJl/n3KmExIrVGxaAYY4QFG6yr2eEJL/TX5G3rbrozgwjqfkcK2QwmQNl2WO41V9XdYr3/Sd6cyUYVslt/z0R31xUYggXnXZ0giJQXFLDUZLcnj+z9zqz7ZF/PRgWrOM58530JwtmPverdvFTGl7MFFIuGA4EFOrhBAbgMID2f/dzIgXPp8dQ/kSoLAPD/IOQExtkigkdhD9AKUBUcqEMAQPD0uJG00GNh0njlJXejvJrWKyACksUEvlPIKABzWVL+qTc5vFQwDUQwfnoPBo4mIoC5B8bLh3X3dQCwdM+S3j2wBpHO1slgJFTudfSrDihVKDdOzcnCpuWGJ/5tRvs8w4BZCUFSimR4l0gz14P+3Yb/dSg+SDGR6VW5YBJB1KggK8X6jCIF5BYgn0NJkSOUWASEJj8z7lXgL1/GZK7359vDeRC/rFooJ0+OwcEp1yVM9Sk8DMNgqAgDVEBCr3iou92C1H8U5SQXr603mHWPBa1jBl7TkASQfe5GIMb2Nyii9f/J5UBYlsWhRJ6nJICUDSC09CXzwrl2C3GMBDUkHygYv6aaiUBCTdlPQST3KIX93hIakg+a3XcAlU59SW7JmbkJwNjUFt91TWzH18DGm7pu0cOxryJHhIKkjcSB2GQAIQNVcuxaVoU+tBsY08RCjexQD9JRUksmt1wO2WFXKtsQBJR4FicRiyS4FziAE8JBUkn0geOKPT/VpyC25CvUec6Pr0Gb1rLAXdIQ/Yp0HwkFSQfEU85HUQyzJPVE+krZUSKW3bODrHNB+S3/k/eMBDUkHyLxZ9ZFfHPi3uz15300fLd58xAcF1TWNynPsOEb8j4HOwCpKP7Ci0bOmQoqQeSEpf9UEnrisl7AbII2nZmZVUkDjg3+MPmXIavKldR0jSCUDhTKpBonAUTeqYcLewyei+x6VQn+vQq5Qn8SLA54mUPV5qkHA5X+T5+sVfNPT7ukFi1sg5gBW+FKhBwnj+PqwLyHdKbLytEyRyI+yUzbF97gVIoeuxnPsgNtSLuH5dIJF4+q3bpj+BLUDCCN5NebpcnBPUOkACEHmVPAhnYIWPSRQSHbW55QfJUUQy9qohUeP5QI2NbTsfjZAwhpeEgqQ2x5vVVUFitdaLT9lD27Un1QpJHuWnHoOyApL9LltMjg0JPVnWw3KJ320ehP1IJyQ6EaNC99STYF6jAAUoKwWbbW2lA+dUlnT18+e5X1dZQn/ujx7ow8Pw7xGlMy1xNrWqSIIEKFY98gmfR/mb3ijfedgs830K4WRI235nsyycJ+r3n24EQJQaFK1df7ORnb7tDclfTFrAjdlWYP8FcKv2NO6PHmzk82fXvd8uHztl6yBIGuT/3k6QEp7wBGmClEAgocvkSROkBAIJXSZPmiAlEEjoMnnSBCmBQEKX4p703vsH7bY77qp9tn44W1Pt2d3P1c6r/yuvbdT6cZ3OqWX80lIU0qOP79o2yhtx/LPN7WPeOCDx8SIg6qfraCXqE8LU+VxtMUgY98CDO6N6ymB5VAwSFwJZAGj5HQrHm+4T9l32dzFI3sCYchgmADFIAPTGA50p5j0pNm6JY8UgYaCmSkxxD4bvijFh668Fqj8f8yzfP9f3tYEEqFAAHTtOPw9WHhlen+t3MUhDpxsGtsU1AdA01O8SbTFIbcqnBm7G0JTyMcyD0AqnRcCfy/W9GCQUxEBiiBcBAoCEqRObVlyrfoIeBm6uE0iNl7stCgllZZwPuOFT9/HF9wtjjQD7PjG4Nxyk3AqvYrzinrQKo3Lfc4KUQHSClADpP8E5aU5bD1eyAAAAAElFTkSuQmCC;" vertex="1" parent="1">
          <mxGeometry x="1002" y="462" width="73" height="78" as="geometry" />
        </mxCell>
        <mxCell id="529dLqMRrzq7dsGYqpGg-7" value="" style="shape=image;verticalLabelPosition=bottom;labelBackgroundColor=#ffffff;verticalAlign=top;aspect=fixed;imageAspect=0;image=data:image/png,iVBORw0KGgoAAAANSUhEUgAAASwAAAEsCAYAAAB5fY51AAAgAElEQVR4AeydB3hkR5XvlaWJnhnngE0y0Uvw7rLx7Vtgl+XtA3Z5G1jAeEbqKGnG47GNM3FtogEb54yNwSauScYGR8CAsbHB2WNP0ChnqaVON/3f9z9VdfuqldUaaXp09X2l2337xrp1fvecU6dOVeAA//M8D6YUX6oHgMWRpQsPFoAcgIwsPdj+7zYAFm7Lwu08ZGDDQh42bLhSeDz54weXOzmqOC7gsqifzXE8s52scNXBuY1nzsPtbcDNAO64XJsDF/zEwmsq5c/cP4/pwNJ1YAG8XlaHuWlPfcwDYOH9yh+vm9vor/zIGszBRRau3lbdi6cqxN+C9W2251Jq23MAR9cZ647H93h4BzlYUrLIIo8cbDmTBXg2wP30RRTuSe2uDyHPUv5xA48X7KoGUEoFhvuWVQ1UHOhXOx2sgtdNQVKFIsNCSaXwcn2h0VOoTONX0kxo2aCwiwwo2VKHNisIKQq/ARbXB44pX/nPbKehxlWFc1GwcgpYXMJGFpDCbUr543nMuRzBh7p3uV5FEV+u+dXASuBT2NGwQo6ldiPAFcsK98ErJShUHROQeYGagr06v95L6kEDxVPXWDgu69zA1ZxFAWji/RSeHdf7f7KRBpa/MvywEmqgLIA1/YNgo1X6gBIivscLoDCNn8KpNBAFNiV0AY3JtH2zA09oPvNNLhoAtQAKFzcuQIJrFHT4SWsLel3hN+5mAw6hlZPj8PATQTD9Xc70i3+ZspG+EV6nBifvw5yLWpWCs74Xsw13kwOZiiiAxq8HvQ2vmfdF8FELU5oSNVVVqEfxhcEXAf+C18fPsiJwGh+AngOPpejlYfaXg/n/JhzAXxt+OPhr4IAH1syPQGsuWmsxsLIppNKmzQcFE6V9KW1KBMdInyGLFkoKiToWt1Vam9LIqL0o6JlfjMZiNDa1VODkYVlEUHlsh9CiuUZgmB9mvsPZfp1wGPNFlkqoCQCCSpm95l4INF4L68+AgrC1AFcXMYW1HWkqVnOM98T7ZqGmVHhpFGA1CTzBR2EqRleOCyvwSjHQcmWduiXeC//UPU1c6p/CxYqogfIGFlsz6WQrP5eRA1fW04djA7Y254RgBkS67fvA0hqJ1kZo5igfDvUGS3tcqEuwUESVQaN0O+oTFDIaeQVtzz+0hp/SLHgtBIWGBTUcXmsJf/7u/BCUZ7kXeokK108DTszlgI+JPjzeF7eioSr34WUBN6/gankFVpNNrGRetjkX15FcXJrfHTqtHOWXcrUP0mxv4MefxSXIK+JV2HA8Fta+MhddjwfmjvqkE27QHLCEygt3LbsaKG9gsc1qYaGywKZOR7FFSZAVhBYFjgKk3vkCNQpzkCjUJrRgUVSycJCRYiGNHDLIIatxpVz0vmGl3cae9psZaPEoCo4GogWwUNq1SRYwMRfacnhXItRcGBjws4g5gZUHndy8A5vA4o2T6AS96yGPvL6/jHzinbteBh5NV4fQouNc9yD4x1f7yvnIaHPb/MznwdtzXDmXb4y7ru/m46Ph6Q3jqP0FoSUaF8ElwDI1aJbqfo0Gt9B6C/crzxooW2DRGS+yqt/qlJO09L6x788TmRSB0r+7LsVAv8nZ5tn++Zt502vrh6uCmpPt5uC4WcBJA3YWsPNKcyME2RmmBU9djzaraFoFHP5G1LikzCvImLWaLgtqP+ZGqCFOBBYByb7PoF5o/EpBc9TxTL1Qy2IxfXlKn7RkDT1TqijtUtWk7Ol4ojDSwpTiqPcDGZaRF0hgP55Lzqf0UW7D50ZDUulVxstGjVXXpTwo1hVvUNUV782UBVVbuFPZ1kBZAsvvOdTySuuDwjEGB6NwMG5cviK1fJ3T2T0KeIOA1w/Yg0BuFMiNA9Y44DDkQGkV1CykeGodrBSQTwE5LtNALqeARUkLAEvMUP4T7ck435W/jOLGzU1R4DL+JCWEC2tB3Jd45fkKMs2PSoFkb5xCjYGVEXSjLFHbkeK5vkmmjMQMslAlo5f8bmEcDlJwwfocBtxewOkFrD7AGgLslPSGUlMjLJVGShwpc1Th0dFaLEGl6kW56ampGqDrhzvBHFS1ZO6By/BvZdXAAQ8s0VymeCZcb9t52E5WdIBxZJBCDuOiZTnI0swjPPLDgN0JuM8B1uPA2MNA/y+BnseAoWeAca5/CbD2AM4+wGoHrE7A7gHsfsAZBJxhwBkD7AzcfEaZNr52oKO+fHeUNvnoAxIVbjpomR67KW5uzquIPhVzxl1EkAPWGyFlOxnYVkZ+pKUsbj3RRgtet7wH5AkucUzZYhLabkoixWx3GA6G4HpDcJ0+BSiPgOoAUk8CYw8Bg3cB3XcBPfcDg48D4y8CuTbA6gbcQSA7oOqPLwc7LfVCUzQtnjMVPpF3PeQcaliEljInHXZQUKsqJpP2NRavnnO1hRuWbQ2ULbBY42zQY+kR2F5a61UpeAKYESDdB/Q+Dwz8Aei8B3jhJmR/exGGfnI6em9vwejXz0D6jvPh3P9FWA9/BXj0WuCPtwLPfBt4/k7gpbuBPfcD7b8Geh4HBp8HxtsVwLwx0cxyuQxyntISRItyCVEbrvQEMnyBAlcwD7mNKQXTsJS2Y4BFI9hoVeocSpjp3M8b77by9etrGPOUz8qjRsRC7Wi8AxjZDaReBEaeVXXX/xgw8CjQ9xug4wFgN+vyB8Dj34T38KXo/9ZmdNzwz3j+i+/E05/7Z+y6qgkjP7hYfseee4HOXwMDTwKZdiDdBaR7FLx00C6Ny7zrCKwsx4btOgJOvpAc+s94I0Ey6e/Fq0upxXDf8qmBsgJWsbZFvxQbrm2lAasfsPYBI08BbQ8CD9+K4ds/gb4bmzFwzX+h57J3YN9n3ozd578SL+04AftOfz26znoT+j92MgY+/TaMfO5/Y+xL/4j0V96L8a/+G8av+C+MX7UFI9fEMfq1HRj99ieR+fnlwB+/D+x5AOh/ArA74OUGxN9CN3zWpQmm5UtAoUMExExUjWKCoPFLSX8FYPG8xrziWqWZ2IBFc9iVaAWbERUCNmoyowCoST4L9N8P7Pwu8Oh1sO+5GM6dF8K+4wykb4gif0MjnBu2wL3+FDhX/Tvsr/4rrC+9G+mL/g5DH3szOs88Bh3bN6E9sRGd8aPRu+21GLngL5H63D8j9dX/RP7WrcjfcR5w31XAUz8Gev4A5DrFjLS8EbheTjRllw4wXjWfqQwfAPSiAC1TecGl7BX+Wyk1UHbAMo2ZD4ifrRyFchwY2w288GNYd34C/Zd+EO0XvgP7zvhTvJR4JdpbjkXv1k0Y2LoGg821GI7XYSS2AanEJozE1yOVPASjzRsx0nI4BpuPQH/yKHQnj0VH83FoS56Ath2vx84db8bz5/0V2r74PvRcuwWZ/zkP+MOtwMiTgN0L2MNifikgUKkxwZmEViDuKihs5vOCW5sBFv1UyptFaPGzmMOMqcqlBVgmkkJ6Cakhel3A0K+BP16N0e82o/2Kf0H3Je9C5yf+Al1nvRH9209Eb+I4DDQfi+HE0RhKHIGh+Cak4ocgndyATGwtUpF6jLTUI9VSByuxGl50LbzIBtjRjRhLHo7+liPRnjwGu7eeiK7z/g7Dl50K58eXAM/fpbQ3twdwU3CtNDwxoW0VPKpJRd+ar2GZuuIy/FuxNXDAAyv4ZAioILAY6+OlUkBmAHj6xxi8pgm7t70W7Vs2oP/U9UhHNiDbtAFW01q40Tp40QogUgFwGW+Am1wtgpZLrEY2acrawOfVSMfrkNm6GoOJBnTH6tGZXIs9yfVo334Uuj73d8qUpLlktwP2EBz2KhotS5zw9MFoP4wROgpicOhK8Cbn9bngdCe6TFSByLQEgGaAPP1XjvJR8dj0xVmE1aPIPfgl7Lnk3Xh6+yvwVPRwtCWPRk90E0YjG2HHN8GObYATPwRWfD1y0dUYj9QhG62FFa+DnahFNlGD4dZ6DDer9c7mKninVgCbK+DGKmAlK5GKVGAsuQpDyUPxwpYj8cyOP0f39Qk4j90EZJ/RvsJRNWzJzcF1cqC2Rd2ZHbGmyuSe5F8RxOZVX+HG5V4DZQesCRXO3r/8IPDUT9F5ZRQvtJyIgca1QLQBaKwFTq2Bu7kOaKwDmiqARl00tNxoDVisaLWUfKwaVrwGdrwKTqISSFao0lwBL1YBN14Bt6UamWglhhsr0NFyGHZ//t3IPXgZMEwTsQdePi0hFZQt0RB4wUbQzMXzu5iJxAyhs9A/7eCX8AUFLG1YqSFAHGxNk8vJYtxjPx23p6/qBeDRm/HSF96HZ1tfhvbYBgwmNiATPwS5xgagqR6IrwaaaoBoLbxYLexYDVg/XLJ+CKR8vAJjrbUYb6mHm2gAonVApErVdbQCFl8MWyvgJPm5GkONq7Cr6XA8tfX1aL/yA8AfvwaMPgd4NE/H4FmjgMPgVUa+e9p8VRqjX4VSd+YloF8EC62+cL+yq4GyAlawdkXTIqz23YfdX0vgD9tfh87Eocg11chb3ttSCyuyGtnEBmRb1sNubYDXXAUkqF1VwIpVIkuAxSiUlUCsGm6sSoTRlt+5TQXQXAEkKgVY3AbxVUBsDezIOgzFDscfosfhxc//C7xf3QCM7JSeRAKKWpYO1RJe8TthorQvQqrgkA/e17w+G+EN9FgqYNHZzrCMMelFZHiBCvcYV718HQ9h9Btn4rnTThJYpZNrga3rgORqIFoNRKuAWKWAx4tXwk5Wwm6ugdNSD6+lAWipA5Is1eq3uH4RbK4CtnD/ajjNVci3VsBqrkC6sQIu6zq5Bnbr4djXuEGB8uoPI/fcXUCmC8CwcvxLr6cF22XEV7DOTM1oSC8K8M0xw2W51EAZAKuggYh8Ss1yTEcOyO6F++sv4/mL/wI7Ww5DZvuhsBsrxSRB63rY8dVIJ9djvHktMskaZAkiaknNLLVwEtVKMKkJUEDjVSKEXnO1wM1NVsKhZkWNTAS4Gu7mGoBaSGQ9MtGN6N/6Mvwx/nJ0Xb4Z2HkPYA2wF0ACSg2gjODxu1onBo/fg1hSY9Gqhzm2fKUJyvpxGYKRlnBQCfdgeEZ+D/DM9zDw5fejq/V4pFto8tXAoQZq7pNLAoYgaqmG21Il5p2VpAaqoO5Fq5SJTU2UYOf2WyqBSC0Qq0U+UYV0sgJpviC2VQPN1HYr4ETqkImvQ3dsHV485ySM/PQLQPdjgNMHzxrWYaQ2svmCaV147qypwCgBY2qXVIHhzuVUA8sOLNMY1VALreLTd+Gp/ApsoAxfoDuIgs/oaEafSyDongeQ+0Yj9uw4Bl3xNUjFViHXVA0kauFEK+HEa8XXQn+LF9dwilfASyj/CjUHEUoKHIVTF/7ul2iFEkwCixqWlFp4NCVj9RiNr8G+xvUYvfAvgB9/SjnhMSYmDeObqGUZmPD6WRRjVKxRqY3F1J9/HLNCximq4FTGPHFgjtTZyNPAg5ei+8I/w2jrJuSSDdrE0wAScLNeNIiCdRKvBDUuFgG41Inezv+sfqNJbScr4CRUoTltR5RmS0COx2rRFjsE/V95D/DUNwCnC7YzjrxHULnIOa4MR5TKUhWmzWcdlGvu07/x8MNKqIEDDFiF3rRiYDEOlEYUwyQtJsNjEOOT38bwl94hjvBRmn1b1yMfqRE40ZwTTckIl5g6ClrKzFHmCsFkQDXVko56cdYXCSTXiQmZbED/5nqMtZ4A3NQEdD0AeH0ygJcxWgzGpC/LADcoZxM6EBbQ2syxRJ7li4wmVm4xWclgUDUcSQIuGGvV93u4d30a3We/BqlEA6xEvWia9Emx+CAyAJd1U9RRUX0U150BPvhSoKZKgMUJr0q4ySrR1AZiqzD0ybcCD3wOSO+C7WWR9QSt0kkgcaxUsFnkfgKmtL6/BVRbuEsZ18CyA4sNUWRNWmUBWDSaTJIWalgCLE85ll36ZjJt8H5zE/Zd+FZ0RhuQ3XoIsI3AokO4SvxPBBYFxNcIxFelvvPtz1IqsLyW1RhqrEdf46EY+cJ7gJfuArweiS/Kuhzuoop0GGq5U2MJKYilSZ2qNy3L8mVqYCldlUOUhoGeR5H+/vnoOPNVGI3Xw042LBmwDKwILJrjI4lV6Proich99wxg8GkZdp5zOfyH0faqc1WaRcErUPD9mZsvY+ELL33+NbD8wNLXrIR4IrBo0MgAFnZz+1oKzcYUMPYSrAe/ivZzTkI/gZVcDSexCnZTlfiiRIvSb/RiYFGLoKmyGMCi2ZmOrkLfqYeg55NvB579H8DrleEtHGoi5iwDN30w84a16bsEwGL9FQNr9I6PovOMVypgNdcJPFhHxRoWe0bFP1VkMos2NUcNy2ha1K6MhqW0rSqMxlehZ8cJGLx+M9D1iAwFYqYIppghjzhGNAgsrlMGth47qVboFhQuVkINLD+wdKNTg3MDwBLfj9Gy1CtWmVAM1x4Ehp9C5q7PoOujr0UqsRr5eD2cSC3cLdqsSSgti34qCohv6hgtS/tW5qJh+fsGhFRMwojyy9iMM2rciK6P/S3w5B2A0w7Po5vbkWE6DCKV5BK+gC0dsDjUheCXFwJ7Vbt/h8Hbdihgxepg7ydgGROR9SvhIDTR4wXTMB+tQCpej77Tj0EX/VgcPeCOwPNSMmCbVcXIfK1+m0XA6W7MxJUgpuE9mho4QIBFIGnXNFuq76gOAEtMBDqOM0CuG+j6LYbu+CjaTzse2fgqFQcUY8yV7u1K0leiuuSnA9ZssKLQTee/MsBi7xrNwpGmDeg87y9hPXozkN0lcUVyT3ZOoGU0RFXx+xlY/ktADWg2mqrErPX9HgNf24qeM1+FsUSDD6zF9mEZYNF/JVoWfYmJKvFfqbCRSmQS9RjYeij2Xfz3wM67gBwj30dVPq4iYJkOC6lTM9TJfwGY5hwuD/YaWF5gCZwovFMDSw0b1nYBt2WgqDMKZPYBe+9F1/VRdLQeAztRL13pElNFYDUq35QBFrWsSWah7i30Bcs4mYuXAa3KaFqElQGWBJQm6jC6ZR26z/lz5B+5Hsi8WJgTh9ds53RCO9Oc9iOwpE7VefjRBGCKhsWQi77H0HtjswBrPFkPK6nCO/Y3sAgrxm2xKPOzCvnmBvQn12HfJ/8CeP4HaoC0Ry2LXSvaJNT3w1bAV1rxi01Whf9WTA0cIMBiUySetEmom2UBWFyv81rRf5VtA168G3sv/zD6TztOwhc8moKEFeOJWOgzEce60rL2C7BkiA9NnWqMbl6N3nP/DM4j1wE5pWG5jNq2MwFgUfr4p4Flvuq1811oWRZzSR1z4nH5uzj9BVtMydoPdD+Crmsj4jvisCOGfJjIdd+HxXg0mtGEt/FjzQby4t/1dzEH+XKghqWBpeBYJQ7/wfhqdH3ybcDOHwLpNgkgpTlN819cfPomTWiIcmoVXAfzrbNw+/KugQMWWOaNKpqBxBAxWx5zjVPD2gumLum/IYKh04+DxWBRDgmJVCpo0V/CbvoWQssAS8dQaR8WhXEuJqHRqoqXomVRmOkji1ZivGmdAMt79AYVnMkeOeYmJ7AYN0aT1h8LOREsC21C8waWPQS0/xK9N8TRs/14pDnMhjFrCaX1+FCnVmkAVCKwCsdRfkSeg4U9ufl4HQis7k+8TaX0sbpU/iwJXtGdqLqzIgTWQlvJwbXfAQ8sE9ogGhanyTIa1r4HMHxrC4Z2vGwisKhd6XF/TrOClTIJ1ZARNQxHaWCLAiz2NnKAb+Na9F3wNuD3X5sBWApaS6lhMSUxewnlnATWvl+g/4Yoercfd0AAayixDr3//TfACz9Sg7KZ8I9JrgMaFsFcAJb+ZGh9cMljeDez1MABDywGPipTkSkxmYxuDMh3Aj2/QeY7Z2H4oy9HjmPfzKBbPbyEpkgQWBKhLsGjOjJ7sTSseAWkx6tpLQY+9pfAE7cC9l7AGSloWHLdhFURsBYzrEHMzImamxJ0DiLWUfXWINBWAFY2uvQaltFUObSHPbvDzRsw9Pl3Ai/+VGVu4PAhZnn3nMLg8RBYs4jxyvl5eYEl9azf/uYdqt+cxiQksFQOJzpk6Ltgsr5eYOAxWD/6GIbPfTVycTVwWZmF1J6qpCtdxVopLUsNqanUA50XScOi851ZCyJV4nQf+tTfAU/dAdhtkueJoHVoxkrm0aUAVqGr3yggJqRBJnUgsPY+hP7rIuL7y3Kwd4LBtUtnEk4C1tbDMHopwxruBZwBMfnpdJeRDmwavBE9pImvLl/XMjco68J/K6UGlh9Y0iAn9xISWFIMsNh2OXUU/UGc8GDoSdh3X4S+81+DMT0ol29tyXWVIMDUMBAjkMXAkq72WYblKKdzIIYr0GNoegqdaAVy0RoMbVmPkYveCTz3HcDaq8DKSCwBlkr1S4WKRctgIaPmAlubkVl1vIB2pc/B9ROAle8D9j6A/uua0LftaCw3sBiOMkLT9OoPAm2/BNwhCQfhLEUy0qEIWGwPPrAWWGfhbuVdAwcMsIoDRylsbKD0wIiGxc8yUUJeEuUx57h97+fRfe5rMNqsksnRkStals7XJBHVWoOYCljM0zSrHysAKaMdcGmARTDmYnUY3LIBI599F7DzTsBqE2BJSIFjyfXzfpYdWEwjvfcBDBhgRRjIuXwaFoE1tOMVyHEMZufvtFaalsytUl8GWHrgewis8obNYlz98gNL34XfG8iWqjUENlCuF/OAjZaRDcQYewpTO2Hf/xXsO/fVGGquQVani3HZUxirlp47N6l9NHGmPNHZGnQPGGFVKrAIK4YEZBkA2bgBqc+/G3jxh2rmHZnSlRMpEFhq+iqaNPtVwwqES+hqlHkApQ4ZNkJgtT0owOrfdhQyTdRClwdYfLFk42sweMarkf96i0oxQ/8ksrAkiZ8yoZU6SvSrtuCHvyxG6w+PUXY1cMAAqzi+ptBAlQ+Lgk6BVz1eY0B6N5wHvoq2s1+NwQSBVS/xWAQWTUOGGihgKYHcX8BiDBY1hf4thyD1hf8LvPQTIN8hgkftkENjKG68H4EVP+g/f5IFs2KeS1VHxsSkSVgwC81v7CVULwPSfgBoo4a1BX1bj1x2YGUSa9B/5onIffM0oOcJbUbnJgMr8AKbYBIG6nKeVRduXqY1sOzAMoLlA0tXpFpf8G3xO3NLSZgD58xL74b74OXoOvf1MqlELsk0vXUqER1NNj1ujZkvmR3AN+ckDkuZgnPSsPx4pIm+LGMSEoTMc97buA5DX3w3sOtuNSmFx3moJwKLmpZRsXg/BFgpf6qOgsBS2qnSUAkqlVrGP01+ANh7D3qv/RB6tx6FbKRaIG+c7tQY/XrifZvkfFxv6sEsi01ls366pWi2hefAl8p4Yh36z349nO99FBh+RgMrKyYhZ8+hC0CrVuIe4AvLh6/+qZT6C/ctvxpYVmBNEjjRofw2SpH2naw0D2VSAs8BnBQwvkcD640YiXHWlgYgHgCWHtzM0AYO0fEFsWjw8yRBnEngAkLqAytajVykFj1NBlg/A/K9MqkCJ1NgpLkyaKj90JwV6oocql6vhTeaSfXHFUbIxd3Oiebpdtd/BFbbT9F73X8JsDKRmmUF1lh8LfrPeQOs750DDDO3OydZLQIW7yfQS2iAZe5d31m4WCE1EAJrOkAVrw/AKuh0py/GAGv4kv8L7JoMLAWMEFj+S0M6LapAYPWd90Y4nDJt5HkBlkdgeVk9KkADeApgiXz6JF4h0hreJsoGWNRGijUs76Er0HXuMmtYdB431aC3aQNGvvQeBSxmHXDG/OmqpgMW76eUP+5uiqhW/HIga1ga+tRO6WsUDev8k+D84Hxg9EUfWI4EjnJKt8L9UMMuNglLqbtw3/KsgfIAlkfD5sAH1uiX3wvs/rmkSeEU8GZ+PcqdAspEk3BZgLX3p+i7dplMwimANXDBm+H96EJgjAPGOcVXXhL4scYEWJrIBBaL73TX62VV+G/F1EAIrGLTb7rvM5iE2aY69EU2YuzSf1ER27keEFgMx6APazpgLYUPS0YKmOYsTvcCsKgZMmPqkjndi4DFCTwGL3wL8KNPAOMKWJy6nhlH+VfsdA+BZR7kyl2GwJoOUMXrZwBWLlKP/ugmjF/2r8De+3wNywBreqe7QtlCm59RMgpALJhQ1EQ4HGc6YPWxl/BAANYFJ/vAMv4rAyzHKYTsT9SwmCJZh3AstPLC/cqyBsoXWOm9OCB8WNFaEFgDsUOR/ur7gbb7fWDRDDRxWFOZhIH+uwU1ntmAxSBLNXhcO7sCGtaBBCzvJ58ExnZLplE63C0oDWtOwCqN+Quq93Cn5auBsgKWOF0ZGmCPAum9wK+uRvd5J0lYA0f+M6xBIt05QSrzYHHiVKZ/obZkNKQFhjXQUewfI2DaIFaH9JYaDMYPU8Daez9g94tJaHxY1LBkeJEJa5gQCLnwhz8XYDEWjDFNPLWkSN71E/Rf/QEMbj0aeebAT9RJgK3JU+Xfo9EwFzkfFo/PumRq6eHoKgxecDIMsKhhUStk9JjErLFq9E1Oq2GFwFp4AyrDPUNgGcGcZTl/YI37TvcCsCzIVDAhsARYI7HVGDj/rcokHHtJ53K3ZE5HgWyAyNMCqwyFLrzkhddACKxZQGUCS+cErMv+DfA1rCJgcSwf08xw7qoQWD6w+s9/kwJW6kWdy51mbF5phdMCK0yRvHCRL+89Q2CVBCwONaFJyFS/hyMdAmvyEB5Tv8Yk1yYhTffR6GoQWBLWMFoAlgsrBFZ5c2W/XX0ILCNQsyyn1rBKAZZ4l0p6sAEFRMd5TewlpNPd+LAkkC03COz6CQau/gCGWo+G3bR8PiwDrIEL/gT48ceA1EsynInZRl3kCz4sHQhLkzAMHC2puRwUO4fAmgVUM5uEIbAmOemnq8+AhsV9CKxUbA0EWD8isHZOD6xwaM5BAZvFuIkQWNMJWNH6ctWw2DvJTK0HkoYVBNbgeScBP7wQGH3BBxaj3SWHGFXIcPDzYsj5QXOMZQUWaxs9o+8AACAASURBVNGYNaplqtjvSes8S5IcTA5ruEaHNTTAiqmwBqYsRjMn7VRhDUyZImlTDIB0N/2cUyTr/aYFVrwO41vqMBQ7TPmw9piwhnEVtKmn9mJ3veRV10533q/KPLDwtmTqiUsV5zXZJCSw2OO26MBivQS1JlO/0y3NtpzzMKBhDZ77RuAHHPz8rIy/pEnIsYRT9RJOMAl1x8XCay/csxxrYNmBVag0vkpVKCX9FQUhZDO1YTs6a6etZ85J7wF+fS26L3gLOMTD5jT1sWpYzOXerPK5S453zqbDySKYbiaYEtkXoClyPU0ndBOElBM3qJKO1mOwaSMyX+bQnPtlkgzHGYftKuexukcXrvR+6R4uUR20+lCohHl9mhlYBKItWJS6Y6VO5cNK1ki+sHnHYc1UR1P9Zuo7Vi0JFr1oDdKxtRg59w1wv3sWMPysmt6LGUepYXHsqF1ISDgxrEG92HQjmVedhRuXdw0cOMDS09WzoU4CljcTsE4WYLlRAqsSec743BIAVlON5HknrGyCzEDLF6DApKFTCVrxOn8/BSuOw0vHahWwLnmfDyzXTU8Glu79Uk2GsNp/wKL2RmDxFeADKz+F032ZgTV8zuvhEVhDz0wAFtsAr1tBiV0HJtuseoGVt9iFV7/QGgiBRQAVQ2mm7zMAK/1FZmu4TzQsAovDYsQck6fDRH6BCO79rGGVC7BGznkd8O0dMwPLn4RCaeHKvl1okw/3K+caCIFVIrA4CQU1rIHG9RBg7bpXgOV5yocVAkub3EHQR6vgm4TnvA7et04HBp+epGGxr0A0rBBY5cyYRb32EFglA6sCmXidAGvsC/8HeEllHDXA4gBeNdnEFBqWDPBb+POcyYdVLhrW8NmvhXvHdmDgKR9YeS8nnJoxvczCqy3cs4xrIATWogBLaVhqmq97VE53KJPQtjlNGVtICCzVqzjR6U5gObefBvQ/KcBiL6EBlrg1NZWndLqXseCFl76wGgiBtQjAytHpvmU9xj/HeQnvUTNTB4BFTUHCCyTdi5qUgnFGBXNxYQ/voNCwznoN7Ntbgb4nAIyzKxO2qzSsEFgLaxcH814hsEoEFmO8DLDGPvtPwM67fWCxb8uyGAelgEUnvJlFh7ByHOoNC/8re2DFV2P4rFfD/kaLApY3EVjGf8VlqGEtvJ0cTHuWN7B+cx16P/ZnEtbgRGqBeJXkv3Ja939YA2O83BhLBbLRGgw3bUDqM+8CXvgp4AyAPiwCa6IPS6VMVhOqrhANK1EJz8x3yKDReI3EYbmRaqTjqzF4xiuRuzUB9P0BcNXMz8zWEHS4h8A6mJBT2r2EwFqghkVgKWhpYEXWF4DFBH5FwKITXADGeQoZXrRSTMI5ASsG9D8RAqs0WV4Re4fAWgRg5ahhRdZj9OJ/BJ6/S2UcnQJYNjWuEFgTNawzXw7rFg0sLyUz56gRAYWQhlDDWhEsmtNNhsAqCVgV4JCWXLQKQ03rMHrxP0wAFrUqYxLycwisiSZhJrYaw2e8HNatEaD3ccAZBbysGsJEpxWddDoWK/RhzUmeD/qNQmAtErCGGycCC+64DG4uAIvx2Q4sj+BSM9aLn6aEJlYWTvcZTEICa2jHCcjf0jQrsMy9qih3PZawhLoLdy3PGgiBtYjAGrnoncCzPxGT0ADLtVXgKAVOAUuJHP1YIbAUsKyvEViPKQ3LzUypYYXAKk/ALPZVh8DaH8Cy+iS3kzjaQ2BN20uoNKyXIQTWYov1wXu8gwBYKluDCmuomSKsoQqIMMyhAnZyimwNMw10nuo3Ak7ykrOXUOWEEqd74xqMXvR24LkfAHYv4GbEBTPRJPTEJJRMWB5nNl7EbA1GBeFS3D+F9DK8BlHnAull1DRfTC2zn9PLzNMk9LyMHjQ+0elubk/rpyb/0MErmeGdTVkD5QEs5pXSMifz+9E5m9kr+bB6L3gTUrFV8CL1QLRWp5epFEAJUJoqJgIroXJjYbr59qaCFNdpUE1axmuQbeQA6LUY+vRfAc9/G7A64DqF8XAEk0BKvFp6jkKJbZjymcx5pRJiHln/+R/4PZCGhettG8j1AXvuwcA1HwInUs3HzDT1TJVTOaHMKYNFsE6mqzez3mwbSOCXjq7CyJmvgvP1ZqDvcUACRy3k3LzKRc87UzcZSC/DKFzXd8abWw+XK6MGyhtYv7kGAqx4fQFYsUrYzVUKWIRSxACrEnZSgyxBAOliBGq2pRG4Scs65LdUqSDIT/8Z8PwdgLUPru3IGEJqN5xQVVL+UmlgymKZUJX9XjpB3QLbmpLlqYAVSMOiBR5OHsj1CrD6rjkFvVuPkgh9J16rExHOE1jF9TDX+gsAazy2CoNnvBrWba1A7+/10BxbgEV/n2TB8oHFb9JdMaH3cIFVF+5WpjUQAms2QTO/Fwuo/70IWM/dLsCiCUaLb9mBxYZJoSew8n3A3nvRe+0p6N52FDLxWiw3sAbOOBF5Aks0rDFJI51nSmyJWSvMP0h/IBMS+pA3IC5TwQsve2E1EALLAGm2pQ8o5cPyTUOaoVrDGvjUnwLPflMDi8n7APYSBjUsCpxoWNSySkwvo1g0s4bFTBGSLcK11BhHAdap6N52zIEBrLNeg9w3ma2Bg5/HJMlh3nXEeGa9mTisKYG1sDYf7lXGNRACazZQmd/nAKz+T54MPHNbEbAc6aYXUIn0qWE5AqtFA5Z23lPrCDjcpZfSB5YD5PtlZuq+6zZrYNUtq4ZF32P/2a9F/o7TgYE/AJ5KyVMAlvZVieVcpGGVsdCFl77wGgiBZYA023IGYFmNaiDvwMffqoG1F3BsmZVefFluXkwZAoR/9GctOrA0rOT4ARe/GrfIkzqANQDsewC91zWi+7SXSeLB5TQJCayBc14H6ztnAENPTgAW74N1J1WmXX2+SSj3F3YUSmNaYf9CYM0GKvP7dMCK1GAisG4BrAKwHMuGFwCWcb2IE15l9iupySlTaaLznuuUy9qVaAZlEnqANTQRWLGGZdewBs9/A6zvnwWMMOPomIQ0UMPinwAr0DcRAqukpnJQ7BwCywBptuW0wKrygdX/sbcAzxhg5UXDmglYpcZhsQUqrc1XQaRRKmDpfjb+REpS1dLA6rt+i9KwDgBgDV3wBrjfPxMYJbBUHnxbgOWCdSfxDNriNb2ECtLqp4NCCsObmHMNlAewHJUfiUNZVEhASsVhBcIa3KY6icOy4lVwWqrhJivhMrBzP4c1MMWMFaVJ2IChT74VeOpmwG2XXjnKnSPzKFq+SUh2SMYGl873gB0350dWvCGleTpgEVoqZtSjA1tMwvvQf/0W9J52PHKxOtixGsnrNe84rGKAzxP4aqr6VRi5gBOpUsNiiuSU6iW0OZ+jrWas1hoW71oBixOXqY4GpYcV10d5fV8sTbu87nrhV1sewHItMW3mAqx8rHJJgSWTt0arMRatw8DH3ww8eRPgtAFOTnHEysNzcz6wKGr7BVjkluZfQcPivIRKuRIflj0ItD+AgRs2o2/bschGZw5rkMR704GoRGAR9IzDSl3weuDOHcAwne4EVh6Ww6nqnUkmoQGW6sDwb3fhrT/cs+xqoGyANVWku/frq9Fz/p8gVRQ4Sg2LQ3FE4PazhoVELfKRKow21aD/Y28C/nAdYO8FrKxIlFcELJnYlDoCh+YshoKlHfmymAJYhKP8mcDR9vswcN2p6G09EhxSNJ3TnXW3KMBK6HkfDeB04CiBRa109NwTge9uBYYZ6T4icFdhII4yCTWIeWsHJ7C0hmx6F+a9LDvmlHTBByWwljTSPV7jA6vvwj+B98S1gLXLBxbsnNawlClDM4afKIAL4ZUxIcxSdaMpq9AcMKhhmSgtjwBNdwB7f4ah607BQOuRYsp6cTWD9VQm4aIBi9AisCRFcpU/FjMTa8DoR0+A+80IMPgI4A3JGEwm8GMtSRyWrigxbUVf1MGjutmbejDLkqRhWXaeGVjiApkGYuq3ZbnoZTvpwQWsWB1oEk4CVlTleN8fQ3OMDysVqUbPBa+H99jVQP4lAZaEWdk5wNFJ6URHYF+X7u/yiTVzoxUTSA/pYSMNlmJg0S2m+gg5Hk+ZVrKNTWDtA3bfhaFrP4ihrUfAiVbqvPRVE8cRJphoT0+AOt3SaExmOd12M2hYnM9xePtRyFz3AaD7l4DXDzhjcL2cunYKagBY2sAt+OwIfU+NzQzWiRLk2etU1d38twuea6HHmGm/4PFnuhf127KxY1lOfNAAC9EGYBmARecxzaqxaA06zjkR2YcvBbI7ATstUe40DT07A8fl9FUW2GWvioe82ISzC0xxA+Z3ah+igcjbV+wlkQEDLAc5sCgtxQK8HJDtAJ79Pnovez+Gtx4Gm1ksfGip7KnUtEBgETQGNlPByIDKLKfaJrjObKeXrDf60AZaNqH/kncDuznbUBdgjwiwbC8rWJdxzuzgZPJDWIVRAlJtahQB73GqOpoJCua3qfYLrptuO1P/wW2n+mz2n8tyqv3NuuL9C+uXhRvLdtKyB1b3eSeJDysILEsPchYtgT2F+1nDQnODAOul7S/D0H0XA6lnBFiiYdF35GSLgEVYATlHDdPxKIjTFGVATvxdcp57eZXoTsDlSnIGnk+GA0kUltKwZFt2ABBYqV2wHr4eL336nRhKbpT0OGrmnyqZ/ceYhT6wgsAp/lwEoNk0MpOKh6YhPxtg9cbXo+3jfw33j99WGqAzCg9Z5J0xWOA96oiMYmBJ76EGlq6L4jqcqu6Kt5nP9wn1bup/luWsxy/SmA0IzbIApokvtsL6ZWPHspz4wAGWaAo0llR8jbKWaBJwAGxRehlbp5f51TUwwPJiWsOKMu9VJTxmZKCQ6awMToKZGorWE2bFgjjd92IB5fe4dky31mMsUo2diSMxfOf5wMCjgD2stAH6YkAzjsLFoSZKyCzYMsOx+m2imWcaI5d8swa/87NpzFwybEJCJxgVbnkSCqBMQuok6tyOnQGcEaDnCYz88L/x7Jlvxkh0rfiUCA/lx5pntobp6qlovXHey3l4Ll0ILDr9ByNrsOesk+A9fA0wTNAPyGSqOSsNy4wWcKlh5WFRY+Q09gzEZZexDDDnXI+qqPv2Q2bVeMRCCG0wnNb/XFy3032fUOeOBUeX4PqpPk8+Hk3YQqGPkUW1D1u9hLwcqGFyQll1T5QGAyzlw1PHWBZmLOtJlx1YCkysAz4QPgzfbeGv41uKv9CEkngiJwWk9wK/uApd574RI7EG2PHVQHwV0GScuyrvlQ8qmjo+dOaZWqZICCdArrkCbnMF0k216Ewcg6ErPwI8dyfgtCPjjDAUElneCdnD6AaJzcghjyGkMQwbCsash+kKtQzuxuWEbWj/Eej0T4mvLC9LagIUW2bkIrLs3DDg9AB77kPPVafixdixyG+pFpg7kQpYMVXsuPL1GbAT+qZMuGfWxwLS8yhYMfEhHe/VcBMNkkesc9sJ6Lk+ArTdK9dpZ0bAsLE864sPXiacpYnIwdHjcN20WqfrQzbRLzrlnFcvPX7mb8HCiDgW5dZX9WmgMdWS9R1cP6n+gw1WNtYqoeGLWZodzXcu+VzNC5r3Itoyo/1HkUcKOWT9axfBkG+Wyryh91frV87/AxpYfPewuU0Clj0RWMPxBlgJAqtBASumnMYqy6jKgyW+GQIrasA1D+1qBmB5yQp4LRT4enQ3HY7eT/0D8LvrAWcnslYnhpGTCdglRpQCaLGVEihjyGNcUCyKF4EkgbEqMt2sE5+U/q34d0ldw7xblG4JX1DaGH1kPBWNQmokcAeB0WeAX16Ngc+/G73Jw2FtqQAaKyR0wWI21gCslgpYiNchG61H/7aj0fbpv4f1sy+oMYVM0OgSWB4cSw/REcxIBaoXmQaA7TCLq69wGcVLmcYa8sasJPS5LQFGaAnoPFfi4hj+MVUhrILr+V24pLUif0yoOYm/1Jepk3LwvWLoJEYDE1HwN/2iUh/Y3qlVsW2kkEFaddC4jiSElCy2nD7Oy6hrN/uuHF6hrIDFxqYCIGcBFqEkAqjMQzERjYa1yMBCsgIuzc/m1RiIHIpd294I63vnAMMPA2jDmDcEzp/D9iqNVksK/Vc5bfKJdPLzVIWSa9YLwNmoVaFZwDd02gPGPGDUA0Z0GjyKtojkeC+QbQOe+yGGro2g7Yw3oDe+Fnmaw4RtoqBVGW10/wJLmYVKw6qD1bIK3bF1eDJ6NAauPhV46SdAaifcdI+YtLwPFtYf/X62pZKnymdqJWwTUkesp0ChVsZiyG+WwW0E6MoXOJWviZpq8Xp1Jbya2UrhOcn1+SAzGphaehx+lGeRngUx6Tnzdc7NIk9TnuehD5JWhYwEGEUOKaSRQ4Y5w1YQrHirZQ0s76ErxSScoGE10sm+hMBKVMBlGuZ4PbKxTdjddAza//ufgN9cCWSfAJy98DAib0jmxjLMMaYJ/S/GMc6eRMdWDnqmWDbfbYZFOPTfMGpeCRH9etyXYkOBHpfmDIwSYCLCDpDtB1IvAbvvhfed87D7o3+KPbFNGEnUw2quAFqUZlWsXe0vYBmHO01DAVayBtlYFbKnbcC+yCa8ePpJyN9xJrDzh8DY0wD6kfFGkdYuAYGT1kJzHpBRbizl06K6wpxfDgVcmcYSvMuhUTSXrZxa8nOg2FYatpOR4rise1WC68xnLs3vxUv1fJR/zTwns+RzdI3PSy+pFYsvjjFnBFKeJCbkfEVMvFvg9VsZgFYFB4djTHT2DLLIQJn+K4lZ5Qus8T0IAisfXwUvVi9mzpIBy/hxCKymaqBxDYY/sgF7Y6/A0GX/DjxyBTD0MJB9Hsh3APkB6T1kA057eVCxFx+TnmRVucnZfU93uXKZi3NetiusN79zC8vlpA158ckQXGOuI8IHZxhI7wF2/Qz4zrnoPO8v0R4/AkOJNbC2NsBuqUC6yH9FcJmewml9V8Y8Nvduvs+21P5D43QXf6KET1QB29YgGzsEnR/ZiM6zTkb+tm3AM98Esn8EnH3wMAy4OVAbcXOOaFmc4mPcY6SZmqBW+ZnouSvEZdEJTu2Ujm/VcaN7VgO9ivKyoB9xlsI6ZgluF/zOc/A3tVTnNB0qZskXjPmdby7q3Za4BVJwvDHYXpr9o8ho/yP3Qz4L5FgIWp6fWlVQe1tJuCojDYuq7wSTcHwP3AevkF5CaljLAiwKqZhWNUBjFfCRGjhb1mFg8wa0bzsR/Zf8M/DzTwFPfh3oehAY+SOQ2Q1k21XMEQYAh8GSg1MXl5Hfupht2Itm9aveNJmdpwtwOgGrF8h1A9luBSqmHH7hh8h9fRvazj4Ze5o2IJVch3xzAxj2YbdUIhuvENMw6HRfbGD50fJ+h4cKa/A7QLbWIb+Z9VgPJ34IerZswu5tr0XvNR/UwP8VkHkesDqBXD+QY52xJ5GF9caXwJAqzEZhDwMcM8licTmkt2Gd6cK6Mp+nW/K4pgS3MevkvDyePpfD8wSKWT9habbXS7cPQA+ALsDrALwufV9Dok1Ro4I9rjUsFbqSZ2dwkFdiEq8caJWNhkVg0fzxfVjTAMujM3mJTEJqIdRK0FKjeiBpjkbqkG9ahcHGtehIHIme896K1OXvB763A3jwC8DjNwJP3w688D/A3ruBfT8H9t0HtN+vSscDwHSF27AnzWzfeS/QcRfQ9gOg7S51vBd+BPzuJjjfPQ8DX34/dm1/NXY3rUVftBZ2KzsnKpCLVMj0Xl5zrfQQurGKCXFYAi0zu9BsmtMsv88GLEeeVwXQuhpetAajH6nGYGwjure/Ch0f/1vRtryffR548nag7R6g+0Gg/0Gg7z6g+2fAwK+Bvl8DvQ8DPb8Cun4BdDykSueDqi5N3Upd/xxov0fVezvrnuVnQBvLPWrJ9e33Ap18LqzjewvLjvuArvuBzvvVS4jn6vwF0PVLoPtXgfIQ0M3fHgiU+4CO+/Xx+Pk+YO896rnt+TGw+0fA3rvU9oOPAalngdEXgSwBywwWQNoFsjSLjQstBNbS0rpQ33xtCJL8npNgL6EPLKrDtOdnAhYHPC+B0105rKthMRiSTv14FVzCIFYFK16HkcZadG5uQHvzEWg7/ZVoO/tN6PjU/0LP5/8JfZe8D4OX/hsGrvqwOJsHr9mMoWu3YPi6Rr/wu1nPJQsd01yOXN+E1E1bMHrLKch8fTPyt0Uwft0p6P3ie0XQ9515EnbFj0B3Yi1Gm+uQa64WWBFOSNYCiVXgXI5TxWDtF2AFxhH62pWuN0diwSol8h6t9cDW9RjevAp9TYehLf5ydJz7F+i55L3ouuoD6L7xVAx+M4rM95qR/5/TkP726Ri7YztGvrEVQ7cmMXRzHAM3RjFwQ6OU/ms3g7MEyUxBV39YNDdqbz3XfFA+91z1IfRe+UH0XPFf6L78A7Lk976rPoSBa05B/9Uf9gu/D113Koav3yxl8PrNGLohKmXkpjhGb04ESgwjN/G3JgzdsAXcloUDz821dF99Crqv2oy+K0/B4OX/jsEr/h96r/kA+m+LY/iHF2Dsvi8Dz98JdDwCjHWKn4tWBkMyVI8jybW08rrcZysLDYsgI8qKTUL6sDrPeQNGk6sLJmGkSjQsvtn3e1gDhT9arQqFjxpXokLAQE0mn6iSiR6YTWIkvg4D8XXoT2zCQPJwjDQfieHWo9GfPAp9zar0txwNUwZajwGL+T7Vsqf1aLRvOwJt245A59ajZequ/pYjMNC8EYPxtRiO1iLFa+B1sTczWalgFa8DIg1QowMmzknow2QWzWlSXNZctw+ahnEGj1YgHa9AOlmBbItJDVQDNNXCObUWuS1rkYpuQl/zEejYdiz2nn482nacgM4dx6NnxwnoO/NV6D3jleg9/RXo2f5ydG89Hl2tx6Kn9Vh0txyDnuajCqXlCPT45XA55mDyaAwnZi4jyWNQXEabjwXLSPJ4DDWzHDdNOQZDzbq0HIWhQBlsOQ69iePQnzgOI8lNGG3ZgMFth6H79OOw68wT8fTZb8HeS96D/jvOAp79MTBIX+iYChSmTFgZHVS8cqgVAmuugjbVdgQWA1UjjO9SIQJWsgL5ZAW4JLykxy1eLYnymCzPjqmJHxiDhEQ97KYaWMxLFanzl9zGjdarbQPri7fLR+swHqvHWKIBmUQ9csl62IlqifSnqWrpwusgTGXITZzma4MCFqEVW15g8XqzySqMM/i2pRL5liq4ySqAHRn0bW2pBJpUvfEex5KrMJZcg2xiPXJS1iIbXyUvLPox89EGsF6sKJMT1ks9ulHWJ0tNYMnPNWLCg8kfm+oxp2VjHdBYC8iSnxsCxXznMlCaagXAhLAq1bJk0kmPIw44DpZWAYcsRSuk53QwvhqdiU14MXkknjvjDdj9lf/E6E+/AnQ8qkxEb1yygNCJz/CWlfIXAmsqEM11HR3u0kOoM5vSDA3ASvxbYgrVAAKKagUN0XQYu1UFmkMsHKpCc41R4HNdyraRariRahU9zusmmJI8tipuvAIsSnOiNlgrDm46ueVzjBHvJpg2sJxrHZS6XZK5yypFGyW48i01cJKsL2rKul5Zx/wsw3qq4DbVgsLOQrPW0XXAepDeWmrZpogGrAOG5Rjq5SLHM+MaxYen6l2NrVRmvfLtFdarZ1WpnxmXOtuFgFBlbhUoxrhPsCgfoTqeeh7ms3Il6CBm0djVPTtNVchFapGO1qOnaQ1eih6B3s++G7jvcqD3cSDfC48O+RBYS8vqwrtheh/WgW0SamFiY2NYALUqml/8LAKiTUbfdNSNU2/L7YuLAEdDrfi34Hcxy2LUEniOwHAjAks0KiMIFFIDKwKLRV/XVLDiulJBNJf9pc4ITDVUh/40O1ErwBIti3UQEGKT7hpN1MBo1tYBvH/JKsFj8FloIE26r8BwIv2seI98TnyxzLXQzTB1UbOKE75T/673S6r2wTbCYp6neub6eUm7IbD5bKtEExw8tUqGfvV94V+B398uPlym4mG4RqhhLSGzyhlYbGwMwMwxADPQABVItFZDMERqA4WgqJQhMRQW03AFcnpcIscmzqVABJomnu6lJASpLTCY1WhWFGbRomqBGK9Day4UWikBrSoo5HMBTqnb8Pw0hahB0awW05paaI2YtaxbGTZE+PJc/vVWS8wd0/ogWa20SUmHQ1AzLU7hpaD2MfsG1utrN8CY69IHC18KfDGZZ8U5BPjZLM36WZZsNyy8Vy6lV5XPSJudHsNlErWioQ82rsLz8ROQ+/Z5auJZLxUCawlZJacqZ2DxTZptUYWNrSBURusymg21CE6SoTUCagEUvoBGFgTXXD+LkOkhR2zowSLXIkKugEXtRYGrcO7C9U4BrVJhNJf9DbB0GmsFLHUtYiZSmOmIb9Y+uMD9OAmaktVKMwoAWjTbILCKrmM6MJlnMZelnIMvhhm05OnOE1zP9sNhY1ayGjnCmXDjMekWoLnb1CBDvmheooVgbsC+xg3oveT98J76gYol48iH0Ie1dNgqZ2Cx8aksptoM8bUF9UZXv9MBrwZgUwh9SBhBEvVfA26enwkoOtTFqS7aR+A4oq0UYGVMFV7TZA1kmYCltUC5JoHRRE1I1otpHKg33qeuJ94/BdzhkuEk4uPSWopoizwe780sJ6bQEf8RfzcgnMuS59DXIC8I/V0i+MUHqV8cs63X2xJGdrxKYEVgKVO+UjJZ2Mk1kuttaEsFPLatWAVGo2vRfvafInX3V4HMPsBJh8BaOlwFw0gm+7DUwDsVITchrIEDQfXQnEJYQ70amkN1ms7U2cIaDDBKXPqN3sBKzBvVuChw7DHMmp5D01sngqE1MgofhUa0rnkuAyalD0IeTzQWdSzjxBe/ivaZHCjAYv0Yf4+BlsDAwFebuAYQBlS+v47biQmonvmkzgMT+xVcmuFACe3YF6BNAWyz3rxEzPfg0nQMmG3muTRjKtmGqKFTs5bnSJ9arAZZ9vxuDoa9ZQAAIABJREFUW49cS4Nqz1sqkI+twe7k8ei/5XSg7wmJSWRPoZKVpZTc5TnXAdFLqLSsuQFLHo4PrCvQec7rMBqvRz5eB8/4aBjAyYcu/gGVuE/MIXE0q8ZJATFCYhpJSUv91p0gTMbkCzjWJ52D+wUBNs/vk+6D+08oSoOYtF2JoJ50Hws83oKvy9TTAs8rcFvovou4X/H903T3zV0JUeGwszqgdQ2yp1YgE1stcWZD13xYRejnObRHpwARcCmQGCuRsqUCsClfLOX9t6zAUpVptKwSgMWptggszgDD5HBxqtkzAUvBKvhGWywBDI9T0BLCupi5LgysuDQvGXYk2Il6fxA64cWJetGyFtnGaok562k5HEOXvQd47nYgu6+QgMcjuNRfCCxTE4u4DIE1c4MOBf7grp/pgcUhU8rfRv8W570ER3NEakG/Vl/z4ej63DuA31yjMu+ajGEhsBaRTlMcKgTWwS2QIXBnfr7TAUtNbquHetFaYNxZrEGCZN3kavQ3H4p9n/pr2PddIhOLwGMSbjX3gRGzUMMyNbGIyxBYMzfoUOAP7vqZClj0wwqwtN9TQjciDHWogRepk97DwZZN2PvxP0fm7ouB0Z0y+exUwGK4g5Ix478KfVgl4SsE1sEtkCFwZ36+cwOWGv4jAb+xWuk9HG7egLaPnYzcPZ8BRl6A0bAkG61RrbRkhsAqCVETdw6BNXODDgX+4K6fuQBrQthMrEbGLw63HIL2C06G8zMCa6fvdA+BNZEvi/4tBNbBLZAhcGd+vnMClvQgmvi8KskZNpxcj84L3grv55+dBCyZ+zIgqaGGFaiMUj/ub2A5zRzWodOVcDydH4cVhjWEMJkZJktRP1MBi/6roA9LtmHMmUS6qzkdR5oPQcf5b4H70/8Ghl/wNSzxYzHuSpuFoQ+rVEIV7R8Ca/mFZikEMzzH9M/ZQGtiHFatjADgbzLAnYGqAWAxN79oWHdfFAKriCn79WsIrOkbcijkK6NuBEoEkh6dQO1KUuyYNEVJnX6bw34kf1cVxprXo+vCk4F7Lg6BtV8JVXTwEFgrQyhD+E7/nGcDFgetM9mfDPmKF0xCalhgL2FoEhZRZT9+DYE1fUMOhXxl1M1swJJ8YDrlDLPWMqMpfVid558MOzQJ9yOdpjh0CKyVIZQhfKd/zsXAYuCobxLqCU04LlaNkdXAatmIjgv/FM7dnw01rCm4st9WhcCaviGHQr6C6kb7r+jHMsBSmUZUvjWOJ5R89RI4WofR1k3o/sTbgPu+GAJrv9FpmgMbaBVyX6kN1XqTwcGG66lpviS9jGvyYc2cXmb6sAY1Tst/uy1iupAQNPMEjRFWnYqHz8R/LsHcU3Q4c0Awe84CTuqS61sfVxzaesCxGXg87bHNNXO5GG3HHI9J/ySvPWc+UtlGOCGHAhbTIqlI95Fth6Pn038NPHQZMPJiIb2MTh9TCGtQmVDC9DLTwKe01RpOmmDFwGJoieMSaw6ggYUHr0TXuW/U8xJySidO16TzXTELpc70yaygfsSwSZS3GA0tPEZpAktBZXc9e8B0OiA/t7mkftYTZ8TUhK8UXJpHAgkj5Oa7WRZBRLKCBtYZIDJfmqQjlrF7TP6o4p9MLiouDSB9SPIc5rzBpTn3ApbSLgPH5XeVHVYt3YSeFo7wTlYjH6vGYOuh6L7o74FHbgQy7T6wVCI//cKnAE34M+MJJ6wsuy/Lmg9Lasuv2MnAcuSNoTKOElicqnt6YK0qAMtM8jATsAKNeFHekgtorCv+vHwGGliEAmHFCT24FEhQSCXYt1YBRfK4ay2L+0pXf5GWMxVIjFamJ44waYhlKjE9QYfkUgskzyM0lgZYZpo1BUPet39uXo8OJJWEg4kq5OKVMtlqz8XvAB69OQAsVyZVNQQqGlKok/dRxsr7LwRWCJrStKRS60+/OGgCEVYyAxFzm/O4BJKZUSdmNA+l+YgAC+zMCIbAkvmjTBHgceaiwDp+NqMeeA4DPn0t5kVCeASLWT9Byyrx/glKuRcN2qmAxXTJxcDq/cw7gce+FgJryfkbaljLC4wSBc4X4oUeR/upCCxqVlaLzm1OASZIjMkYABbNNT/lNc3FmMrnL8tInaRhYSoWSccik67WwmusmVDUDMycWmx2YDEz7ZTgWug9B/abK7Ak/3tAwwqBteSk0icMgbVygWVMPs7bSOd30OHuw0pPphGvhMXsm4GZilw6pBP1sBINUvLxelgxU1bBiq2CHW+QdZy2vrjIPI1GwyrSspSmoybJIEzNZBmLDa+FAqvvs/8A/P6WUMNacm6FwFrZwPInUC1yaPsgUY53+nKseA3ynGRVz0lITYu5/LOJQuF3KwAxJ9kgUCPYnLgqRiMDJ3cQDU+fW2s+xiyjL4kdNoVSmPh2AlwDGtN8Nc65AIv3XmwShsBaclKFGtZ8G/dBtb0BRZFmI/co5qByuItZF1kFJ7YWTmId3Pg6eNHV8CL1YvI50UpYsQop7EE0PWzS+8YpvbTJWVhqE1DOS8e6nqVGO7eNk5tQ9EvS+M8mmoaEVqnPZDZgTeglDJiEIbBCYJXc+EptvCtqf4JkOs1EHNAMT6lGPlKjTLvEOjjJ9XCaCa41yrxrUvmh7KieTDUQy6XmK+Q5dJHzcUYlrU0ZYElkeX2RFlYc4jCxx9BoV0sBLC9JrXCyhiU+rNAkXAZqhSbh9II7nUCX4/pJmo6CAAMj6ZuiliQA0FqLQKG5Ck5LNeytdUi31GIkXonRRBXSW2uQ2VaLTGsN8nTGR1UaYc6izLF2jKkSc09MvlogUqN6CdkzSBO0Ufc+xqol5TDNRQ6HYW8c9+eYPQ6F8dhD6Zum+jPrniEPQX9bCc9jNg3LaHxTOt1DYIXAmvatX0KjDI9JrUYF9AaX9EFZrWuQbm6ARbgkawGacYRERGlN+XgF0vEKjCUrMd5Si7HWegy31GKwuQaDzbUYb16NbHItMok1GIuvxlhkNUYiqzDa2CBlPLoG6egaZCOrkIusQr6pHnZTLazGGuSaapBLNmA8VotsVDnwCTpX/GoEE/1nuqcy2JvIrAk6Kr7UZxsCa37MCeOwQhDtXw1vEqh0SAK1m0QtxpKrkG5ZByexSmlCvvZD/5CaFJcTiWajtcjG1yAVXY+BxrXojaxHb/IwdDUfjo6WI9HZehQ6Wo9CZ8sx6Gg9Bh3Nx0rZlzgSXc1Hozt5JHoSR6A3eTgGWo7AQPJw9MTWYTC5DiPN65DdegicbTQ7G2BtqYC3RWtUBJUpYkYq+BI0PmxKaEP+MWaIw6KWFWpYCmwhsEpobKW+XVfE/jMAixrWaKwa2eZ6ZcIRVo2EVB0Qb8BYUy26N9ejO74J/ae/EsPnvRWpT/wtxj7zj8hc+j7krv0gcjdtRv6WJuRvi8L+Zhzu7S3w7mgFvnWaFPf2rcDtrfBuSyJ3/akYv+aDGL/qPzH0lfei5+K3o/OCN6P9zFdgT/Iw7G1ah77oGuSaFbhsXo8PK60h6qFdIbDmpxkt1tYhsEJgLZGGVdCsJOgzVq38QK0VcOm3Ihg4/pP5niL1aE9sxHPbTsC+L7wDfTdtQeZHF8J54FJ4j9wMPP0dYPdPgbafA90PAz2/BXofBfp/D/Q/AQz8Aehn0Z8HnwB6HwPafgG8dC/w4j3A0z+A+8gtsO6+CM73zkDqxlPQ/Zm3Y8+O12BP/HD0x9YrcDFGjJHxMV3MWFQZ0qOj1EtoQ6GGNT+UhcAqobGtCA2p1PrxNazJwJL626qd7QxJiNeif3MDdm45FHs/8TcY/EYr8Ow3gZ6HgPRzQGY3kN0LOD0A+lTxhgB3RA2IxxjgjQPeGOCmAXccsFKAk1K/28OAMwI4XA4AmTZg9Glg8DdA973A07fC/c4OtH38b7Azfiw6IhswGl2LPAfViyOf/jUdHc/7EpO1tNCGEFghsKRRcZT+jNka6DMoVRjD/WevwxmAxZ42Ro47HPCcqMdwdCM6ml+D3oveB++uLwNtvwIy+wB3FHBzgJUFcmnAyQAYBwRQWcDLAx6naudAeZ2VQHqfTYYCrrcAL6eKmwEcQm1MZpzxCLBcJ5DZCfT+AvjlVzHy1f/AS60noit2GFKxdRJGoTRD7dsy7ccsF9gWQmCVG7D8652crUHl8Slka2B6mWA+rInpZeaTrSGE1ZLBeiZgMZVKrAJ2cx0GouuxK/oy9H7uP4Bf3gz0Pg2M9QB2TrJ0ODbgOppHhJFnYBQElGpM8jM30cVvYoQZoeYSXpYcjNjLcgNCL9MLpNuAoSdkYHHqlmY83XyiOOvzsXVAtFb1GmoHudThMgGr57PvVENzsia9TJitofCc9+OnQqMKAMs/n14HlcDPBxZV/PE98B5S+bBGYnXgODLG37js3dHj0jj+y4wD87vTdU/PYsXRLJngL/ANfqBcnwkD4JKTKkjMlMREVSMXXYvu5uOw51PvRPberwKZPUCqFxBKMa8QC/OgETQEjuQZUsoUG9C8/gqg4wsxgxxs5AE7r7Q3ixrcMJB5Cei+D23XNOLp2PFIb1kP0DSkVshnsQhR7nw2C9WwQmDN66EvzsYGVqrNTQMsUfNtiFIvOzjKJyHAukIS+AWBJT07cwQWzZEDRaDL9jqMBjULUKcGVjXQVI+RU9fgxeZXIvX1VmDvvYA7CMclSKhRUxHylAbk0vSzCsBSDWfBjZHAyiELlzqWYwF5gssTLX4Mw7DSzyHzyyvQ9ql/QN8pG+B8pEo6CqTdMHC0RO1qvsBykyofVv9phyEE1oIf+8J3FP74ansIrLKE1izAMkJNYElQaEIFXVLDciLVcJoaMNi0EW1nnww8fBmQeQ5wBiHaj1au4BntyviqdKNZBGBZyMMV/5bW3LiwHeToH0MH0Pcg8t86DZ2x4zD24XqJqjfa+WK88OajYYXAApa1lzAE1kGg4c0RWAZWXCqzsAoMCB3bUo2B1mOQuvzfgBe+Jz2BXm4AzDY77vK/0nhEs/Kd6lP5pxb24mQGWws2HDk2ZLZ3O2/B9ujZGgCsZ4BHrsTABX+FkcihEiFPCNuJCrithR7Ohb5sQmDN77mFwJrFlFloQ1wx+80RWFNpWByOM9BYg47tLwe+/1Gg6yEg2wHHGRdzMAcwg39Rz59ax/UKZ/Nr8MVb86WZdx3wjDyfKHN5C5adAbxhwN4F7LsL41d8CAPNr0B682qJy+J8gX4q5xLaUAis4icy8/cQWCU0thUDpZnqaBZgmToK+rDU52rkkvUYal6PXWe8Grj/S8DwU4A9JCZa2lMAUXn92bunzEAuCCt6NR3YYjrO3MRn/pXHy7ouUp6DNI/GU1k2rHwWrsVwii5g6BFYd5yNru1/gtFT1wMxJgysQG4RBkCHwJr5+RT/GgJrJmEMf5u9U2I2YCVUGpkpgdW8CgNbN2LvhW8FHv0aMLYbsNOi8aTsHDKwRIuS7kCSRXNLAYu/5UoGFnuec65EdClg2Q5gWYDtwHVoFo4AY88B916GtnP+BsNNhwJRZjVlOEZoEhYDZX9/D4EVQml2KM1UR3MBlp6BRoUzsCufDvga5JpXoSO5Hh2f+9/Asz8ExrqAXAZ5V1xJgitfw9LRCEbDIqwcZOCJ8bhwMbFsF3kPYCgqj+ayt9BmEKoDj94tRs2P7wJ+dxv2fvJdGIofBbupBszBhdbSfZChhjW/Z1cewPLoFlWNWF6z9qjEYeEXhTgs5vXmoFmHOYzCsIbSIDQToIp/mw1YentCisByoozBUvFH+ZbV6Ny6ET1f+idg571APgUvZ1G5EbMv57IHjz2EnJRS24L+R2pXxAxbxsL/6NTnEQgtS2hoA04erqsc8Tl7HMh0Ac/ciZ6vfADdsSMl1bJLYC1CLFYIrPk9uxBYxQIYfp8f7OYBLAMtAyxqWD3bj0Dvpe8Ddv0SsDj8xpMJcxnW4DgWZBZjAsu8sTSwPHGRlwYsZWVqT5ie95Kw8lxG1ytgSe9hfkAGTHdf+RF0Jo9SubtMcr8SY7FCYIXACjWspYTuLMAycVgmnMFAi4KaTTZgcMfRGLz834G9vwVsS6b3VpOAugIN+aycVgpajCGVNs4+vVKBpfQrpcXpzkjPgiexWTRGeWIqcaNA24MYuDGK9pajkWNWU5N6JgSWqqMl+h9qWEsp3AfjueYBLBOLpaBVhUyiHkOnH4vUVR8A2h5V0eaOLaCi6U9/kj9kkN5x8kNrWDKYWbQsOrcW+qeAJUahNjk5VpWBpOyDJBgFmPYY0PUrDH+9GR3bjpXspJJm2ST0K+G5hhrW/J5dCKwSGpvpsl/RyzkCi5CaBKx4HUZPPw7Zaz8MdPwecLPw6LeS7AsWPMdVo3LIJBlIyjAGxS3xZYqdWBqwFPgY3q7GU9PyZP+jZqOEOcBOAX2/QeqOVnRsOxqZCHPDF2VtWGA7CoEVAis0CRcoPAsC7yzAMscMAovg4tCcTLwO42ccD/vGzUD3EwIs5k5wJQ0MxwyquCi6sFTqGKLEtwy1DTe/Bj9xa2pYeekNpCbHGCwamnTn8zz8UxpWChh8BGPfPU2AlW6qgtOkc8+HJqGuqaVZhBrWUgr3wXiu2YBVFIdltCwDrPSO4+He3Aj0Pg54DN1k0TmuCCf62wPAkh49ZRkugoRQreL4REdgxV5CRl6x8JT+H31Yg48g/f3T0bXtGKSbquFEmGddz3tYwnMNNSy/luf04cAD1oTLprrPmJgwrMFoKgfcsgRgpZm3/Yzj4dzcpIDljkvmBAsZZRZqYBU0LJXBIV8MlAltZj5fqFZRk2OQqAptUPFYBS1Ozm2NSLR7+n/OFGBlIpxKrEECSCVtUQis+VR6SdsekMCSF6rc1uzA6jznDWB6GYnD4nTkYRzW/MISShA2wpOmnph7sxzHbCfTv8c5U3MlxhINGDrrBGRviQJ9T4pJmPdyEhIqfXTar6QcStStCCyVakg0oAlq0ALkgPtLE6Mn35EQCmpXTOpH05BnFNOQqZVHfofxO8/EvtOORqqpCm5Tg6TGAec6nOXeZ/o91LDm99xCYJXQ2GZqiCvlNwOi2e7XbFcMrIGzjkfmFm0SOuPIeRay2odEn5IQQzzgyh2ugMUfFkHNCgJL59oywRIGWMJEdwgYeVSA1b79KIxFquBFOC0ZtawQWPNDTmlbh8AKgVWihjB3DYv+KwMsO16FdLwOwzuOQ/7GU4Du3wJeChZy0ksnqg/tMcKKfJL4Bmavkvyg/mDo0pq/hh7tQY/Odx5d9Rvy1DylON2ZU37odxj/3na0n34kxqIV4sPimMLQJCz5CczrACGwQmAtCbCMs53AUtBSwBo7/Sjkr/tPoPsXkn+K2T8ZA6Uyi3JYThBYhJXLhMYKWAKyebX3KTdm7JXqLcxLtlGJricoWcQuHAP6f4uxb21Fx2mHCbDy1LI4kw59eCW0odAknPKRTLsyBFYJja2Uhnqw7GtMvVnvh1PQaw3LACubqEd265Fwrn4/0HUvgF6JXpc4LIfpilV8VEHDYsoZpjVePGBxCBADRVVhj2FeOeIla4MZEjQOdP8GI7cl0XnaJqTjFchxTGSyZk7+u5nqJgTWtGya8ocQWCGwStQQ5mYSGg3LTRqzsEomDsk2HwrrsvcC7XeplMTsIXRtIG8Blg7oVI4kUbUmAEt8W1O26zmt5GEJLBuWTmTDHkNOAZZR4xrNKGwOgG7/BYZvbkLvaRslcR/zYXnNajLYmYA0228hsOb0qPyNQmCFwFoWYHGaeitWj3R0I3Jf+j/A3jsBcMqqDBzHAXI2YHPqKpWsQQVGUbvSJiHNQZprAjO/Pc/rgwGWyawlpignX3XGAWYctW01tZg1Buy6FwPXfAg9rYfITEz5ODUsNSnFbFCa6fcQWPN6ZAdgTnfdBlU71K1yhjisMKyh9JxMMwnUbL/N1yQ0GpYBVqpxA9JfeBew6ztwvT0SNGoTVDmnACxSSYOJPiybNuIiAIuiojQslfuBLnePM0e7nCk6I8OEmC8LuUHg+Z+g//J/R09yHWyahBGVJme2+pnt9xBYIbDCoTlLqDXOBiyTrcFsJ1pJczUIrGy0HqNNh6Lv4/8L3gvfALBX+uhoiRlnu9KCCpqUypDFgdA6y58G2fyaPXv/OLmFKhygw2lVmadBouyRlr5IhlBkGe6Q6wEe/wY6P/eP6I2vBZLVcDmWMFFaSANhFgJrfk8uNAmXULhne9uW4+8GRNNd+0zAysUaMLR5AzrO+TPg2VsBa6ekJSavrLzOry7z5jC+QDVsalfMYCXAkgHR82vwZmsDKzNekcNyCC2VWiaNDPJSmNkU2T3AA5dh3wVvw0B0LZCoVYOfS+whDIFlnsbclyGwQmDtfx8WxxPq6b3YQ0hnNXvYOFv3SGQj9p15EvD7q4Hxp4H8mLApl2fvHSlFR1UBWCrdHp3xWssqVcNi5ISrso2qM+XB0FVGhI1Jvq0RIPUU8t8/B3u2n4gRAitWq/JhhcCaO2kWacsQWCGwlhxYNAsJLIthDS2b0HX6a4CfflxSuCA7ItpUlpNASCCUnp5eg4k+J8lfJVGdBZDNVx6MhkVYGfY5Hs/IwNU8UrAxzkE6VgfQ+wCyN56K9uRRyMTXwY1UK2CFJuF8q73k7UNghcBaMmAxNTId1tSyCCw7UStZR3taj8TYlR8Anv8RkOmDm88hzyE6DC+gliPpZpQfi9witJSTa+Ht3wDLXzL3lmNJahuGOaSZ5x2jQH4n8OxtSH/+7ehrWgs7vhZepA6e5HQvLWg0NAnn//xCYIXAWjJgcQIKmR5LQgJq4CRrkI5UoD+5Hl3nvQ34xTXA6D4gz/lrLOQdThc/BniEVhBYgSGG82/zsgdBRV2NRf67eXg2ewaZDYtGIbPOcNDz48BdH8fgGa9E6iOVKktDol4CRt1FaDuh031+DzAE1iI0uukczith/WxOd6kDPc0XgZWPGi2LfqwqZCIVSCUa0NH8KuAb5wJtT0AyfDIeCynA42Sm4z6w2LzJLg7PKSXNjAGWyi7KFEaMrE/rJIJqzCIy3cCzd6Lv0v+H/sg6uJsrgEidmp0poaar90qcOScEVhkByzQ+5Z4wgTXBtjlbHNZVKI7DkskB5jjNV6mNbSUAabZ7nA1Y0ktIp3usEnZExS9Ry2JYA4FlN1Ugn6hBV+NhSF/yH8Dvvwtk2wG7B8CwKoyN0hqWLLUrfra4UdWuphYIAZancmDxOOLcZ5Q75yGkKWj3AsNPwr77Iuw64w0Y/Ug1EGNqZJUtNZ+sgNO6GIGj2qxk5lKZ/kyNtWS90nR24rVSaE6zvnLxSgxuOww9n30H8NjXgAyDbf8/e98BX1dxpS+MsY0Bmxa6DaQASUggIWRTdjeb3Wz+m83uhoTmbkuWZEm2MS2YEhISQic0g6kG3HvvvfeGuy2r915ef+++977/7zszc9/Vs2TJFRu/p99obp075cw355w5c4bzm7Qh4/yq+smibXMi8YmL0U2S+5JOvlQOi2WOEVXLgCUbWrJZhGi5aZ1L9iWMrlb7Etanc+vwzkB6J6UMTVVEEOYomHGeBBKALFTlvRN0a9taJz6X7h8BWLrjSR1LPau2oM7HKRJaVFhzfSF1QalJqE++CCXDvg3vuKFA8SIgkg2ECxFGDZRZpyYWulGgdwWZPSRnpK9r7wpyW9uZ8ilzu4n3BfuiuMFCWJs0BMNeIFoFIB+oXwtsexd5z/0EVUOuQaD/eZCNJ9LV+kFPZjv4h1wgoHIi7W0Pmqwr2dTifLHNIu3a9Ct11R7RzAsQSD8ftUMuQ/WL/wrs+BjwFcYAi0ua4n6qqAasGJ/dvzMasJRylRsPKI+jNmBxUwBPPpoDLLWbSWuAlQCtE+lkzndbBCwNRJCBIkmU1AQsAS0RpxSHhQG01G8H2mQVp1yGkmd/BmvOM0DJIrHLAqoRjNQjxKUy/LEHRqLgfoFCHwahIjQCVct42G1JK9wclccMBC8DYLZVKpMjuEWh0rNqgEgu4FoPbHgdFW/9BsVDbkBd8oWw+iQBKTTPIKCcB1/GqQKsC8QLhABWRmzAJUdKwAqmnY96AtYLPwe2jAQ8eba7QW7gEf9LAFZ8jZzgOStU/Y7ksBKA9eUuu3ECU0vHrQKWzXGpnZ9lppBc76DzZU0espIQTqP3g/ZoSLsc+ek349BTv0Dj9D8DRSuBYB4QqkDU8oBmBxR+CF0uQGbyLEspyyNhP8KRAMJR2lExKM9afgTB4INfBy8CYHCLtZUv6oY/WA1YZUA4ByhfDqx8FfVv3yscX13KFQgM6AwkdwBS6U6GbmWSwMXPoYzzYHNIx6kL5fuShs1hKcDitbAGLH6L/sMIWKH09gJYFX/7CbDuLcCVA0Q5RaBciZveZOIEYJmaOElxArDOfFBqCax4/VgAyzwr7mUEsM4DhiTBPzAJ9C8VGfw1VKdfi/3J3ZH97K9QN2k4cGAmULMDCJUBoVogUC8KclppidlDlGIc1/4xNCIadSHKmUV4EIVHFPdhNCKCRoRRh6joxRoA1AGg+FcC+PcBNRuA7KkITR+Owmd/gcKMb6Au9VpY6VcC6V2B9IuAtPYithGwbKA5TqCSutNg1VbAMqYg5LDKnvsxsOJVoPFwArBOEha1KZkEYJ3dgCV6QafFt81RKSWy0svwWLmhIWgZwBLOITVJOBYqtK20jvCkdkFV2lXIy7oRe4d9F8Wv3gPflCeBTaOAA3OAwrVA4z4glAdYRUo5H64GnMGqAkwIVwGRGiBcAwQrgEA54C0GGvKB6t1A4RJg5yhE5/4JNW/+AYUP346S1GvRMPAK+LTdVXjQRbAGdRRxjBMG4Mxghm43nh8naBnQO1bAahxyGUqf/REiS14EGrKVSxxb+G3a7RIcVtP6OOGzBGAdP8Efb0c5qe8RrI4GWDaAqecMYFEnI3oZUTSfJ/ohK/k8BFM7wJ9xMWoHdUHhwC44OOBy5A79Fiqf+wV8I3s8jdooAAAgAElEQVQhMukRYOHfgA1vAbs+B3IWAAXLxF8VytcCleuBivVA2VqgeLVsMY+i1UDBKiB7MbBnLrBtCrDqc2Dhm6ge2R8VL/wKhY9+DwWp16Gif1f407oCmV0QzbhQgCqQ0RG+jA7wD2ovEzgCWAQpyfvxt19bAUsmjigSphPU24OAVfKnuxBe/IICLCMSCmipLmlmCROAdcIQ1TSBBGAdP8GfVOA5Ti6hVQ7rKIAlNkiZ3H2mHaJUvpPbSj8PAeq00pMQzOwAfybXG3ZEbXJn1GVcgeqHuqPy8W+h4tk7UPXiz1H1xm9R+fbvUf/eg3B/2Av+j/sg8ElfBD/sg9AHPRF45z5YI+6D9ebvEXj5N3D/9T9Q/8y/ourRH6Ms6zuoTr8ZlX0vR03fLvCldoWVeiGCA9vLrj6h9HYIDb4Agaz28Gadj2BWe4Qz2ymOit4aGE4Dh0XA4j6ODBSdGwZf2jxgRanhU78EYJmaOMlxArC+4oClZwkNsMX0WDRraC92TaIbSmsnABDRIiL1RGH6nCIXQ11ZahL8yUnwJLeDO7UTGtI6ozrtYlRnXY2KwdeiMutaVA2+TkwQagZfg9osFRoyr4Yr8xo0pl+BuuSuqE++BJ6Bl8I78FL4+l8Ma8AlQMpFQOpFYhQaTSYgtQMGXyCKdSuzHXyDkiQERfmt88R8ZZzYbHNbOSyCJMHdAFZ9VtcYYLWgw0oA1kkGKpNcWwCLMyBmqpq79IoltDZrEMPRQRcimH4hIqkd1NSznsmJaBssjlDsKNJpxA7rxAjtjOBsjpcjOtnvxYuELaWvnzOAxQ6ogsPFMrkVI2ZpzozAxfWHwu2ktxeRMTSwEyyaGiRfiGBqZwmB1M6QkNZJTCR86R3AEMjopENHULQLpnewA2fcaMwaTlUcjABoegcbHGiCYQDUbnPZyVrTklMUbqncR7neVsBi+QlWrK9Q6vloyOyK0qd/iMjCvwP1h2yzBmXAoXx9sX/JOkmxBEnYYRm8OeE4AVhfMQ6rpQ7aDGCJ8l2m7pWRpFI+nwdwUNGB28FTb0NreIIN3SqHuTwmuZMyNRjQTg1SyeermLvZEGhoGa4XWseMMGnXpEIoU8e0WGcYpDaVENcxqe2BFO2RgWKf5vJEdyVLcRR4EECa6O9aKnsL19sCWFJHDsAKD4wBVnTRCwnAOmEEOsYEEoB1bgFWTDSk0p2rEJLUpg4CIJxBPF9tn0Wbp4EdZXfl6MCOAlT0n0VOOpRGbrqjeE0QY06CCo06CSwaXAwYUGyLZCZJUHZNcaA1OAlWlrom23YRDFM6xsBwoJrFZHp2OpntxNMEgVQ49xYAyebKWrhv8shYdGHCXTa1w2oJsMqe/iESgHWMYHMyHk8A1rkLWOzsavmJAq1A5nkIZZwvYCCblBKwaLCZQqPNjgind5RZO5oYcI0dAUZEJeq9pLMrQ04BAOqXaHqQEbOZsgEiXYmh/HaIgJmhOLKocFbk3hRQ0lCUnBqBjhyZHcTwlctylNV7a8DU0n07P20ELJp+GA7LBqy6hEh4MnCozWkkAOvcBCxZSMzFxFpUpNW4P0uFQKZZaHw+QJGPM4gDtZhIbsUGI7VOVFnNq2NyJAQiAwYCFqIPi4mZXMDMmUmZ5TNcmXBpvM6JgAsA6kMHqVnBQGYSfDr4M7hYW4uPXAvZAvfUlusmj4xb47AoGhvAcmV0RQKw2gwxJ/fBBGCdw4CVSu8H50kg0JDDImiRk5EOTzBJcZgPOC3M2cm5fIXiWWY7FeulLEcClgYrG5Q0MBG0zCQM75mgrwkHmNlO5StDzxSmq0kAUPmecfoAK8J6SuPmF+cjAVgnF4OOKbUEYH21AMvJNTiPDScVi88HCFgpOmhLeAM2trcHLZIFspLgz0oCYz5j9FX8BvVgvGaU587v8tjmdoSbU9wbORYJ9M/OGUsHV9bkmPdkS3rq1LQZhuHKRAx1pH+M3JbzO61xWAnAUrDypXtriKFb06lXApkCMxo0RLhAXzZKEZ8/9ETpyUN09bvKH9agC8Ftz600bdZAq2CKARlqGQhHb1GOavFDdZrjJzS7AxwjgX4l3zN1quvC2QmdxzGgcpgE8F0BLM0Bsc1MnepjpkGOi2DlHZwEimcKsGIiovM7zmOjw1Kx1m9p/ZUyqTgfkdT2srDYBjwza2h0XwJOBCstJlLPJZyag/MzeT7GuEleWV4BwKYASpMGMWtIcFgCFWcIYBk/PcZjg9ovJcZ9KZsSrtanbQnot4huNVa/g7Lht6FhkFo6EcpQSlga/glgic2MNgQUfUlMZ2KP4MdIZHaHSrwXA5cTqQsxXzi6xTg7tgCKjnl+wu1ngNascWyGw7Lb2vGsPdgRYJwAexx10Cxgkeskrer0+AzNM2QfRKdI+MxdwOIXAaN0Fyt3Du4c3un22Qz46orTpQ6vNL0vr50V/84AwDKcla7YKN1k0NeR8l8klWs2vIwoTqspYN2ChowL4MnoACpr6YbDdgxHY1GeMzgBi8RwEgjOEFUidnBGx9Fxz9X6EyDWnJzQo3BzGrAcYCiDL7m6VIcOKx6wIsrrqOpFCcA6heh74oDVOCgBWOdqpz+by30EYBGkDIflBCwCmdiZxQCrnIC1yMFhJQDrFGJUk6SPH7Ciq95G+RO3IAFYCQ7nbAQuA1icLJD8NwNYfEZszBKAJahxhomEFK6bEwnD4mA/YkRCywO4DyOy8g0bsOj+Q4wOEyKhrf84GzvxuZTnZgErTa2xNPXAZ2i8muCwFJdzhgCWg+VqAbBkpjBiyWwhNGBFV7QMWCL3J3RYCfA6g3VqrQGWcFfpyrV0U8C6FAmR0IEZp/XQORXID8cBlqw4l+2LIog4AcuVjcjyfwiH5Uq/QBysOTms+FlCM40tszwJpXsCyM4AICMgiQ0ZRUJyURLUkiNyWK0D1suxWcKEDus0wdYxABZtsMTggRxWHGD5BzUVCROAldBrGbHqTI0NYFm07E8AVpsA58sXCY8ArAhAeyuHWYNYlkTDCIdDCrC4E7AnB+Flr6Nq+K0gh+XlyvmsDmqDTjY+15RxpX2coWCCw0oA2ZkCYDZgOTgsLsCmMavkkUas2gurmOVoswZ35mUiEkYXOGYJKZloF8lir5iww2oTAB77Q20ALHJWDE0Ay30Y1tLXBLA8aQqwIplqBb0oKQedp5yvJQArIf6dAeJfcyBpAEtmCTWH1RSwYis1lB3hBQgPvAAErLKnfoTwghdiImECsI4de47rjVYAy+iwmgAWl+a4DyK09GVUP3Er3Knt4eHocxTAoiuQJu5ADAt+hhJzcwSeuPbV4g4JWLL+sUUO6zzZnl7ollxXmgKsxszLUPq0Bqzag2qbrwRgHRf8HPtLBrDsuKlIaADLniWksMidn10HEFj8ogCWJ7U9fAOPBCxu0GlEQidgkVBsnUECsBIc2JdEA20BLOXAr50WEzvIetmGrMtQ/MyPECKHVXNAAVYzSnelWGGXNLaOjNWP3c10OXPtbIjPHB2Wqb3okYBlKlxmCQ1gNe4/ArDCGWohq4iEXPisAUv5SIpxWAnA+mpxKmcr52kAy6ZHcUSodVhcv6gX78uuz/QYMagjQukdUJt1KQqfuQvWwhcBw2FFQojKvtii8RUwSgDWqYBgG6h04nGApa6qEcIGLIqErgMILnmpCYdFwKIHSgNYMZ/e1AUkAOts7dhf5XwTrI4GWNztWURCDVjBtAtQk9kVxc/eDSx/Te1LiACQAKxTgU7NpHkMgGUr3eN0WBQJvSntkACsBOd0toGbgBVFUq4XFGeGHZSves1hOQErMqgDAqnthcOqeP7nwKaRgDtX7ZrTDGCZrmUkFBWrPsh7sfvN9Msz9NKZIRI6a86hPIxdVhwWAYvKd0RcgDcX/uVvonz4d9GY1kEB1iAuDlWbBnCLL26FTte73ObrSJ9YbezcRjnfXKx1H4bojjU+2zpXIr/N0ExzdBF/7Sg6MqFLo1OVRc503UxPqHQxo1QcwTS1vRfFQc/ADqgeeg2qX/1PYM84wFMEUBSM6r6RcC9ziqHWCfUEo2hQNYDYlMSUhGo4sICQB4g2Au58uNZ/gv1PfAcNwy5D48DzxGYFGZxNSUIwnU7fzoNvcHv4M89HiEQkLjo4mtHdDJ/jZp50QeNQwjuJTa7HOZyzfSNptzWD2slMDl3aRDLaCXtP300EL8YUS+mATc61KxHuvmI7lzsKMUu+mD+Tx+aetfPTUj4T11t0Hsj6lPpV7pbtLeibq2dzrUl9a7oh0Djpxnnc4j06lTwf9OHGFRoy2PE9uoROZlC7BoW4EUZWZ9mXsTE5Cd6hX0PBkBtR+34vIHc+EKqB7NUpivVT3FfPgOTPHA5LgIsjBQEr4AAtOu/T/Cv1WyGXAix/Kbw7pyD3r/+KysFXwZ3SEVay8X+VhOjg82EN7QjfYG6meYFa8e702U0nf7LWsJlRk8TpJDoek/DiA4lXp2NmI0l4ziDO1+iAzRGc94+Fa6H1fnw4Ik/xeTzV5/H1FH/e2vfjn48/P8r7sprBAMlJjk09H9E+zQFWfJ6bO4/PnzgOpP+2TrITkA1YxptpCgFL3bMyOwBZ7cWrbv3ga5A9+BbUjR4MVGwAQg3KqeUZACanIwtnOGBpi3dOHIp8GAEsLwA3YFUBh5eh+uXfo7zfNQimXAGkdAYGdVCcVHoSgmkUC7XrZIKZjFwKeKLcsEC721WziIoTIjckHBINTuPAJ/5ccWaO3Vj05p9qE1ANcIbAm+t4JGyKA7TDOUqI/67z/IgOFd8xzoFzZ33EHx+tXuWe4WCdcXN1ZtoxPnY8G/9tObcNl83WYjFjUHJYBCXZB5HpOtLiNmbWoAuAwR3hT0lCNCUJ/uR2qBh4JQoe/zGseS8DjQfExEe88J4OtDgDvnGGApbxnhgDrIiRDiMBIOoGonVA+XZg0jMoSr0VrpRrEep/sdoogNtCkXsapHYNVlvYczffmB9uLjoN2oClNvVUwBUjKKdoR+IzRn4m5jXhxAhGVJg64+YAqrlrBrBairU4SWKW7zliJ4GfrceGk2kpbku54uulyXlL9crrEloRuR0gInkxwKJjfouBtOIM5pod6z0YzeDIWERV+oonN8WBUu9KLZvLyv6M5yPKXYFIt6lJ8A+4ACXJ16LqpXuALRMAT4EM4AnAOp1IKpyTEfmMSNgUsLhKKmwAi76ruZaQXJbrMLBtDHKe+jcUZX4d9SmXAhkXKhAhAQxMEtmfI5Xa+STmK5vclSw6lb3ltD5LfBHpDStk7zs16pHoSFCMJZgNCnjdsP8EIxK3IWhD6EZv1lIstjdK0Sp7z8lW6207V8rZZkTV5oDxTL1m6q+luA35FtGQ9cg0jiFukzjdUr543UkThjZ0bO45Y6EPQxcm1ukQrEJZasMNtQuQpkOCFWlqUCf4U7qgKP0W+EY9AuRuAHy1QDiYEAlPJ17Z3xI9FZXuTcGKl8MasBS2RRAllwUf4C8FStag4JPBOPDkT5CXejV86ZfY+ip/P7rvOA9WZntEMy+QIP7duX25BCrOCVbt1ayM7Z7W6MJ4XwNRC8Rp39eEJwDGd4TQm1F4yzd43XyXu7GcSNDbZTHd4wnsDImgXRPrdjH7AMheALxm2jMupl4yrWmgd1AJWt+olPqaiyNXJXpTE+v0NHdlOHelktDbi6V3gD/5fNT2OR8lKVeh+M+/BlaNAhqKgJBfFO4JDstGkdN40ApghaLGboQKLYJaAAjVAlYxrH2zUTr6Yex//G7k9r8cVX0vQJCsdnoHhFL1xhQEJgZ2au4vl9pRBw0Wsucct3DSe8/pTSvM/nXKIJVGqe1k1o/Wx/a11PYwi1ZNzHVf0TT1jaZxJ329U9PvHytocUszCWbTgrMzNvXbUhzbPKSF8h0PSDd5R9MBdUlCE+TQO8XCQOpEDV00jVVbq+UyVlp7MNDTggQxYI7b/OSIgaEZ7lgmhrgUpyP86ZfIQufitEtxIP0qlLz8n3DP/ztQsRmINHLIBrdrSQDWacQp+1M2YJGfUvKfcFcRxWERsHjHcFm0PYlaHoRDdUCkAshbiqpJT+Dg0/+MQ4NuQknaVahNvQL1Ay+GN/UiBFM7IZTaAeGUTggmXyTstS+1K4JplyCYdhECqZ3t4EvrDH/6RRJ8aRfDq4M7/WI4gyu9CxoHHRm4M68r41IJjYO6gqEh7VI71Kd2hR3SLkF92iVoSD163JjWBQ38XlzckH4J6gadm4FlN6GRdZh+CeLjhtSLUZ92MZqP+bxqF2fcmH4ZXOmq3dyDVDu6B7FNu8IZy3F6F5AO3E2Cppn0zvCmdwbpiSGQ1ikudIA/9QIxBrVSqKtqByu5I7wDL0Fd2pUoybwe+zO6Ye8TdyLvrf8DNr0N1G4EohVosNxUishinARg2Shy6g8UABkdliN2HBKoRI/lBCxx5heGO2whGCW3VQFUbkV46xjUTnkCxW/cj+Jnf4GKx+5E7dBb0JhxHdzpV8GTeQ0aBt+AqqwbUZHVHbUPdUPVkGtQkXWVhKrB18m12oduRM2wG1E77OuofpjhG6gc9nVUPPQNCVUPfwsVj92CkiduReGTzYTh30bh8G+j6MnvSCh+6nswoeTp70OFO1Hw5B3If+qOFuP84d8/4n7B03ei8Kk7wTj/6R+e06GA5X/qByh48gd2nPfkncgfficYO6/HP8d6L3z6DhQ88z0UPv09iQueuh35T9+Ogqe+g7ynvi1x/tPfQcHTtyGf4albkffUrRIXDb8VlX+8DVWPfhMVD90sgTRS9cjXUTXsZlQ+1B3VD98kdFQ1tBtIW5VZ1zYJ1UNuRE1Wd9QN7oa6Id1RPfQmFD9yG3Keuhv7//bvKPx4ABq5/2DuTMC9A7AKAbjgQwTU5LJfJADr1OOU/QVhrMyZObFRTHFUosPSuizzCJ27czdoCodBiotRHxCuFgt4VGwB9s0DNowC5r8MTP4j8FF/hN6+B543f4uGt/8XtSPuQ/XIB1D9zj2oeet3qH37HjS8ez98H/WG9WkywmNSER6TDmtMBsJjByM0dqgOD8EaNwzhCY8hNPlxYP6fEF307JFh4V8QXfgXYNFzKiz+K7D4eWDJ34GlLwDLXgSWvwgsewnRZS+3GLD8FUhY8SrAsPK1WFj1OrDqH4iu+sc5GbPsWOkIK14HGLjGrk3hFUSXv4TocrbHC4gs+zsiS56HteQ5WIv/gtDivzjiZxFa8iysxbGY7R6a/AisCcMQHDcUgbFZCI0bDGs840wEx2YgMi4D1ph0BD8bCN8nA+B5vxdc7/VAw4gH0DCiB+pG9EHtmz1R/+b98IzsCf/oVIRnPYHo6teAbZ8BJcuBhi+AUCEQrgKselhRv4iCBCvOoycAywDIaYhtADLfirvA05YAizei3hDgDQJBLgBl8ABca+ivAzylQEMOULUdKFwIHJ4GHJoI5ExCJHcGIjmzgcPzgEPzgewFQO4SoHAFULIOKN8EVGwFyhi2AWU7VSjfBVTsBir3A9UHgNr9QJ0O9QeA+NDkXjZQnw00HAYac3Q4BDS2IbiyxS00dwuit1UJ3hzAmwf48o4/9uQD3nzgbIyZZxPceQCDK1cFu35NPbcUsy0O63bJVg7xTJvV7mvanua6M67ZA1TtVCY2FdsAhsrtQDlpZjNQshEo3gAUrAbyVortILKXAgcXAQcWAtlLgAPzgf1zgNy5QNkyoG4j4N0DBAuAQKUylqaCPehHNETDauXRhJ55OWonAMuAx2mI4/BJsVSOi+bQgBbP5Uc1VzgK+AlWQcAKyhQvrBCiIQsRKyqNyWlfWA1AuByIkp02oQyIMFQCkWo1enEEC9eoEKmT0QyheiDYAARdOrjV8iASkMzS0C7sGAL9FpnA9yLeYwvkJJuEY/h2s/lU69BkIoOTGWdbMHVpYra3CVYgdmyuHRGHgLAjyKDH9/wqmHMTm+uMI3yGA2SjWJyD+tRQg4NuSEuNgMXrjmDVABZNEmoVIAXKgaCmR5QBqABQo0x3ggSqMECcYifQk0/RSBDhgDcxS2jw4HTFBpDs75kLGpnUKRlfFeznCFiUCUUoDCAapURPK3h2OtWwNDZlWwcsIGgFYFkEGxfAhvYFVOCGFiSquBC1XKLUjy0TovDJwH0TdQxuOxa0A/0RxQelZSDz3kLQ7nRktGzuOMLF3kcJsv6SrOZxBtbhVzloWjA0cURsgM7EXHzvDEcAnAMQeU9owtCGWVLGWJneRCJeRCJuxfWT82eINErgdSsSQCjsR9SiSsMLK+xBMOxGMOpXnBTpXJNOOAzwKmcH/QjCH6Ymi+7DWchz4/elWrobWuLAYf8EiLR2XdohBlYELfnxOl+KRGFFwgghiKgmEDYlRx/2cTYw29qQD8lK2tZcFJpwUIShDEcsLm24vRi4Y08Y4ahlB3UtKvoE5lIPgI44IjCr9voxT8diuzx24dt+wHIYOjXkeq7FrC1TB22vufgnDcE1jc0+AvFPExycgfQQQizE6COIMAczcOOUpgNZJBoAA++bYcwAaSgagT9iIcA9DPhxYmJQMeUcfDkkc2gOICxfJTUlACu+lU7ROTsYO22zgEX6kR4YDyiU3w1gAZZlc8rSjDJqWeSYaFTH+xFYYcX3kHwM9EiRmFQcY0JRUgLVAxIiRyUIdhgyKM7YCRxMQ3YxiSoekcRFcBOiF6k2Ivf5THPBCdct3bcETAmcChrbHqu80JaH3znbYhkkHPXmrCtz3FydOa+Z5+Jj84yiUUVyPG6OGY1/xnnOFRoMpAMn0KnjMEKhAMJUZ4RIyAo02RqEQAKdcHvysqJzDr7EsCifpSokocM6RejUQrKqqzhuOlubx8JVcRxyjIC8Tsoh2AgoAcFQFBZBShhmMs3KC6PMo0QJWBb8UT+80SD8kaCMYGKMymSJmM7Aa/JtQ2ixkTye6BSoaamNhEnpzQY7R7mYpB6dIxFuCqvDCQIF668lDu5cuM7SK4A+vpjARK6GsQFskgKbnzHJTKhPx8QJsQnUQCRgdBSpmukIKWl6MhRBuiU9CF1TtDSAJc+RM9eApXVm5PRZTsWRMTNa35EALFOlX3LcpIGJIM3/bLWPEEDY1iEZ1skGCc3LxY+kQjiOSRdJT3NM5t1YrLYbM+KCIrjm82Wuxt5tKko4rzNPPG9LzHRN1bQlbj1dwpoq19kZt63eWq+HtqYjQ6AMlKoNzUDU1rgpHXDgEm7JRj4DZGzpmAhAmlNDk4oNfRs6O1fiL1WHdTIqWRFNUyI4tmskkOZCfJrxYKXOWyvDseUl/ptHnrf2vfj7rX+/+XLFQPlMv39kHbVe5jPpnSNpz9mGsbI03w7OZ8+F47MesE5/IzlEUzMJcAozESNYw0+d7I/Fl+dsOz/Z9XF603MOlm37cnz7tO2tr8pTCcA65pb8qhFMfHnOtvNjbsCz/IX49jnLi3OM2U8A1jFWWOxxQzixK2fnkSnH8cYnWurj/a5570S/f7a+f26WPwFYx02vXxWCMeU43vi4K1C/eLzfNe+d6PfP1vfPzfInAOtspddEvhM1cA7WQAKwzsFGTxT5zK8BM9ly5uf09OYwAVint74TX0vUQKIGTqAGEoB1ApWXeDVRA4kaOL01kAAse8nP6a148zVaV51IMOkk4rO1Bs5N5fnxtlYCsBKAdby0k3jvpNRAArCOpRoTgGUD1pdDOCfCXZ0q23ej8GXc+s/U2/HGrX/hq/1EfL19tUt7oqVLAFYbASvWidXarxOtePP+EYuxj1FENOmcjDhWxthau9bTje9wx3re+he+2k/E19dXu7QnWrqk5oj0dF470QKc+PvxBGPOVcqxujhykWqbGJBWMmj8LrUEXPHX489j+YuBjPNaK59vctv5Ho/Fk0Ccw7r4Z1pbJC0eB44YFEwdMz7Xf866cB6f6/XSfPmTVAcwK8EN0cc5KnO4P4nvMMYlCQnZSZcxwlZpN+f5TN5xcBTNZ/F0X3USDZ33qfwb/1V0BSJO/7QPpBPNnUnXAJfxyRSrV/1920m0cYNi2szEpu2axq3nz5SXgMx3FTDT2wnzpK6ZbxgPW2rHInNP+YFXnhCbuIhmRTX5mW8xPnKywX60OTnZvvlVO3DWifO47eVsi+De9tSO/mR80xz96ZN/N0k5cQ2Jb2nLCiIcVsTIPRxC2lmZOCwTB2dhcXZGh2e8plzD+hBGQDqx7d7aUk7sQmHtJjZKP9jsAdo/NduFjqfEAxQdp8Wcr6nu6Gw4c9y08Kbiml49jjOdkEmPsXLZRm+PfkTEKaDy2U3Xy7LxhBWW4gTprsjR8QjmznOVVvN5Up2dqCdu4qQuCAf0iMr6YMeXzSrCaiMF4XaMUznxX+UDIj7lT16cvfGdI4eT5r9urrJujT9ygpNqJot7Hpi2D9P9tHlGuQKm+96AdmAnYMUNGug1k37RJS+kKgYCnW5q80nlDk/OWHLtAViuSn2ZCjTNbmJz3U5H3bDr0Vw3z5nYXGc7aW6Rl5q57Xjy5B7yu2ZgkoHbfNy4L3WcSzuz0nR+W8uJDHSO8pik7NjhNJL5sH/6kNfMwGTuxedB6k1/g21mujFjR4rm9VMaC2AFxSc6iS3WA03GTJ06nYdJxxSHc4QsrwTbNSOTEU+gBKEgQiCg+RCNWMpVo/jtp8fEEMIReqamb0UFWKqjqk7XhF0T1q1pPZgGaXr1OM50QiY91QD066gAKxoJ6A6rfD3SJ7PsyqN3opb6cUCFMx2VVvN5EiIgARGwNBenXLOpmlZcS1DvYkMYowtjBS98zmxyEBVgMH7DFX/mbKvmv+68ygaj492INCEHIoIR93pkU0lHI2ha3CWGvsmZuiJUlp0cqOSVHjAtbsrBNvXRv6vypaqdI8Yo2/aZKekcE2A5s22z8+oi61M6mnDAyimecMMOkHK+btrJee20HJsPMzady3ntGDPBV9keQkEg6XEAACAASURBVB+RsOxxoHqQGr5aTI77etI1bjOgY9elrjuem+f4Ld0TbDqQm6fpnyjdxeOhUJ+qRCsYRjBAX+hqVFIykGN7KuMHWJzrexA2e9Dq2iM4kWhDcCMINwLwIsQ/cmnk4MSFsNpxRnEVyp84u5tpO7v8R1xQd1q4bL/W5gNHQqph2Ih6Z5wooRQIRKPwRxRXSR/xQX8AgUBIysJNMDhCkUhMUs64pXzwW4owLOn0hsj4bgysLdlQQzl4jnEjzJPhbHjPuNNlLTrBSkFLSzkw11V5Sd6EI3Eyzd3TCI6mINzNIxhSbJehWO6eRuZPE7DKN3PO/PgRgVe4LNK6eHG1OwYBki0d43LMu1Ju24WsHjxNNp2x82V93dSneUzVreqQ7JjhMLk91YnZZgys81P9swji9Cpqt7fKi7nG2ATmkcf88Xmet+UnXJZ+l+85f0zDpBt/j8+Z75h82iDqwAPznql25oqh6ZecXz11x0lClYRMG+1jIz4JiL6khROyKB5xpOUebtphvmx3RQ5EjdA2FQpBkrPywIJHACsge9tQ3FEIrUlHOCySrwmmUuwiH3FB3Wnhsv3asR5Io4jOxeRQdX42DDkOn6ViaUdyV+Ew2MihsCXEL2x1XCc8WoPyewqkjDgc0z2ZtiD3wm3E+IT6UyIj31SdW+3GYgBLxU4+rRWCN5WoM8o2MMKccFdkAKkbIPekcCY2vDIL5MI0uJEC1CPMUwARuGFFvaqjxhh324W1XTdyoMvDcnGLLZtKDIzHwE3ale/o77OuTIcybS51q4GA18y5HLOzOQYY886pjPl9Zx6d5+bYxMeaDwKcASTzrgFA5zfNPRO3+D3Wp4NLNbToRCe77UxipzFOks1IhQCisoMH90hTI6QfoQgBh1sRGQf4aisrdgOSFeMwnedbYcWEkXPSehDZ4khvZySdTus8OGorcCL3wsBOqPRmfPfL+EnDEny1DkaVTo2/fiuMABkMHVhulc0IItwYwDoxwFLisPqW5EMqVe3mQ8ILRChWEwB0e1hupVcLk/uy1GBCUIsqgDUwaOKj1ic7PQtEpOF3Sazc0kwCG1MX1mCIPBOW7xOMSBsEOHJjnijgCZMTJb1QHFSct3B85LJ0UuQIVWDiGnjMrh0OsOIQFlMUxMRQeUfo1bzblGhMBzagxJp1clR8WjgSTiioHJzy/yZPbF9+1fl9c8zrDC0CSQu5NOAiHY/1HI5InyRdGiATAHOoLeQ7pmk1B8jk5dsarGygshkZuwFVTk5X5cWVO0nJfeoqN3UMRxsB1AGoBiLlQLhS7WQrm0B6lS7DCkhnVTIBuS7KBlrTLiw9O7/ZPZcKd0vtJqNn1gSgtChzZgAWt7phrzVB9VB2LLlO/ZtsEqB2VxGuKhSAxS2ayHI7Rmy2ozPE1bd9aojXcDTS/oL2CkTYh9nRgpYPUdmNjluXVQMh7hrM3YQVt0vuV7VbTBw0YMX4qD9+1AlGFEHMxqEU+wlQWqTjZIzaYJS74tUC3KE4yt20XVJvTMYbjcAXDsgmoNRtUn8ZD1hqkFIDleSNWTSAJflld3KClTnmdf3jgbynK9tc5ym5mbg2iD+XL3A/S9LsKf4xP0IjFElbyRfv8ycA4+AQ9eVmIzIMRqVjwIvfND9DZ6TRQNiC3wpJoHqGT7EOnM/Le86MNgdYzvvmQ6cpTgoGgwiFqHcgdXL32UrAvR9o2Aa4dgANu4DGA4ArF3AXAC6GfBW784CGbKD+EFCfo675ynWnqgdC7FgEuYCiST3SqkpRoiePWSei64jVcxuKbyi2DY+2+ogRRZRQIzygzHw1At4qoDIPKM0FXARxvxLTLG7YqhqbTW+Csy2PVhxDSDE+k2iuKkNGSer7RMlNZXc94MkDKr4AyrYB9YdV3ZJDlUFGbe4q4CAzjCY3TPDoP8mjyahRoAtoKcDi+EO9I7+DcAPgyQfqdgL1awHXBqB8M+AqBITjCglHGIj4hSvkBrcKbswHmC8DQJpT5S0dGJEKGRT8mrcVT64qSJfHvBdXPEmDm5EGA2j0eqRzBiPkki14gwH4QsxTbNPbuNdP2anJLoHDE/BLcOaL15hH81xbMyISjnQgpaYw4MOYdcDg8nlR01CPkqoK5BYX4lB+roTDhfmoczXC5XHD4/PKsxwk+eP7dto6fTtzJpOMT/Mvid9ULHMACNUhVLoFtRs/h2vJK4guexlY+Raw6j1g9cfAmk+BNR8Baz5EePX7sFa9i/CadyUOrf0I2DIOODAXKFitOlbVHqCxAPBWAIF62YpbTAPYMagXIdfiACvHwNCGajjJgGWzGswT9XRuwFcB/65lqFr0GcrnjkJg90rAXSZbj1shn1KmxvqbYukd50drTwNYpvuyKwuxiU6GfAjvkItqQKQmG94v5qJqyUhULnwHnu0zEKk6BETd4Cym2W3YAJYzPlpFSttr0wKSqS2u0XyDHJUR8WXUdyNcmw3fzlmoXfQ6auc/DffS5+Bd/Q5wcCHgKUQ06hGQZUc0oi4FQOmG/JiM6iyXU5ep8CoGVE2ZPsUlGjaQsQJhSc5RONYdrxEQCFRFZaU4cDgb2Xm5yCkqwOH8PBzMOYz84iLppMyjKrMjkVNw6OTACZYVNdWSJ8lbQR5yCwskX4dyc1BSUS7AwTIIfWgF/NGyRW7M/NiP+a7UgduFgpJibNq2Feu2bMLK9WuxYOUyzFq8ADMWz8fsJQsxb/kSLF65HCvXrpHnmKfK2hobOA1NCl3yI6bSnbH5+GmKk4QUZNYvBLhL0bhuLDb/9Xc48Mcfo+yPP0DlE3ej+smfouKJn6HqyZ+h4o8/QvVTd6H48dtR9cxdqHzqDpT+8XvybO2z/wLva79D+MMURCY+DmvOC8C2MUDhcsWpRcsQ8VcCIY/qEKQYXd+seMrdbf+dHMCy614U7soWSfVUF1C6E5XTX8OKh3+DFQ/9BqUTXgAqdwHhWpmA4MCjwL5lsbC18hBcRP9kzySxO5M3obDoAVhfRVtRNOGvWPXEb7Ds0f9A7ringNItQKACnM9zAlTsWHF9R/s+y27MCvhV4SwpBrMudNuQ52ReQv4yBPNW4/BHj2J91l049PjtOPDYbdj751+ice7fgaodgFUtuxhTT0lBlmlTv8WkJHmZ9VKApdJVei+TB8ZU3pMK+A45O+kkvGLrt9iN1H0+w2OVvCovzwtLS7Bo2VJMmTUD85Yskk46e+F8TJszCwuWLUF2QZ5sB2/EIp3EcUX8nslDcwkIT6mBpLaxAUtXrpB8zZw/V/LF/M2YN0eubdy+FXyGYCpgIQNFDJBs4NDAzO+KekJzjKwPcpGF5aVgWnOWLsLoKRMxetokjJk+GeNmTsWE2dMxYc4MFc+ejs8nT8DYyRPx6bgxEi9dvRL7Dh9CVV2tzOqb8qlaVyVkX3Xmpblyn6prSSQQVhA4A9iQj9Cy97Hr0Z8hv/9VqOvbBbW9u6C+/1Uo63MlyvpdifLeF6My+RKU9u2I6oGXoKp/Z1T26YyKXp1Q3acLavpfjfKUbshJuRnbUr6J7Od+hdpxwxBZPxIoWgp4c4BILRAJIkIDTCrtaYdEBbJjGrd1EfHkAhY7OhuHICTz8OE6oHgTqj5+GGv7fQfr+9yO6o+GAcXrAKtSmxtoe1g9qhkia66RW2pAmQnUSm451ua4AQEsF+AuBg6tQNn7Q7Bu4PexcsAtyB85EMhfBviLThiwSOQMClHIC4WkLQQjIgpA/NRFBYqAw4tR8lp/fNHjBpT2vQz5vS7CvvQb0TgmCyhaAQTLxa6M6Yl5hI5lGJKdigmGIQFoGqbKYKlB08uZWG37xZlH1Q4aDchFELA0aMVzaMy9qXOWgKIOQeDTieMwbvoUTJw1XQI75/ipk7FpxzY0+jlpoLiyltqmLdfNd1t6ljQRCAVFNM0rKcLE6VMlX5KnOTMwec5MySOBZfXG9ahqqLPzxbTNz+i17HOdd9Y1hzZystWeRmz5YgemL5iLsdMmy3cIUGNnTMFnUyfi0ykTJP582iQ5/mTSOAEy5mXK3FlSR8wH3yVHRuDz0phc04ihb+bh2JgLk+sTj5NIWBxBEQ0AjbnAsneQ9/BdqOp9Mfw928HbqxMCadegOvlalKVcg4oBl6Mq/TKUDLgIFaldUTfwcrgGXglX8uWo7tEJ5fd1QOWDnVHT70rUpFyLon5XoSTzFpQM/2fUvp8K7JwCNO4DwjUi8lghr+r8FEOEy1GFal08PHmAxQYh8UpsKNCqAQrXIPBROnb1vAF7enSDj0BRvAqIVEle+Tw7lmHDTYOaJHje6k+DtRq1FHdF/spvACtUCeSugHdkOvb0/zp29L0ete/3AUqWA9EK0R0priqmR+N3TTjq9+2MUjznxIICKw4kZLQosbsQhhvURRYC2QvQ+GIvFP/hWoR6dEXjAx1QlH4DrPEZQNlKIFgmxqNM1pg7eGnbRcAJUQ2gjEypD2N5CZKcQebMtOiXLIqP6l0Zu0wTS0U3BSzDlbHumY4pMfm3nKI8zJw/G59NGotx0ydh8rwZmDR3OsZMn4iPx32GecsXobyhWsTWNrRQm6qwpYeYPrkg6qd2H9yPj8eNxqeTx2PS3JkYP3u6xOR8Pp86ESs2rkNlfa3QId9TZVP6JMPVGFFRaE6mO5TFY3FNOdZs34jJc6bjsykEookYP2uKfTxh7jRMXjATUxbOkjB10WwwTJwzA59NmSBcGPPEvDB/42dMxcxF83GwMA8eTjDxWxyY9eBAyeJE666lOjva9SSOMxzNReHeoACr9LEfwZ3cBeHkjvCmXgH85UfwPf/vaHzhP9Hwwi/hfvnfUPf8z1H/0r/B9dJ/wPPSr9Dw55+g5KHbkJfWHQWpN6A89QZUJl+N+r6Xo/rBS1By76XY9+ANKH+tFyJrRwH1e9Vsk9UAhP0IczaMoGV0FK0ilqHmoxWv9XtCGJrkeUyzI2kJAlbBSuCzQSjocwPye14HjEwBylYBqNGdTT0a6y6xGSpz7eg5oNFgzIzAcFgKsDgR4gI0YEVHJiO/f3cc6ns1fCN7AsXLThJgaV2iLJ1Shoti3KusVdCAEBqj5IgLgcML4Xm+Nyru6Y7oA1+Dr8dlKM74JsJTHgZqNiggD3FmVYEdidwGLFI6gxWAZbmlzRHxIsJJDSrzwRlXGuNqcY/YZppYYjMx0lQHprqQqm3eoe4vr6QAc5ctxITZUzF1wSzMWDxX4inzZwqITZ03EzmlBTKjeaKdzpBLS+1sgMXt92H1lo0CBhPnzsTk+bPhjMkFrdi8HuUNtQIOQosEBWPBr/sDgcvoxTjI0jy7tKEKS9avxCcTR2P0tAkYO2MSPp9KUJwOlpn3dhzagwNFORL2FWRLnFNeiEMlBfJdcljMAwO5MgLWJ+PHiFhJ0PJHaMSiZhqNKM1aP92/JE4+k+VHxKNmnxa/ibyHf4CK/l1E3PP97afAnMeBde8AOz5X4YsxwPbRwK7xwJ5xCO8eg8Cm9+FZ+Rp8S16EZ+YTKBlxHw4//gMU9L0a9T26AhQpf9sJ2T1vRMnL9yO6ZQzgPyj6IIS9iITcILclggINJrUysWWCMNR8YlVm0idY8KcHfsCqAwpXAR+nI6/Htci/71pgRApQsloBlhh1tgxYTLf1BqWCVM/w8cNa4U77Iz91W2yXYCWQsxwY2R/FA25AXu+vwT/iQaBgubrH9Y42f2H4jFjccu0cWX9Mh6lR/ySWHGFlAuoHB5VSYN9C1PxlAPL+79uourc7Ch+4HtuSv42qCcOBuu0AOTEpBxk2rkFUFllMT2ibQBb0IByqA8KNQLAKCJSp2eVQreg2o6GgAJUY1lPRZTeQASxVWoN/LKnhsIJRNUuZW5yPOUsXSMclYE2aPwPj50yVmB2ZHXr7/l2o9zZK3REUjlcnY7LXUj0HLUJoVCYBKKpRnzR14VxMmjcLkxbOwfh5MzFm9jSMnj4ZyzetQ1l9jQCDSdcAlEmfYCXcluZ4Kty1WLF1HUZNGiOBIM3yTZo9DYvXLMcXh/aioLIELsunAIfm3JEAAlHmS634rHTVy8TEuu1bRDSk6Dxh5jQ5HjNpAhatWCZ6QQIVOSsxhWgTfZtcn7w4yQcWxAuOdiCHtXQE8h79EQr7XYqcvhej9rX/BnZ8BFStB7wHAO8hwJMNuHIAbwEQLABCeYD3MOA+CHj3A7Ubgf2TEV78N/je+j9Upd+AQI/O8N/XEeX3dcXBAd9E8dv9gX2zAV+piDUCmGECljItMABiGu7IIh/Z4Y58pvUrTF9YAs4Msl+ZZC0XULgO+DgLeQ92Q/593RAdkQaUrNWAFZFnTf4MaJhzEx8tB+xs5KaEdDRgmcXQNL2kwSgV/DLr+mEKSpK7oaDPlbDe7aXyRs4kynEvBlDxxy1/33T0GCaw5tkCAjCqGTRRkyOqAA6vRsPIP6HkkT+g/PH/h8In/wsHnr8ftYvfheXJhkWAZQVy1XyA9ll+UJig+bHUK6VCGZTcQKQG8OYDFTvg2j4XgcObgcYyIOAW3WYgqJZCqfbRbSS8B/Mdy7MCGlVqw2GRe5q1eJ6IQ9MWz8GMpfMwfclcASxyIJ9OHoul61aioq6qCWAdD2i11s7MGTv6rgP7RAFO5Te5qxnLF2H+upWYvGguxs6ZDuqVDIfFxeUEZFN2o9tl/ozuiPc4G7ppz3aMnTVZykSOatzMyZi7YhH25R0CxcSGoEc4yZiVHmlODZKsL4ri5J74PVfAhy/27xUd2IRpUzB19kwwJmitXr9OZlf5XeEatR1Xy/R1au4kiZ0ygSLkB+qKgKUfoPDRn6E4+SocHng18v/xe+DQDMB/GEA9i6Wm/LkYVgxG/Ur/xff9nNVyA8FaIEi7pY1AzihYn92HuiHXwNW7E9y9u6L4/itwIOV2+CY+B5TvRiRIQ1USOzVquqcY0dDRcE2rwCBL06vHeqaIgqM3dWhkARR+iVlD4Sbg00eQ2/tW5D14K8LvDwXKtgDkOPispqh4kOBlE46WH8IMdVWirzKAReWNWcvHzBCU8lcj/H4yCvpfj9xeVyL4di8gf5OabY1QdGwLYJn6csaOjGomSJbYMPOUzqnHilrwRd2wUINo3T5gy1xEF38C78oR8K97H5GN44G8DQhFa+HiGB4OAaEg4GebukTd4IqGbCV6hAMj6chfgHDuahTPeQeb3nsCpcvHATTV8NaI8WowIma7AlFsEhlUSBOmYhnzKutN1wA1gAz5FcWYvWS+cBxzVi7C6h0bsWnfDvCYHZrcyLT5s5BfWnjSAMtkS+Uq9p/XKQ5y1m7MVDVbR1Fw9RdbsTl7L2atXipcFhXiBKwqd4NwQuTK2K78EbAIViyr0R35An4xh5i5aK6UiVwVw/QFs7Hz4B64Ah696iCm4eQRGYEmQUvq/BK/We92CWjNWTAfYydOwLRZMzFmwnhMmzEdu/fuQSBACvkSle6KKil6BICqPGDhO8h/+Cco7v815KRcjdw37gXyFgDBUqUk1zMSZgTQ9KKmfPRFFXmACG2wNgBFY4DxfVE2uDtqe18KV+8rkXvv11D9wv3A7gWw6vJERAhHqPFgT6H2IzZ1qppN6imeXmMErG4f0XVtQrfvx15hunbatHR3AhYNXgs3I/rJMBzu+S1k97gVwZHDgJItQIRW58pOyTS0dByZ2mIHin2jSYYF5Fg2NaLxiDwIgwgOWo/EfCjYDqlVBgVrEflgAIqSuyGv77UIvjsAKNgMBFnHCgz4aZUyY2WeqeaOzFUDVLoiTGQu64rg06IuYQb4+UgInqgbfrgQQRXgLgLqswH3biBwQB17y6QM9Vy9QFmSdRlsACJU2YdkBJeqYdoWB7UyIHc1que+gfVP34NFw36NktnvANX7laGuzHkBPq4icLaR3VjOCmZBFGSzDmkWmltWiBkL5+CDsaMwe9kC7Mzei/yqEizbuFr0WuSwyGkdzMs+YcBytrUze+Y6xafy6iqs2rBO9EJUaI+dORU78w7hQFkh5q1dISLhRxPGiEjImT5pA10qw1UJYGnqZp3QXoozeaOnKF0V9Vdjp00UsGrwuYSrkikccfHEFHVD60keNcGlbLaYb3JNrEUe09B0y47tmDJjOiZNm4qpM2cIaM1fvAgVVZXyjOH0DBmdrjhJiNosoyFwLHkHRY/cjap+l6Go3xUoev13wOHZisg4ryJ+scjmqtkLm9PQzAl5JAbpcuzYnMlq/AIonI+6D1NQ0L8banpcisaBV6Mg6zvwTHkeqDsoOqOgdFxlcigVTCrXI78hADYWq5+wxmPTDjzgmMRFwkrIYjrKNYwyXVTjlfN9aUa2EIP+ljJo5YyZR+yfMCoTub27Ibvn1xEcOQQo3AGEqPNTHZtpMKjpQlaCWaKkFPjEKMkjH6LpSNQt3CTHKdaT6mJeKTkdswhfEVXr7eQJclgFaxF9vw/K0m/EgT7XwvteCpC/VnGyFrka7btM2zGJqYpAIIU7j6hmVR3EgFSKLeXW+ROI5JvMvzg7E8DiqOyDH2544KUKPcqye5WoGqoCQjQIptCnaluBJPVQAQnKHMEBMJyNrj6E4tF/xs5h/4Idfboj+7GfwLP4TaCGIFijuF0KowQ/qWidR+3SR9rdtJvuKTyl6EXdTF55kQAWZwkJXOQ4PFEfNnyxCRNnT8boaeMwbuZErNy0Vqy8DQejk7LFLnPebGy+z1j/RL9kzA30jBrXgu47fABjpk4QvRIBZuGaZSiuq0BBdSkWrF2Gz6dPEPF19RaaNdRIXQpfJOVXXKThrFh2im57sw+K6EaOkXo5Ahbfr3XXwx/m2lPFbyriM0RIJqAph8VewbTNz+jHaIe1cesWsc2iAp46LZo/bN+zS1YLqN7mKLxJ4BTHSVzYTB9GYtbQkAMseQtFj96Fmr5dxdam5NX/AQ7OAnxlMnIK4usFnIppJ2dCPQrHUqUDYUdUHZjp+pVy1ZMDrP4Ijc//F6oGXI36fl1RPPAG+D4eAhRvkOU8HB3Ja7CqFbejRABVLabS9WSTDVjkdNQyH5UH5oN/TE3LNZpfIaAZwGIsnIQc6GPmWwCHspAHKNwiSvfcPtfhYK8bEXif9kbbFGApyU2+wG7OelEKZ2VrJEnZYKYzG+bSJ4qTnOowXqgo0lEsDMuSYQF6iqfkUiIUu5sC1r7eN8DzXhqQv15WJiCknCeSOWOarHvmhzVAgVOtQ1TQ6OxjNqnZ1cq3fIqtErs8u4KlLpWmUxQIaqCgTRTzxzLZ7U+KIJ8jWhIFOLSzY6D/JQI2RcX8LSh7Ix27e96E4ge6omrY7YgufAWo3SWAJfRo6JIAasRvBxcp/UIXwpRLZrHiAGv63JnYc2gffBEfDuYfxIxFszBuBvVYozFn2TwxkFRipW5Dkq6IDfKFlv+Zj5qBTr9nLpPLJWl5Qj7s2PuFzE5+PnmccEFb9uxAY8iLotpyzFu5GJ9NGw/eW7N1A6o1YBFoCC7MiwERmkYwTZo+LF6zUjg2mi9QxKXOjuYcBCvSeTxQmfN4wGJ+DWCRhgW8SUOhIGg3NnfxQtG90eyC+jdaxnOJDwGL757uX6uAVfzKbxVgeUttwGKlqQyTMF0SlP8jJZ4IV0GrdbKj9ERJy3Yu2i1ZB0x8DKUZ30J93ytRldwN1a/eD+ybJRwcyZ1gxbQF8LTKQlWKWYjM2TQ2iJJZCE+cVbMrz1AMX+IxnxWDQ/W84oc0F8SCaGtqHpLg2eEEiMlFFG8BPknH4T7XYn/vG+H5KCMmEso6P8XpKZAgD2NgiK51CJkKPBjLj4p90f3RmZQCBGaPhwpkDPARMKmh5nNuBU4j+6A09Sbs79UdnvcygYLtQMhte/pknRm+jOkJzbJs4h5GAboCbDX2KqLWz0nl8W1yZCyD9tTAatbcnsCQ9kIrfVQAmrkmx0gdF6cIyGWpwBZRIE7AMfXiEaNbTmY0vp2Mgj7dUXN/FzQO+S4w7xWgmhxWNcJhD0Jg8Npcsmk348FBnTODhhZV+1FhnVdeYnNYU2ZNE8DyWn7hXhatXobxMybj4wmfCrfFJTtm1stwMYaWJP/yhWb+GTrTgGWeFZLTy5FYB+SY1m5eL4A0asJoTJg5BdnFeVJPuRVFmLV0PkZNGSuiXTxgsWQGPJkul/bQyJtLjWjcSZ0Yba4o4m7evV3AkZBmAIvgpAghBmAGsBQVKFsqA1gsJUU9UzR30C8cFY1vKcoSsGj4SsW8qbNmauaUXmoVsGwOywFYLJKyL3EClkevwTPcBEWVgFQw7Wuk47kOAotfQG7WrajrcwUak69H2TP/AWz4FHDnS7dlZbGaTa3xXCpd1vcRtAg27ASKI6AYqZazanSLtY2DFWMHNB1Hdx5yMJIv1aicRSEjTU5CeMWoV4mEn2TgUJ/rsKfvjXARsKh0j+pJAq2LUh7BFGdnRCIFfeQYFRhJmQgEoqeKKfeFM9ITazEgoLJdptSAoBfI34gIASutOw707A7fiCygYKd216y5MZvV1zRK1GJRGXisKlJrQVRHN1XLe0rrZcCfozvT4Q0akwbFIwAZL1Yjs0aVAI0+lYjrFqhnHSrQZGqaaxU3OJwrJO9M3V+ZmIb43ktBRfLNaHjwMrgGfxeY85IGrDpYYbYCA9tWoFJDgDomJMYKpnSdzC4HHAYDWJ9OHIPJM6di14E90pmpiKbYRF3PZ1PGCHBxrR0X/vL9eMCS+mnpH19wBCdgyfQ/4T8cwv6cg5i7eL6IhOSiKKIWVVPnZ+FQUS6mL5ojgEWRce22jaiqr9ZUZQhZZYCfoqeFBo8bm3dux6gJYxVgTRorEwiF5cUy2FPnyImS5sDKgBfvOQGLfdn8hJvT6zIJjsWV5WJASg6LRqVcxkOL/AZXo2CAee90xQJYougmADQjEpa+9r/AIZof0J2I8p5oAIvkSRLh+1xaI9wKKTVMv0oBUScbEYXGoeJxYPXr/bBPyQAAIABJREFUODDsNtT2uhiuXl1ROfynwPJ3gMYcER/ZsZmE/NgpZKQmh6CBinUrHYww5Zc/MXwloLGDMQFnYIc1kiHXQAk5aNAi4RO4tB916r8UX6TFsaKtiH46GAf7dcPu/jfB9UkmUL5Jud4RzoLikBIBDd8iRMw8Mg86O/y8VAsL5SBynhr80lKt0jEQZaQsRAY/kLcRoQ96oyT9BmT3uAGBEZlA/jbttpgoIub26iOmrAao+GFdZ6ZOJQ+OOiK9Sj3HtCe63lnRmhvVZeKgTaaNkCECiuizaBaj88HnOHYwTTabqMOicCMEFz3QRsqA0jVoeK8fCgd0F067dujtCM99GajZA1gu6QgKOhUAkt5U4KBCTk7xcQJazKLQAz3DhgWw8itKMX3RPFmaMnmm0rvQWpvLTHbu2yVARd0POS0qkqtqqnWzxQx/pa7a8k+3p+GEhNPV+qsGnwcbtm0SsCJ3xe+t2rAGdR6a44bFeHXawtkCWARRA1iEZVai0uGpTJCjYR1wgTTXQ3IJDZceUSfGbxCM2R7Kw4dyvKkaXjeIEIE6JgcWC6rtTVEJvCwLQYyAVedxYfmGtWKJL6A1ZZJ8v6CoELQxO92/JCVO6aU5BKylbzfRYbUEWByNWGy7HkwHkLrm7I4HPnjQoDy+ixUzPEXAxvdw+Ik7UdurMxp6XIy6J34KLHxdAVaEvsBJlPqn/U7L6MVOqeuehwpaSL4ETQe3JMaXelcXPs/8mM4r4pfhhIJad8eMK30BHxY9C18ggJfsAD4bgux+N2Ff35vh/TALKNmoLLpp2kCdD63zCXrkNvgxEjC/q5JV1tsR5pO2LxEboHhOAiNgsWNLPulMTXMULKMAUSgAFG6E/8OeKM64Hjk9roH1DtcSbpLOTRFO2sGkwWw4GBABDt2ppValDjWSEovIzDEPGrScpCyjtAwExvxc4RedGXIgYt1LucW7g2OgMOk69Hy0yqLmLkJfWuUb0PDeAOT2ux7Vfb+GqofvQHDBa2r1gyjwdfWxyXX9sD7YjLTstrlgXd8i9bPYcYA1atI4ELC27top3I5wXyUFmL1wrohm5GomT5+G3Pw86XxmLJH6NDTYWsyMkR61KKUkD9WcFXU1WLV5HcjpcUkQTSmoT1NODiM2YFGscwKWDATkgSgB6B/7G5uYrmG4/pCKcHJZk2ZMQXb+YaElGs5y4CQBinmJ6TCOOAZUpqX1GKqNZ9nXBLS0Do5c4vb9e+wlOxRFp8+djV379oqey+TvdMXNAlbxYz9qqnRvgcMSscF0FBKnlsoIghxPfXChPuqHm+DGyncVAxs/QOHT/yRrFRv7XYq6J34GzH9duC96J6DwoFTS7Pz0R01lrU6bgGMvyKWQofxsCSX7eYNuUTj60hw2oAibBm46jyRs9mcSLkcv4QpJcAyic+N0PLkuThb4gLIdwOcPIbfvTTjc45uIjBgs3A6C1bJshkp9YaHFL5ZHrhGoqZqWObOoD1Eq2ak4px6PG2+E1Qwr+UN2eHpmFad5tF2yCGzMOYUhRfTCmRath/uTB1GYdY3YYUXe6aeMSSO1WiFuqXVeIuKGELb8Ilb5I24EIj7lUI8W8VHO3OkZvCh33Akov/RkjkxgGwrDpq3wZbaP63QU8PMT9J/GdOmrn7Ut44GuRta1cGHkxIxUGwK4uJmjP0INQMlWuN8egNw+16Os5+Uof/wHCC1/Sxkei5dbDfqUO1WDCaOnvEAQLFW3k36oQY1gQ9/7fDy/olw4LAIWjR+37f5C/E+RDKiwXrNpg3R4WQw9eRJ27tkt9kfkYJiO0emYznu0WNZdsr5ogU5OUAMLq4u6pgUrl4jCnTOW81csBkU31faWKMkpIjoBi0p3pkTQcQIW80Ud1s59e2TGjnolclnkEMsrKyTfBEvmVX6GrnmqL/G6OWVdMJhz3hMuUT/LSHcbZBcXiEsa6rCoN+MC8s3bt8kMq/rY6fvfNsDiLKFDh8WC2KOQOlF9XktfSu9AM8JG6bpiOc0KrC0AVo5E4R/vRkmPC1E34EpxW4N5rwP+fPEDTiNKj57wJ5Wyg8v6Mo60ulNIxQoQ1ADuKqC+CqgpBWoLlbU+ZyQDDPmAvwTwlgO+OmV9HVYO+KRXMUHmn4FsA2ezAhTzCBc+oHwn8NlDKOj9dRTc+y3gjSFA9ibAz+UTbhsQRWzjwl9/DuDPBvw0gMwBPIcBf66UTWyPaCAbJlwqSGdXFz0QHeaRk7IIVT6BAerF2IGogEbRWjR+2gMFQ65Gbq/LER3RW61zjFTphVXUuxEc64EgfY8VAb5cwJejYx4XAoEStTYxUi3rOLlWkc72aKTJyVFKfxLIUJEbjCo+VjhYqSvO+AWAII2HaX5QKwvnObfIxc6GU2PnlY5LdGOCnDwI+oFAI+CvAoo3wj8yGQXJ3VH8QBfUPvZDYOU7ynEkJ2c480iA9/F5L+Dj7CLBTokq/I7dbpo7ZAfjImtyfgWVFTHAmjcbO/buFt0Pm7nW3ShKYyqPacE9bsok6Xz0U0XdE9Oh+MWfzJjFcR7x4GUAizTpBCy2Mhc7c/E1xUFyc8vWrxLreppekMPmEiIDWLxvlO4K+vSgqt0qkxbIsa3futm256KZwdqNG1BbX2cDD/NngMfkTW5qTGH5DBgJ6Tss1gXs9ANSTl3NFLHpS0sWSk8aL2sMqceifRkfP52/JOpsZFwikbjygMVvouTxu8VVDF2IxCvdWRnSkaSgEXDvQdUBuTCD3Y0pssN7xKEbfaKT1mWEriwEVo1CfsadKHywCypSrkXB8H9FmDY43hz4IuwA5LEo4lHUUu+qwZ3ARUJ2A/4KoG636EKweyqw6n1g1mvAzFeBBW8AS/8BLH0VoWWvIbjsTUQ2fAbkrwDKtwMW3T67hIuSDRbIEfg1cHHdlywdoajXqDisUUNR3ONmVNz/bURfzgIOUBRzwxVuBM0pLdHNVQIFq4DNnwB0erjk78CyV4AVbwNr3keETg9ztWudULUS5Sx2c4dylD64A1yKTh0NjS31foBcc1ewEo2fPYD8oVfjYK9L4Xn9fqBMLRESkZAAS8AMZAM1axHZ9TlCK14HFr8IrPgHMO9FRBa/DmweDeQtAVy7gXAhAqFSNPorFadHDojNRiomwymcguJilfaEYOUBvNVATS5QTm+0h8S0QkRbNhJ1WwHlsjkQ5SQMLdo5kBwEKvcC7kNA3RdA/lxExyQjJ/UalN7bGe7B3wPmvQxUbgHcueIMEG56st2vbPQaCoCGCqCBAxTzoGVSohPbj9Px1LmIOiGKnPJi4Qg+mTgWU+fN1hwW+Ro1WXAwJxcz587DmEmTZNaLXBhFLepsFFCrBcbsiNKJj9YjdQc3IM1TpkN92bL1awSoPhr7KabMnYEdB3bDHWQbK1/9BrBoR2UAq6aR3hoIfmq2j+kRCNks9Ba6cPlSmSFk2QhY277YCZ+PtKQA1mS1pXzr7ArQOI/Ne/YNB7DR+n7Trh3iWYJcKbksri/MKciX+jLvOr/pPDb3T0Z83IDFSlQKbEKUR/giCmKcjGaHEwPDkPBWCHNtmd8HFO0FZr+KsuTbUHjvRShL74ayl34HcCF0IB/BCEcK8hYUjwhYEYS4rRb1KFRyRyqB2t3AwXmILn0D9Z+mo/If/4OiZ3+KgiF3oCTzTgl5Gd/FoSHfxaFH78Deh27HgeE/Q+MnaYgufA3YPx+o2ifT58IZUb8doNxOrsKCJcuDaC9FwNoJjBqK3Pu6Ie++bwFvPwTkbRVjybDYU9WLEWRky3S4Pn4IZcN/geIh30HZsO8h/6EfYnfG93Fw2I9R8NffonH0w4is+QAo3QQESwBfjXArdIdMQBcxyiKHQJssimp0jUyupAYoXQfvpw/iUPoVyO57Hbxv91V+ufzlgKceaCwHyrYC+ybBN/sJ5Lz0a+x5+HtSBzmZ30FOxnexP+t2ZD/zS9R8PgThtR9of1o5AMrhCZQjSKAmB8v6IAjIdEpQDC6ZJ9EgEegr9qFx/TTUzn4TjUs+hr9wGxCsVyI19Uy0C+MS6mgdoq5shPctQMOi9xBeNAJY/I64L8KM4fC9/u8oS7sMjb06wpt2A0CukaC15H1g5YeIrHxLQDe8/G2EloyEe+5HcC+dBmTvAlwUsZlZ6c2tAtbm3TvhCQTlFXb80soqrFizFhOmTMXoieMxacY0EbWomOd90jYHZna6o3U8uSeNp8Qpgh0Hc+rS6HWBDvQ4M0j9FZcKHSg4bK/rI00fC2Ax3YN5OeL0jwuoR00ej6kL5mDv/n32chmCpvm1lG8nSDmPzXvNAVZD0IcvDu3HtIVzBawois5ZtEA8unJg44/fE85OJ9TS9+3vHOdBq4AVr3RnRkyjKpsdNyLRBtm8gn4fuBsdBz5R2IbpjoKjrk8tMdmzCJFXe8OVfBM8fS5F6cBrUPN+PyB/AWCVqg0wqNPhUE8Pb6IT4/6FXOaRD1SvhG/Zqygf8SBKnrobRRnXoyTjUuT374D8By8UfUhFj2tRfP/XkH//JSjocTHK+3VBYa8LZQF2wdDvo/iVB+Ff+LYyT6DHTuqNBCiYbzLqzD2XKlHXsgMYNQT7e3TDzh43wfsR1xJuVFwaReSCLXBP+xsK//Rr5PW6AdUPXImaey9Fyf9chNzfX4m8B65Dcc/rUdSvOw6nfh27hv0QRZ8NFsBF3WGgkZtKhGXWTQBT68tF6UrkIEdJcbZ0HQKf9ER22jXISfkGPCPSgYINyhtpTRFwaCMw+3WU//n/ISe5G4r6Xo6SPpdLHRy6pxOKel6Gwp6XIK/PZchN/yYODv0n1LyZDmwaDwT2AlaeWiMqehOlx+Eo74/KKketK3SLWsC7dQ62vpSK5QPuxrqh/46a5Z+p5Tl+enSwQNfRNIylk0Na4xd//EdszuSA8lPkp/8ApQ//HGVZt8Mz6BoEB14ApCbBPSAJNVndUTH0ByjP+iEqh/wQZYO/hbIhN6P8oVtRkPFd7O53Bw788Q/wLfxALOKjqBbhWcRVMbAkb0qO8EgOa8sepcMi58NOynV4e/bux+TpM0S8oQKbIo7xReUELLsDm95tOqThvghYeqKHjyhr+zD25R0WXRNtpGjYuXzDalmMzNlB1i0Hx5zCXBEJ28Jh0aSBIiY5RvqvokO+2csWyYSBWSbjBKy24kFcsWTQkjI7OCzW6aGifMxcskCU75wtnDR7hthocaaQmCC4oNc88tunDLDYzEcTCY8GWErOI4FSxOISEEKWdHeZ3TGyYIQ+3enNYd2HKB98B+of7AJXz4tQmHI96sbTlxJBoFJ1V+o9ZF8t4XF1amVA+RK4Fj6DnOd/gd0p1yC7R2cU9+mM7J4XIKd/VxQPuhn1j90N/9O/gu+pX6L2kbtQnnEzSpIvQ0XfzuI9teDei7D7wetxcPiv4Jr7ElC7XXzNk9CpN+PSExuwvFx0vB3RT4ZiX/+bsbFfNzSMzgAqVwCBg8DhtfCM/zu2D/w29j/QFcX3dUFtn2vRkH4bgsP/BYE//Ro1w36K0v5fR3GPr6G875U40PsKbBl0C8pGpgHbpgNcCuVzyWSF2HdqHSCJSJRK1Pl4lbgZ+rg38jK64+CAb6DhLa4lXK30U9krEf38zygc+s84+MB1KPxDF5T3uBxVg74B95N3w/Wnf0bd8LtQltEdhX2vQFHPK2QdZ/GA21H79/sQ3Pgu4NkKRCoAX71MREjHY+ePKiMPsZ6m9wp3IYJrR2PLE/+FNf99Fbb0ug1V054HqncqYI0S/L3i817aM2c1Dr46EEt+fzN23N8dW//3cvFWmt37GjT0vQQY2AEYlAR3chJK+l+OQz2uxqF7rsXBe67Ent+1x74/tMP++zph1z1dsPY/r8DW5J+iYcZrQPV2BFCKRjFa5gw3LcKbByz6eaIOi14JaCkuYER3L8WlmD57Dj6bNF46IX2c01MpORnRZRnltenRJtZIYNIhjRvOggM5v0FObe22zWJ2QMCiNTqt2+v8XFup5oEJWIcLcmSxsgEs2ohRJOSA5RQJmSduUkHg5QwhAYveHeavWiZuawxQmbitYCXAooHJfseUU5uK8NsUpWnbRsAaP2uaGJBytpALumkRb378vgEqE5t7JysWOyzF7jevwzo6YBmDG8oRVLCGxc2tWxxM0i6LI20dEMwHcmaiZmRP5PTqAm+/S1DXuwtKht0O7+KXAM8+NZNGloq1wzpg63MpR6gcaNiK0LLnkfPnnwiXUTzgchT36yqOAmv/9t9wvZ+F6LQXgcUfAKvHAevHA8tHIDD7WdR+1ANlz/0EZQOvR0WPy1Hx4FViYV3x3C+BdSPETQ4tvL1wSZClLKKX8gJ5X8D6aCh2DeiOjWk3IDQ9E6hZAJQsBKa+hAOp/4S8B6+QJUy1w38Azzv3wzPpCWDVu8CGTxCc/zI8I1NQ8+TPUZ/eHXUDrkJ+n6uwP/UWVP0jGdg2Te02FPbJ/rQeK6a8FsDysu5qgZxlCH3UDwWDbsLePt1gfZAMlK8ASpbIyoGiIXdg1++uQG6Pbqgb9hMEXrkPvs8fQXjRa8CGDxFY+jo844ei6vn/QknqN1D5wGVw3dsVpb2uxoG//RKBDSOA+j0KdMjViV2azGFKcwjbT+U/d8zZ+Dny//wb5N5/NUrTboNnxrNA3VYl5oopC+cOOWy5gao9Ig5m/yMZpW/1Qumb96HwzXtR9+ZvUffYN+AZ1BWe5PbwZF4F359/Ce8rveB5dQAaXuuL8ld/h4o3fofyN+9BxRu9kP98PxS9MxyhLXMBTwF8aBBfEIrDUouuFYcVBh3T0Z0M19fRLxRtr8ihiC2T5rKoqKbfd+pk6LSOHANn4MyuOnYHc3Rgw3nwXkuAxe/QzfH8FUtBPRMBiz659udnix8qgpExP8gryBXA4iwh7akIWGZpjhOw2BW4IHnjF9sln+Rw6D9r4ZoVKKuqlMmB/0/de8BJWZ7r/5wUE0V6ERF7ouZETUxiTDnpMTkxOSdRpGxfWKrYSzSJgr1gS+wCikgTpRdBRAGV3mFh2WX7zuxsny2zbWZ2r//nez/vuw6EWJKT5P8bHWZ3duYtz/s813uX675ujulYkPCBtOtc7EMeQnFeR/949Bve352bS+Y1aHFByKM8cQtpboG16j98N9q26wO+/8f/o9e/CVhVKei2/+2gOxeMh8WnABnLi7uUPb86q61WajwiVbyn2Bu/V86156ks42TVje6hfAqgp/5Oyn5Dai8x98fcYcuRe2eHa9GSr/Zdryj0yK9UmDVQlSm9VJHaR+XXnqvwo7+VNkyXcjZIVTlSXYFUWyo1lEkNR6SaHVL1WmnLk2p6/LeqGPMl1Q4bqLqkAQqNH6K6p4ZaYTEa83HVqd3nVhHwJzNVdEDRF6/X7pTB2jf+dGkxNXwzpXUPqPYPv9DuX/ZW3cTz1DDlu9KS30sFS6XwTqkB1YE8qSVHCr4rbXxSrQ/8QmUZp6gqbYCKRvZXTuZ5qnoyU8pbLUWDpmIQaXeAjzds8Zk2AD9sEsnt0zJVOHaIcjNPleaPlaqWSVsft+YfOSN6Kyf1LAV//xNp9h3SoeVS1Q4pTKyuSIocdtbkrjlqfnykilMGq+a3n1F45Inand5feVN/K+1+w2VU2+ud+iuVmOiv20LgeJqlpiPS5mkqn/wTBa86WcH0wYotnyKFt0mxMkEPbVKbGixxwhhWSeUHTPhPh5ZJhUulQ/Ok7X9Ry9SfqiKrv8pHfFGRGy+Q5t4q7ZgnHXxbOrxWylki5S+WchZKuaulPW9J+z+QaoosadHeSaQPF48b5fEBa/prszR/KaUk+w2wbPF5gEX7KwLWAJYRIhe9rvd2bLUmEJwzDwOAjwMsPEL4Mt49Fksup7jAxO8oZ8F6enPj2yqpCprFCqhiXXGBi0uLPhKwHGi5ezftuDg+1ECxrl5Z8rre+mCDqTb4LqEdhH/c7ME7Lv99ez3O+XjY9KE76H/GjpIR7lRpdYW5oIAVVhaABT2kqZnkmttCImAdtc//w1/+bsCybAqpZNgAdmKQIOFFcTGwjGpdhiewSR0L71Hglu+qcuJZCk8aqAPDP6edGV+SYDeTGUJV0wK2XumHx5cicKv63Qq9dotKJ3xZjcl91DCij8pSh6jmsd9J26ZJNbtchoyMFK25TJPLS4t3EJwl67Rb2j9P8eezVJZytsqH9lQw4yQV/v4iRd+bJYWLPTKoK7mBpW8Uh5LD6nzxBuUmDVbp6NOkZ38jLb1W9VP/W4G001U04lSF7r1CWvuYVO1ZGQTTkaYhYI471w547pJ2vqDGP1+pionnqDzVuWb513xVrcvucvLC8ZBaO8mzOs6STQGjBDSYWF/7jFEqnjBEhVn9pJf+V9p5r9pnJ6tw9CDtH9ZXgfuvlNY/L5UjOxOQCMiT6cRFa6mXcHEbSqVdS0ztoeaaM1WX2VMlqb2UM/Z8Nc912mTQDjrbqQ/0LBKrEmJVNjsQ3vacKu/9kSpGnKCq0YPUsWyKO/eOoDpUb641wQG8ejO0mtuk5gappVrqrJHaCq1hRdvTGQqkn6nSoT1Uc/0l0puPO7UGVEihZ5huPk18edaYu2oJBpj/Rq0gxkemhAyBo4e4/HRU+aEis7ASAavZEkAukI7rwuIqLC3pogiwAEnd0wYMN4jH3wIs3u+ysIyU6z6PK4kltGn3DgNCAAsF0E17t6u2pcGrevXcvc74RwIWoOYDFseDnMzbH2w0axDAmrX0Da3b8r4BbCIw2bF5QOUDiTsZTug4T++t437G+xvZ14qGOgNIk09eutDc0vVbNyncUN9l4f1LAMtMaqMRRFyz1LceE5ruWFiB1N5yxc8LHY+nI2JtyuEOGQHRLgF3AAg8zS7z1lIptZRJlbvEXTU2/08queH7FnyuG3WqCjP7KefaL6luxjXSoZVGGO1EtA1vEC1Ar8KDVLqiAalwpQLPJKky/VS1j+il+uEDFb71+w4kGnab+iccJPhEdufyeDlwi8hfQi41tUysja1zFP7TFSpPPU2hpM+raPypalpwrxTYJyGVYuU26MujktAulWVL025UIPUs1aQPVMctF6j9nktVMPEMFSUPUPXt33NZr8odUsxJ/EYiEUUhJfG/adRH3CIFNLc8q5K7fqLiUUNUl9FH+SN7KPDQz6XDc4w3Bi+Kdd4cddlRGwwIrIGtap+RoeA1g1Wa+UXFJ58vTf+Vyu/8hg6mDNKR67+tDjJw1XuNZ0UhekuMVvGUV7ggektrTPEGLN4iac8C1U39jQ6P7KFwZl+VJA9UzX1DpW3zndsXa3ANWjEcmORGfELH6oi0/TmV3fM9lV79GZWPGqj4UgBrp4ER+yVMDzuizeN0+e59c7sjm3Zac4/Nan1+vMpHnafAMKzli9S26lGp7pCFBugezZawoWiQYvVxVggelUkoIyLX6pFZfcCyGBb7di4hOu6+S4iF1dQGjDpLCOIrD0pyFq5aboW9xIX4mcA2bp3vQfzVQmZIEgCLn+3p0Rkox1mz8V29OOcVQVyl9GZf3kE1d0KrcDAHEEEKPZ5L6MvLHAtYKCQAqGQIASwaWKzfvtlURxOBCdDwY1mJ7x8XrBzO2in+1Xl6f+MFwKprjWjDji1dTTMYL0p2rB2YN57/EsAy1w1hXALn4cPSuicUuOkbxsOqyOyv6id/J+W8JsWLpE46H4fdZ1lIpLlph0VThljQuSDBbdasQGufUO2TKcpNP0c16UMUHtlPpUN76fD4L6t2epZ0eInUSO0Y24QU6N2RcYktrd4gteWq7u0HlX37t6yEo/Z33VU28nRpFkJ6BL9LDVwYL8qaeHJnp10U07MRcRXo9wBQc61Utkd6/T6VTbhIZb/7jLm8dS+Mlw6vk9q4k0Pe5PNQtBtNmaH9+QkqHjlYzRn9FBvTR+Gsk5WX1kN5t1wirX5Qqs92WmHtDeqMtlppj6urdMQ/5PlM6zxSLDVkq2314zp863cVSu6uhtQvKjDhDOdOYmkytqbiimEErYEYYZvJ77S/lKrQ+J5qzPqsWkefoNYJg1WYNkR7x31LHcsed+fWVGnJD1joBMpxP4jJ4NgBAtANzFqpOyBtekG5N33LpH4qh39RgTGnq+3FDKlmk7mG2MkWTmWNW1yrSYoekXZOV+l9P1Hx8O4KjDpN7VhYdftsvEiYYWX4T7PCozFjxsPXQ6DRrnfZB2p8NlUlowarNr23Kq47X9E1D7rtRMNmWUDr4GbKOfiAhfKH//TZxAYWVszrSDa4LwXlZVawS60dHCs0nEyaxWOC26KOxiz+QiExiw9rCIAxt7AF9Ql3Ll3Axcr1rCn2yfu85YOD3Whi7ZZNo1Hp9HmvGrgQzIfwiZXE5/3tcQxFJcWmaYVLCreJJhVkKjkHPs82eTKeodpqk3aB4W5FyItft8A+hds8EsEp8ecP0ejT/8Txsm+OBcKt75L6fQ4B5mClk5rxx4PzOurhjdtR7/0Dv3SzEhWmJhYScZ91fzbAoichLkPr1Mul9x6WCpdLJescw7r0fSm40xExiZUE35MOLzOSZPuiOxWZnqXQlB8rZ/TpKkkboOLhPVUwtK9C11+q9pdvkPa+JrVkS/EyxUQjAK9WjRXCTGFicCdu3K/Dc27Wlpu+ZX0Oi9LOVMEN/yWtfsLFidRkfQ0JOcGGwBt1llWHX5qsNsaPbba2SzXF0saZqrjrl6oY3kMVyb1V/fgI6cAS6/Jsrgb4AurhloS2qO2FcRbzgYYRyzhJ9RknKHjtaQpPGyUVEH8KKGqWJ2CHmwLQYNW52kGXfaQsJyy1BKT9q1T2l1HmTjUnf0HBpJNVj+ZY7pvOjYNQikVDmREnBAetbLPaXx6p6gk91Dq6mzrSP6P2tL4qz/iyqqEn7H1TiuBKuQFkkfsTjTgUd3bcTTKg1pyV/oEF61T3wliVpZ+q+qSTVJHSXaE7vintm2XZR8BNB+5UAAAgAElEQVQHPq0BA4RR6+BTIO18SaX3/UzFI3qpbPQZaiOGBWBF2ywpzHzFOqDkCPuWa2uAY7WWAFatFNispudSVJI1UOH0Hqq4/lxF19wvhRFHDLsCcFw/rzaObTBPKe+ysAMWvmfZdC0Ub5GzuIqCZaJx6ivzjgYsxoSHLWgkmKOoKeR1UQUArDc3vqOyuiqbMkwbf/uGNh5g8R5PwMS251lXTfF2y+QRxEfyGGDBbaKA2N9O13H/A4AFDYN9kIn8ZwGWjzOMZyJgQVYFsHiu3uC0sfi7f37/dMCihM7DCCd/u/5ZFd/8Tbv7x9M/r6ZJpyj24HfV/NRv1fD0MDX/ZZhan7ha0adS1P5MuuLTJ4gyi8ZHr1Tln/5LgUlfUvHoASrOOFkFGd1VOG6Qim79uoIPDVV06SPSkXVSY66kcpPcRfOI+6iblJw2jw51RhusT2Lg3WnKm3mLKqaPV+j5caqaN0XKe8fdqeFLoRflP+PUx7EwMb/NUTXKgM0sItnEUfLfVssLYxRKH6Sy5L4qfYAmG3OlSJlTRiAoZ2ARliq2KvbSNQpknqmG9D5qSj/JYl9Vky+VNj4htRyyZgrGsaaeME5jCucuW7rb9D6jaoT1zbG2VUlVe9W5aqqqJp2nxjRAs6fyr/+a2jd5EjvE4QAq0sXEarBuSjYZYNVM6qXmUd0UzfistU7jBqC3n5WqybI2OX+akbSyGlcqws9MJxdAB7oAwrBUf9CY+OWTLlBDRl+VjzhRh0YNUYysbeNBOw/mhcXyLKbV6LK9O15S4N7LVTKilwJZZ6pt+WSpbo9EmzaunNHnYIxzDWDrO9a2Cz1wPvVScIsHWKeoLu1kVd7wJcXeekCqZzv1rs6T80cyx5aCVyNnv2N/OJfOmyluvwlWybGABa0BC8sHLJtiXrAc9QMWHhYWT8pPDhTmmRvEntzogVQfWlj+ez5g8TscLwiWxJnIDlJ3Z8TOgjwrvOYzbm67YDiW2ae1sGCXm4W1yLXj+lcAFucIIAG6WFhkU33AwkXFVf3XAxalGFzF5nJ1bnheBbd+Uw1pn5fSuqk987NqGttLoXEDFJpwmmrGDFRNZj/VZg6yRV+ecZqCmaepPPMUVWf0VU3yF1Q9opsaxpyk6B/PlV4eKq27Rzqw0LV5b6dWjNr9BmvR6SuaWyltZ7vXfohAFgu8RqrLk4o/kIrXSflrbPGqucwWMi6YWYbGA2s0VxULAtCyOBujzU3VYrNss1YK71B00W0qGXumCtL6q/Dun0o7XnIdXAAHgK2dxQJgbVH7yxMVyDpb9el9VJfRW0VjBqr+6d9Jecuk9lILbBPsNcKzTWpvp161DwZ7k1/+1BZ2ul/7Fil4y6WqTuunxqwBKpjwZZXPnyxVUjIDAZOkAe4bgIzy6fsGWLXX9lEks5uaMz9nYNvw8JUuI4jl1kG/P6cGwV2OO7m5Kx6p0U+SGCkVAG0tkrIXquneX6gmY5AqknooN32wGubeZJYl3WtsgRlwurNQW7G07WWF7r7clEJxI9u7AAsn3C1GwImnD1guHgPIYIWGzcLCJSwaNeBowArjWiYAVhdc+G4Grzxttvq44/b7NwCL9vR/C7DYAK3hSc/72UKsrM37dglriW4y/mL0d9ZlIXkAZOfs7busptKY6AAfbuaKdW+ZK2eL3stOsh228fe4hAAW/CdA619lYXHsPAEsANIHLNxYqBv/csDi2tvkZiI0lyq+8Vnl3/YNNaR91gArPrqbImM+p/L0E6xFfcOo7mpM6y6UFuqTe6j26hMUHv5FsxaiWX2lMX3UPqq7Om4cJD3xX9KuqVLt27LJ3lZv6gA4LkRYmi0JDmRRg9hmLJ5mL1RucS3cK/g/bdUucA65EdAxJjUA5F18gpheoS5uiCklmOSJa8XF9MY166SJQvsutay5S4cnnq3Dmf1VeM8PLYNnxcqm7cRGCaKFpfJNap42ViWjT1dVam8R0yu57SLFFv9eqsN9qRJdYIxX492EbWLbgbkLzVK3rBnHQ/awqdyKmcvu/pVKM05VI9bN2LO1+/5h0pF3pTgxvYgDLUAbi4sO1DOSVD2prxozPqP6zBNVOv5sdcy7SQpuMmsTyw6sNZCxVQHThJQ/Jg8LxP3N5QMI9oWsvjI2bazKMs5QbXJ/laQPVvljI6SDy610yIpn2QYASslSa6m09RVVTLlcgeE9VZY1WO3L75TC1Gh+HGAx7Qk0hqWyTWp4JkWFmf27ACu+lnjg/r8bsDhvwIW9JFpYPmBhAWFh+YDDQPEzMT4C7bg6xJGIPVn2rQUFL+cOYR35D//7vMPTWbCOMAqxE+1zwGTa3FnmDhKE55gStaPYBtss+JQxrGMBC4vnn+0Scuw8jwdYK99Z++8ALORUgJBWV3i64RkV3PoNhdO+oFhaN9Wld1P42r4KXHeaiicNUWjiEOMwVYw/VxVjz1R47GCFRw1QMKW38aPQaq9JOUmN4/oodu8l0vxMaR+dng+YtAicERYxJTwI0PjBYRfxcNBFPZ/pUuGvRqPqbIdYiVyuk0ppj7UZr5IZk6BAYmY8fGdzP7yiOCgiTFQAKy5UG3aqZc0U5U44T3npg1RyL4D1nITCA117uDo8OhusB2HrjLEqzTrDzi0w+hRVPfxLaccMjzvWpBhaV3QcSQAsypLYDqEoCALmEFo2K+baWFXtV+3zE1Q09ksKJ/VQXdYZ2nrjD6X9S6V4yMWLDLSI+TRKxe+pfUaSKq7pp3D651WZ3l0Vf/qO9D6Ez/12rLYgvUXkaDEdLttpmj8O3DkeL4FpHW2sgHzpPSqn+iDjVJUmDVAOGdgtr8gkdOCBGWAhtwOvqtz+VjnlcpUN62GA1bbij2a1cpwsYCyHDy0s51Th7rNEuwArsNUACwurNrW7uYTxtQ9/CsDyLS4HGl3g4S2uYwELQqgPWHZ8HnoDHIAcn3d1f/Msu7f07dXG7Dbn0+sm482KLsDz9wnwMGUAJhYw7hKAxeuB/FwDRD7bjtWe8OA9iodprvpJg+7/LsBijAi6Y2HBtMfd5Zj/TYDVaHc102wK5xpDHLUGgu5NaV9UzU1nS9N/p/Y3Jiq84Ho1zr1Oja9ep8ZZNytCtm7uRMVmpKrqwSsUvOMHqrz56ypFhSHpCwpl9VbZtUNU//gV0ppHzLVRJGhWA5oMCOu6tuioMjjVCNy5eIcHWMh8mC45K41gW9SC7ARLWXyABBPG4l8eidBlPXE/PGkTT3nAikzg9mANLL9fgVFfNapFcMoPPgSseIvT32LpeYDV/vJYBcY6wCoeNVj10zKkotVm1biANrEyJxjo3EIXICaeBUOc+6sBFjOUB65emO5EfzFpnboRPdWQMVAHb/wvaftcc9U6kRI2KxItfADrfbVPT1Fo4gDVpJ+k4rReqnmCfpGLpOZCA3K0oCjvYTdI8gCajKNzn5x5BTGXOnQWmI0TkjNbX1bt5F+oftTpRjHIueZrNgfM7SZ2RbUBmUuC/y0V0uZXVT35FyobcbLKxp6qthV3HANYjAaxMnKTNjKeFeIDFtnXrZYlLBp1Shdgdbz9iNRA1viTuISfHLDIEgJY3FQ4GrNuEgCL+QMzHWsFC4v4E4CDtYTigt2MvO9x+f7KwvJAMlhdacF7gIptkB0M1FZZ7Ixrwpz1923b+H8csDjPfw9g4XIhqtZWJ9Ucss7PFTddpnBKP9Wm91XTgz+TtjwuVb5t0iWq3ixVbpOqdjv+TcW7UukKaeds6e0/S4vvUsPjV6lgwjnKT+up8oyeyhl2ovImfEUdc29zQffmgKkyhOHWcDXx2QAki9v47aEAHaQrDZUc7YHPRZl0nrtFmtvu3CxIn/jjxUqwCEzlwUngoAJhxEXqB5c9oIrMCxUYebpK7/yetONZW/jQH9qjnY521MHC2qy26ZkGwKGkXirIPF2ROTdJ1dulGHxu54YYaFoQFwsDYUAC266dEo4o4Whja7DOsHhwCw+tUP0Dv1Xd8B6qu/pkld30fesqpHCOK/Zm67jE1BMaYKUpOGGQqtN7KS+lv2qmj5GC603/ysLbvkw8AG3qlyzPNk99wsV82LUZel5Wy8ilh1co/OgIVWeeqfLhvVU46UJp5f1SXY6bFx1Ys61O7JBC7M2vqmbKL1U6sodKxw/2AGubqVtwKV3W2YEW14axAbh5tYtIMgUL6+k0FWYO9ADrPH0iwGIT/vU29P94CysRsAyofQUG25a74VGndyA3x+IzWA/EoN7d8oHCbc1HAd3xAAtAI9Z1uKTQtXZftEBPvzzNpGVqGuvt3NmVXROvczNWHu/RAOP/FQuLc8HCojbTtyD/LYDFZLIKe4K7dfnSmqdVOek7Co8YKJQP6h8dIeUud+J0nR7z2PrRkUYn3oJwXZFb8FhoZVukA4vU+cZtKr3tW0Y+rU/prpqkk1Uy+ky1vHy9kMil+2+EJqAsYgtqkcUjtuL0dckE4W6ZwB0rzSRq4upscyqkgEBjhwMs4z21w+XyZWkALaf6SdgUOmEUxYd4QAa4iycrOP5C5Y88RYH7fuQsrKZCs+DQ8cN6M3mZ0k2KvjRaxZkDVJnUW6FrLlD7krudexsnlO5S+JZy5zsGSLhfXm1lh6vHo+EAkMF2ubtatjJvnRofT1LdsD6qv+pElV/3LWnlVKkxz6y7TgLubAfAyn9PrS+mWiPawMgeKhxzrhoW/MFVCXQ02KIyi5Nde1any5S6rjMW/CZuwoolPOdZp9ZTMPCB6p8bYw0hKodjEf+ntOhPTsans9FidHYd+GKXhXW5KWGUjB+slpW3u9KceIMtQhuLrqC7AyqWp8MHbkoNUnCbmp7NEBYWlnzlDefpaJeQLDE3HFxJB0qGT7YRf6AdYvl/5xWY5BQTXcLXly62NvF0Xz4KsBgou35Ou7y4POCpK8w1dw4LCT6X70radfOAx6wlu3c6sALYIFFCYyDYzoLenZNt/QPdXpgbnS6L7AXceR99Kx+wCKbDw8La82Nn/vkAiuU1VXp743oXI1tIb0XH22poIoHlxXJtMXlzzN79+//h+Hiyb8YNlxCKBuRazg+XkHMGyBgjPks8z8DYJ9My1/0N/f2HctQ3uxFP4g5h3KH6AmukWnndZQonD1IFkilT06TctVY+gwALAW0nleZ+JnjuuM0ssCaXuqdItvAdafVDCt5wiSpG9lFkxBcVGnaSQn/8kbR9pjHnEeSzTBaBKEwQGJ8EWYydTTSqXS2xZgOurhMHu6JxL4NjDKME9wkJlEqpsdRl43B5moutLbqihRLM+MMLpFfHq2biuQpkDlKZxbCmSY0lRwMWNIHSTYrNGK2ijP6qSu5nahD0bbR4V9wJOTuLCkqDD1i4osgeO9DCNcICArBwfy2+hH5U8UZFnhmtmqv7KDK0uyqu+ZriC+6SKvdattPKg7DUWsNS4QdG6gxMOEuBlH4qv/lStb31ZyegF484lwtKhaetRSaQvZLWQFYRwHKTyQEWwGrHAXhU71HdjGsVyjpXoRG9VTbhy4rPv8lVKsTrLePa3un4VD5gEcMq5AbkA1b91qMsrA9jWB5gefPWLGYfsJ5LOz5gRRvcpP9XABbxTVw1VMGqqyyOBccJCwsA2Xlwv7mFAIeziRwYMGf5DgsV7SuygygZ+NlB4mGAJoudz9nDAyx+9gP1nxSw2D/k03fe32iAhesKYCAQSPcaHgAqYOH/bD/8A//4OMO+eZINpBciMSzAEmC20pzmpq7zNEs64RgM5P0N/QPHkvjVbuAz+R2TVYnkSe8+qeDN31Rt2kBVpA1WxYNkjVZbJT8xEZPU9UTmiEOBMxFMfo/kCLHP2NnomJfvVf2sO3RkwiWqTh2o0Iieys06V22v3S6FdhpLHtCyE8Wjw2TBOPJcPsDQaby3q7kTuRM3UcyQZz8d3NXJICKIVyjVHnBAuXu+tO0lFxzfMk3aPl3aOUN65yFp7li1332ZGlO+qFDSF1R2N7Gj6U5vPu5oAbaYjU7gAAv6Q1Vyf7Xe+RNp8ytOgti0x+Ouu3HctcFyQHs0YBErgpPEZCK2ZNeTQHrZJkVeGG/KCS3Deqhi3AVqfuk614MQd9TcYUpQaswlhIVeMhatq0EK3/MLaetsddE7MK8s3geAY5seDVgGXh43yxWpe6YY8bHGHNW+crOCYxxglYw7R62vXGNWkMWTOts8dYGoY/RvnqnKKT/7GMACqIhgfRxgQWs4xsLqAiwXDjhqvtvq/z+0sBIAq6E5YmoIWBBQG16YPVNr399g2TF3L3Kqpv7x8ApgYbcdLM538sEeY56FjKVkFp2/2o4DWGi+f5yF5Vs4WDIUG5PNBEyxcmCaozrhP/4ZgMU5wGEDXKFpAOiAJU8sQnoXAmiMh/UqtMXjjuifBlhUsHE3VsthacNjKr3t68apglsVenColL1SagpaHSElFhwi7SJwy8AYS6ebiRHrIuiZgF9zlZS9SiUPDVNJ5hCFR52iwowhCjzwW2nvEkuTd3Q0OJqnt+YsFGUqM8R9yCi6/SGu1xpvdoRStNGJp9TlOpZ97hJpy0x1rHxE4ZcnqvCBX+vQ7Zcp59ZLdOS2S+1Z8IfvK/+WS1R6/bmqn3iKYqn/oaaME1V693el7TMcYMVcts+NPvynrYrPHGMxo/Kk/ord/xtp7xumrmAuI8a7ASfdl/2UuSvG7XILASvKa6AWxDzAQhyw+AOFn81SVcopahnZU6FxX1LkhbFS3kaPp+YheHu1VLJR7S9mqHjMGSpOO0XhB34t7aa+s8IjlzJ4rpkFxqpzKbDrGEFX3WeFLhbEIr7m3C3LQDYdVtWsW1WWdY4x/wGsphnjpMA2yyRyfjDVsZrUEpQ2v2SAhThil4WFWkOXS0jcKgGwnMHsWRq47Z5LaBbWsYBFJrnBBbbR1z/WozDAYjE4S4KfEgGEhcMC+8QuocUdnRUE+PC9pW85Swl6A9nC0opyG8+uBentEyuJ/UEW3XpgjykY+K4SCqcNreTBuw7Y89Xd73yX4/w0gMX2KCPCwoGHBcEVwmtFVWWXZfXPAixAk7HBcmTf1oxikXNhG9tazMLiXDE8fNfZB9GuC9T1xj/2Q7cWax6KHdPomNsbHlHxbRepYlQvBUb1U8Ujv5Vy6EsYcH0DreTCWh5Y0Jk1YP6OSQt7jG54O2SWWiulmm1qWXSHiiado7rR/VSedoryJ12i6LpnvS4pNea+EFLw4zAWsuqk3Rf/4XDiFiISSCOJoFSxR9q9WFrzhOr/kqLaKT9V+Y3fVHDCBQqOHmIKBMUjvqCyEV9UWVJPFSb3Vm76IGWn9NWR9J6qzuyuaFI3NaafoJIp33GWGB19oFFwIHYA8J82KzpznA6lDFBZ0iCJMp7ct6R4pSN4MgIdLRZkx3Ly40cG1kS3iUEZYH2YXDAXuKXWOFeBJ1JUnXmaIim9FBp/lloIpB/Z6Ba1DSocqGqp6B21vZCq0nFnqCBtoKrv/ZW0iwxhhevyYxZWImCxpLFGKVvFNWwXrUKxBgw8rYMO8b4Gs7CqX71NxVlnqyq1r8omfElNM8a70iuoFd7xd2UVN89Q5ZSfqHhkT5WMH6KWlWQJPy1gOaa7I44mWliuL6FNeuo5/wWAxfKBIwWAEKdhUWJhdTHV8w5b+AGoMXVNz6VjcfKdYH2NVr+/3hRAX138ul5ftcwC8Ix8F2DxZZscnx6wfBBGFJCOywS9cQlfW7HELJ4S1CWYt+ziGFnnvwKPT4EVHClPzpEnDVV9wPIlZsisQudIjGH5u+jat78h/w//4Gs3BtW5cc490LuPWilNKLOXEMqrmPo/rlV9a7HFisiAMYheDs+BlblSjlllJShk/wiCY0lQ4Jz9sqrv+56CmX1Uk9RPJVkXKLb4bqmBUgyo/eTSvGAw65zaY+IDgIGBAlnMSqmhUMpbp9jSh1X+8NUqvelSIz2WDe+jI7/rofyhPVSc2lflYwapZsIZqrvmHLNcQtddrODt31HgjstUccfFqr3+dDWlflZ1mSer6J7vSjv8GJbL7ll2EbetdItaXx6jA2mnqCRliPTsaItrGXk1Rs1bpAuwwAyLU3k0C5ugxDr8Uh1OEKOBD2J55q5T0WMjVT16iJFuyycMUfQlAGuDy9jafR1ArLLGEW00Up1whvLTBpoQXxdgUcNnbYVcCy9CgLjpNmG443W4mkYAixA8txpYacQizUpsOKSa2b93gJXeT4FJ53mARWdpzs9Jt1ies6VI2vSiqib/2JqIlI4bcpws4XEsrK6gu0cc9UpzikZBHPUBa6pU/+8BrNZWN/9wbwgkE6PBWkL3CRZ8uNmx/nF5bL1gXXlE1IKKgN5YvULT5r1qOutoVCHFYnPBtzi49j5gcWP2LCzaZ32cS+gDhmUiC/OFRDL9CDk2vpuXf0QcP49jAcu3uP4ejPBxBuvKt7CWrKGD9WuWXAAwERRMBCwfoJl7/zTAcjdyi2Q7yd61T6vspktNaK4sY4BCj/zGiagRI6IExlwPxyKw7zKilpOjox4Dh6nhWV1wqKJlUtVaRaaPUPGo/goP76vaUV9S04tjpeI1phcF98qsGraFkRPDvERut0kdKG7iFlXlSZsWqebPE5U3/mLlj+yp4MgTVXjlyaarVHXzpaq7/wqFn0lRZPa1ir3xR8WX3Ce99az03svSjjnS1heltXep+enfqGLsAJVk9FHhffCwiGEVuVZU8I44HqgeZVvUPHOc9mWcqsLUM6Tnx0tluEq1jrHd2WjNNshkOlfMik8MamwMcAMtfsVJJQBWW61UsEGBv6RZ4J96usDE00xCRnnrJSwwq7AEMEJS4Sq1T0u2Rqp56f2N86Y9qF2EzCW0ILCXUeUK2PS1/RkJzWJn2L64/jRRo2ekJUqspjBbdXNuV9Hos1SZ1ldlE89T0/SJUvl+12Yr7lrVQ/W1OOGm51V91w+Nh0UnasfD+hgL6//PgEWepx17qNMC7Gix02wB0CJOQ5caMnQsYICGz/EEsBDr23skR7OXvKEZr80xwNqWvVcNURJSnkVGTMcHK14TAAud9E8KWBwhmUxAY9rsVxxoLFtsTSiQNOJxPMDywePTvnadJ9n4lmajfVjA/XXXsp7O2tkFeV1JCcNkGyU7lC431Vki7r3/i3+7GegQhEKjpa5EeutpBW68TFVpA00hM/Tw/0qHFznqArxt4xj5gOTsRQ7WLQMkTBxmccUcazxs/K3G2RNMLTM8rJca0k9T6eSfSVtfklpKnewILpQJmzs9H+vdhktCdX9tjrRhtoL3Jys3/csqSx6oysy+Kk3vr+AN31DkiTRp1QPSrlclmr6WIB+8xbXpqsxxvQqxEJsPSMEVii26TsGJZ+pISm8V3Q/T/UVPBwrhPcCT/daYNRWZOU57M07VkZTB6sDCKtootYfUgfQzjpYnWuhbWL7lyTxlkljAnWwCkxVU45UsYekmVb8wTkWp/Y2LFBp/htqRPs5ZJ7UCWCQZKNEpl4rWKPZiqhFYj6T1U93DV0h7F7obDIsDQbrONtsXYIWVZdcVyysaMwvMlQjF1Wqcf2oMAOawKS00zL7FYoyVySebSxhBqyyEZDL1mU4mpwuwNj+vqsk/VGD4yQqOHaJ2I44C4o7WYBQTk3tJCLrbrABBsbDoRrRNTc8lCQurBgvr+gsUXzvV0UWwbC3e5+6EnIrNqa7Z7pZS4kLwP8Nf+NZHxbD4jN39PfDAOrXFzLh1xFUdaTChOrJg6L0vXr1SJaFgV5zG3xfgVR9pMo0oOtggWYwbmV10xJJDHMdR+2J/PD3g4+9oyANYiAcSSH9/m6M14MG4s/SC2V68DHIqbhllP7hlJut8YL+amqin+GvAshtZAsXAB62ubfuWkHds/t959T/DcVaH6yx+Nm/h61ZzSeCdAHxxZbmNi3+ujIn/8LeVeJ38v/0jr90s1gEIoSZQf0ToWJXd9E2zsErTB6rikaEyeVsoAgCWpfIIMHu79V4xlnnag/dsQrSrDTXRpmy1Lb9HhddepPrknoLdnT3my4rSoj5SpigESQDTMo3OheES2H2qqUTas0gl9/5Gh5P6q3FUb5UT8L3hmyp6ZKS1hCLGYz35oqVSK6oLKH1WSU0h514BAKiXdpZK4fVqXnW7NWVA0yl4/4+lXdOdpIpx0lnIja7paGCjIi9nKXv0aSpM76fmR34t7VvspIQ76l0+Lu51p0b+xFds8LhcmNJtUZwxGsLGjaVv9X1mvW1T7YuTlJ/URzXDT1Ld6POlGTc7xdDOsAtgMp7xKteSa/p4lY/9kilH1N/339LOV5wCKNI29IrsoNjYuepwySyGaOU9jCT5Vpw6HGyasqFgDzCjQrpfTa9cr9qxpymCpTduiFpmTJAqcqSWVsNYWPR23Vsofn7RFEeDw09SKOs0RZf90TT3AT9C7X4HbY7EAvX+UTGZielBFynfrvrnRqhodF9VZ/ZS5Y1fldZQc0otISAJ2HtT6BjA6oJB5pj3OX8BsMgYAywRC57Pn+MW9eGDxonygYDFZPOTzJ23aPkugIVbSJaPYmgCzFgVBLuJbzGs7NbPhpWWB80ae2HOK2aRUQyMNcbnWLx2iMehG/A+f/drCQEsGromNkXlnPxjs312dljmkcwlMTaUPwFIXNbq2pqufVk8y3bMcvKywfzuPfiRcfDHIk5yg7Xq0WJsQwnHT4YQwFq5ZrVmzZ1jLdEALsCVwnF/Oz7A2diyL+8Y7NWwIOE9q231sOLYvx37Pf/AvfHo5lLgrvGpGnKltx9T6c3fcICVNkgVDw8zVrapiFIuYoDlGoDaONg/Hx6fO1CIPgSaW0UW0FyJ96cpNPnnqkvto+qhX3DNFIhjRfIVY7vmahKkpn07WUjGsc0UHiqm36DDo05XdVp3tWZ1V2lmX9U+myXtWSrVZJvFA5jGO5sUJVVvsRevgJjOwci0WNStRqrfosiKP6h6AnspwqMAACAASURBVFmxvnKlOdOsQ7MLTWMjRaT2oFS2XrFXJ+jw6CEqotAbVjy0BhRVsRQIbRtguViVUQssTuWsHDJzLFojGnTGRA2kOY2AeOEGlf85Q0UpfVQ38mSFR31NehVtqf12Y2BCx4gDEnQvXa/2Z7MUGH2eyTLX3vlTacsLLqsbp57RFfbaQvHvFZYJxGJkJFstoeFibIThYWdh0TrNr/ALWarNGKCG4SeoYsKZ0rxbpcpcdUYdbQXIPRqwfqwPAevOLsCyG5bpFTnz2gGWR/MAsMyKbrYeij5gVab1VujGi9W59nGp7qCXcHD0Eo7Xn7/2g6USmLEODOw95r03B3mXBfRpAMtfD/53WaD7cg4aUGH1ACZIxmDdcCV9MMKN3H/ooAW/iV8BbgSh0V73P2OgdQxg+efjA9aSVc7CSgQsOyY+yGL2HvxE4N0KrJctshgbbuvaDe+qJBiwOeCNin2Pa+fGh2vnb8X9mAhY9jf+DofPAzh3A3RJBcuelpVqyYrlmr1gvua9vkBzF7ym7bt3mdop+0x8/k3AOhaY/ENi3/zNo31YjDfxs/7nvNdubjlhYUX0IWB5FtZRgBV0FfteuYvddNkIO0wYELdd725qlhts7XLp8Ao1P5Om2oxTVHnl55WTPEjRBbeaZruEBYQyg5dyt+xaXEJBc+NsFdz0Y5WO6GutoSrH9Vf1Az9wPCsaPZj+N3duz6yBud/hFCBYmMZ7YgYxCHDDKjZbZ5uKzHNUOXKAApNRlJhu5FKC/EwkW5yASslGRaeNV37aYJWP7KmqGy9RnEafETTTyaBxnQEDSlc8agNGBmR2cxj5SMxcXl7bUV6gTrA9X8pbrsrHhiqQ0sOszpoJl0lLn7D29sgP2gJiH1QVBN9X63NZKh93vgqvHqDgzd9V9O0nLcOHRYKEF8KFdp0944HzcJlCR7dgSA2z/QUOGmB5Fr2j6qeSFR51ququ+oIqJ14gLbvPYobI9wC6jiKLamuxtHW6qu7+qbmE5VnIyzi1BuofmUWGjEaQdRPZQQg7Z1y5Rg6wmp4dodLM/qpI6Wfk4ihlXfU5RukAkKjTBJq4dGzJ+bj+SXiL0Sb7h/PPxuzvACwWKOPFQsYqhiSJ6wVYEeDGbaMzNIFvAyOuYlOj1r//ngEHLiHuGTEd5JV9wOJGwgJm+7ZUsOa8w/00gGWWlmcZmRu5ZqURNwGsxSuX27GhOsH5+w+znGx8PgFgJXDE+D7b4aucB+ezc/9e65CNK/jqa/OEhZVN9tSTkrbPJ7iedgz+iXrHYKRmusB7Y2H74edjPucmsX8Wf/3azU0BZm+LUxw1CyvBJeyysBIBy8XI2ddRO/xw7ri7KXdUJhtB5qptis2+SRUZp6p62IlGgLSsWOAtE/Nz2UWyYoBWq0ThbeiQ2qffptCYC9U2arCqU3ur6IbzpRW3S7XbLf6FxWIXp5U7uDtBImnc54iqsIjIOna2wSOqNmIpSpuB5NMUGtFHwcnfl/a8aJwwXFPHKSPOVC+VblN0+nUqSDvLspsARsvih6UwjS1wj7FW6BNDM9m/BiziSYCnMfohwVLqgsRN835zrSom/1jVyd1VAw/rhh9I77xkx9FMBpJxw1Vur5Cqtqpz9vUKTfqqSkcMVOHYC9Ww8F6r54zFwopYvMu1WQcTeNpc8OaqhRa40GbgAdyAV8y4ddo7T6X3/1KNo4eo5sqeKh1/ofTWkxYf64g6jXbXtosmFMXSlpdUM+XnKhveUwj4mR5WeJeNOGNtd0iOoculAwigWDhrs4NqiPLtijwzUoGM/qpL7WcNVNveekKqRxCxwUILFsO0JAGwy4I/FrS8ye7fjb2F9mktLBaQPT1LwXcLqSUEsHANkYzZdeiAuZXAAvtAGhhVU2JdBhyrVxrj3cDKOxZA6dMAFsRQiKC2rpjKnBsvHqCybSw9hPOQf8aqwwpE7ws+FH/3QdJ9sesi2K/+PwCM/zzq+Lz1y/nZtohfNYS17r0NNhaMA/slrgfNAWOHI/xYwOJDXSflH4X36l8//zP+6zEf41eO1QGWzei2BMD6hqrS+8liWEcBlkc45MvMFzbOPErYCWuBk3UdTbz6tTYoE4fVvuReqyesHdHdgvpNxIT2z5E6EMKDu+W5D7gxxKCKPlDrE+mqyjhDLekDVJ55qsofvUrKft1lH21yu7IXgr3Eh7CqKEhxEoGu2ofOzqbr3lYm7Z6vsgd/bYqZaFxVTv62tPt50+uC3oEsMGvb4i0VB9W54F7ljbrAwK0IbfpXbpMq9kkRulETD6KdJ/k3wBY3yw2AuxFw/sTE4EJBzo0oFiuR6raoc8EtlplrTu2p4LCTVXDr5dKWBdYBqDEa9hpqENurlmp2SsvvVMm1X1Eo6RQdST5LDRxHaLtinZVqsJYNbU6dwW+ggZnHhfDXuYEUoMUNAeRqkhqz1fzmPTp0w4WWCKke2l9HJl4qrZ/mOF5xLKwWtZhIDmVPxdLmmabuUEbz2DFne5ruewyw2KrdQJkbHi+NQ+DcWeimLOsBVvtTI4331ZrSW+FJ/6n21Q85d9iIxK7xAdYd2zTLzWasXRjP2uKEPP+b+Wen+uldQhYBD38KA1gsRACK+FUXq3vnVqMrUHHREo8qp+CIFixZZOU4xJOILdU0uyYiWGneIX0sYPlBd1zCYwHLjo2bToJlhstJ/AgwBaxIDABglAcxIri0vvaWxbMSAcHO1NueZxHZuSeMAfE5G4PODssAcp4AlB/TY7/E+GpbqKX98Dy7tuMPpPdqNzB/MGx+OGvWB7kui8r/ngdMds7eMRpgx+PGN/sYwOqfEHTHwvKyXQziRwAWA+cAy61hRyItU+ydZ1R67cVmUdQm9bLYRWzdn2XieXEUM80oN6WsTmJIR9aoaervDNywQnBX2t6Y4rTkLYZEa3IHUkxeKARkv7jXYN00d2DScpfB5AhbFqp92T3Kve5CBYadYDGxyimXSjuftf6HfN+MEBt96rPLFFv2hPaO+oqKrjrJALx++lgT1MOdirZH1KgmC2BzFHbOIFWMYC5WBTEoxiyuNtKI/A5ghd5R05NXq3BoT8Uye5vmfd59w9W538nWRDqbHTeOWFy8QQpnSxse16FrvqLQyP4qGnaKGv6c5YLxHQELodNz24EmVAhiV0jzOMAyd9CfEMTRuCFAl6jaqJoZacobM0T1KaeoKvkMFf3pCteVmpKgOPUF1BoA/y1SpFTaNEvhu35pLjqAFaVrDhLJnU69AqsCkLT54Rm9WLxUI0ICtphmcLtif0420cBoUh81XPtVxVY/7ACLmBwj5d04ACubTxw/Q2g3SG8sGU8zKblg/OnTAxaLwX+wCxYrC5FMI0F0AtzIxaxc/7YKK4NmzVLsjHKB1fQtmGeBd+oOCdgDVlg5/oOF5+8jEXh8l9CnNbAtAIsAN8fBg8+zoG3Re6BK49LswzlauHypWTtYdwTfAVjGmbHCVfO38UkAwbKJ3vj5Li1boBwIXhrlQAAjYEXp0v4jh0244MNSOe+A7aAT0N+umXcOHihyjTh3Ayz/a8f5nP8n/9UfxwTAwiUk6D5VpTd/XVXpfVSaDtP9SilnqQs0/y3Asolk/9jdsAuw/MQf14/uOPsXmztRk95f9SNOVFnmELW+frdUm+cKj6O4cCz9BkXj5eo4skpVD/9KodEDFBzRXaEbviG9/YJU71jpFEG3x1pc0N5yYE69waYLB2HF1OhoYR0USPsWqOaRq1SY3FdNIz6jmuTPqfKe7zlaQ8sRy6OBN7iFdsWbq9S+9nntmHCRCoZ/XsFRvVT12G+k3bOtTKU9GrHSYqiYhkem3YWVhSVKgoKAPwoFnaZ+Y3E2VCH2zFPlH76nyuSeasnordKss1Q1+w8WjO6M11p7K9OyiqI46nXk3vWKDt16qSpTT1HFsL6q/P2PpfenWdICEMB+cbV7BNmJr2HZ2ZUwsHQZQu5uHFuTFMmVDs5TzYM/VNXo/tbVKDT6K6qddr31QURuCOsQe9UpetFfMChtmu0Aa2RvlY05MwGwwrbQnRvkrEwDLc/CckVCNOiot25EHU+mqjb5FDUP76+6a7+uGDE55l/McZhszXtGoi0+rgmnw9PeYEm12Y3BX51/D2BZbMVrjcVmuWViQUEWBZQoaKZMZ/6KJdpXkKuGjnZVNIW1/J23bBFj5SCzAvWBBWzuFCfOYR4LOAmW0qcBLAuGmw3gwLCiplrrNqy3JhvQG4ihGaCGAhZn8y08zseOwQ7GGzfexOpKyJCaG+kBFt9l/eBiHjySawCFK+hbdBs2f2Cyz4y+vx8fVI56tZ27dzBE2tqcQcK+sAANGAH3mMugA+pdx+odN78nvsfWjolheYB1y8WqSu+l0ow+XmmOD1he40A26FtY/oHZ4kAXgLiONyjc5AEtRgCqQNkHanoqRbVjhiiSdKICyX3VMvNWqeKQScO0xLGMcBzI+FWqM3+1qh+7QsHRfVV85WcUuo74yotSDZ2iiSXYjlwJSpzgt1P/NPDgIECeVspPiqXCtxVbcpcC13xVlVeeIGWeoOqUzyl0/8+k3ahH5Ft4mW2CMXYnx8rY/br23/E9FdOAIu3zKrj5P9W85E7XJJb4mTGBvXPkPKNwn1iYxLgALThu3vaaI1Jot1qW3ydq9iKj+qk2pbdKb7xE0fdnSG0linWw8H0dKywyFBtgxi9Xzr2/UtWo0xQe3lt0ENLsW6SKvUY0ZeGxGyoHsbbMGsa6g9feEVW98dsJZiPIVydVbJfee0I115+tSNpJClzZXfljL1KzL3HDuBmfCscMEIw6JYzNs1U7GT0sXMLTFV862XWVtu7ZUFLIIDvAcrEBQIAjoswKHh+E3O2K/jldVcmnq3rYIKEO0rH+BSlSYHQMrh+13Dy6MoI2th5gMfc8J9vKoNifnemnt7AM7AjrmXXvsBC3it0jEQPjHStr5hvztTV7r8KxVpWFqy07yPsEoilCBuD4DocCcNrxYL0lWkgfA1gbtjkLi1PlYYvVNui25ytL4Lbt3rvHgt9Wv7jQsc/pU0jRNcdhwOPF0NzGvIPzt+cDlgeEvM2T7/EEgN9ct1Zz31jQVXD92uKF1jLNFTw7A94dmTveo/71NtjS0qKqqiqVlZUpFAqpsrpK5RUhlYXKVV5VaWoTEF/JuvrgBHjxOwx+zplr41up3Tg5JpTdlRtzpHWPqOTmi1SZ1lMl9IyjlpAegvCwbAHyWQ+wuo6QGcT7WEc+YGFpOL4W5n0cocDGQ9LrtwrlzpaUE1WT2k9NT2dJR963BR6xmrc2C05bjCX3HdU+8mtVju6j6mHdVDvxbHW+/oBUQ3bQdUnG5WOC07yUV1w6Y3pzbFAciLtUbVF07VQF77nclDXjSSdZLWHlqB7Kv+9XitE1J1qkNoW9JqrEvOJugRavU/2MdJWN6q5w5udUmDXAxdGK3neMdCYlp4p3ws4ZBohQ8K86W9TYRkhcam7GygtJh99U0dShqho9UE3JJ6k0qZ8qHvhfqWCtleG0d4TtekD1wMKB9W+gG9iiutduU9WkC9SEHPXIPmq97wppzyopAvPeteVysTv26PllHS7xUO+El9Xa1iRRPbBvqeqfHKnyoZ9VZ+oXVEQc7Y4fSwcXm7vY1sQ3eNj0dycYqZQ2zVHlnT9XWVJvk0h2gLXDugeZxWO3K+cWOvcNKTPnqLcq7LKkZdvV9GS6gpnnq/Cq05V/7Q+lLa9KlP5AgLWvAz44uZAq6MSNWgTXxZ0ac5Zok52nH5xOcAlxtQgQE4cCeFhkAIGzAF02wlwtL8bDYvHdFD4HhSBUX2vt2QEm2OwrN6zTzsPZ2rRvl5auW2PWF5YHxc7mDrJ/MoPeyNkC9GNIHgDxNzuG4yiOHgtYbIZt+E9+Z+FynATnN276wIL+NFXFLcTa2rRjm+tt6GU9/f15h2Qvtg3PFebvWDxtURR/HWABJu9t3mQxOuJ0M+fO7uKJATK4zYwRx+GPGd+1nz3Xjx0BNAAWQFVcXKyioiLlHsnTkYJ8FQfKjI5BM9v8wgIVFhcZmPnjxzHxuYKCAjtmuz4dHVhY3Ku4EwMoOdI7UxW47euqyezzYfEzgIVI3zHEUQ7SJgyzyAOsLgIpv9NayXoFEtahiUGROt+8X4XXnqem1O7WgKHxkaukXa9bQbErdGYqUufWJuVvUe3U36p6TD9FkrpZ15rGx1KkQ5T0VFj2zZ2N8364K5N6puuxsbg55vAOdX7wjI48cIWyMwYrnNJHyjxZsfT/UGB0T7Na2nbOlWKFitEQ1ho/YNlgndUZsVJrH1D1jeeoYuR/qDy5uxFrY6ufctnC+krH82Iw7IoT+QShGVPctKgTD0QPveGgWlber+xrLlR9Wi81JaN4cJ5a5v7eybl01JmVx0JEewybySwNFisJg+0vq/TGbygw7ESPCnG+tOwxqXi31GZsKbOFsIc4lBiCiGaNyCyDiJUc0T4tX1r+sHVcbhlxgiJXd1MhWUKKryveN3FFTHg7JYsRMR5RqanCgKVi8s8VSO5jTHcDrBoUWOmc7dqsWeyOL3uuNe6t0/eod5Z2+W61zrhBpeMvVtHIs5UPpWPdU1L9PqfGamAUE7E8gv5EJu1OYIjjwlZOntqhlx/jAQhwybAOKGEhUEyx8CcGLE8JlN3gFtJ4AQ4WcSLAYMGqZVr2zltauGal5i1fbGBBTCenuOBodrtNSgcux7pfblhcdg1Nd6vPW7Sgi+lODIv9J4KUv1h5Jd7EgwWdV1hgAXHqCgEs4mDQHHbs26Nwk0sA+PsDCHj6gMc2/L/xypOxo+3Z5u3btHj5Ms15bb4RRWfNn6vlb64yhVQfrHzQ9b/rb4vtJx47+8FSgo1fX19v1hVWVmOkSYgqoue1Z99evbP+XQMotsuzrj6s7Tt3aN++fUfJSx9NHAWwjolhhR6m8zMuocd0N/sFs9/nlHh3YO52uAOeGY9LAjcJX9WZp+2OPf7esyq6/TuqSOquxtReqrn1MmnVQ1LksBERyPLZVmh8WrJP4b+kKDSmv9pSuqkpqZvoo6dFk6UqOiXTBQeuUlwdTbSuogAFrlOF1HZICqyV1jyg8JNDlTPuLOWm9FRdVm81jztJDaP+Q6VjeinvnsvVueMVKXrYaWsBrCw0nu2AbNAkZervvVzBpJ5qJLOYfppq771a2r3IpeJjVYrFI2ryABqQiSHfTPDbeFcl1uMwvu7Pyv3TD1WQfqpi6X0UvPJEVd/7a2nPfJPKQZECsEJGB9vCIiJuJli6n4a1tU8mqTBjkMlXV6QPUM3kn0gbnnIB67YKNbTVq966POMVdijWTH9DlF0JxNc6gcC1f1H4Tz9UVUovxZJPUsXw7iq/+8dGtaC7MzErv8W9u4O6FvFWu7j5FQXu+qlTaxh9mothkcWEt0ayoJNCYQeUNoZRpxnGNi13C5G4Okcdyx9WyS3fUTD5VBWlDFbtU0lS7kKPW1Ztccyaznp0aVWvRlcIb5UEjuplc8p2wLVikFxKnwVFwNy3sACsPYcPHtfC8r9nX/ZBwuavy1JiZWE9kQUEsOx16UKztgAs3kPUjm7NzFkDGs+CYpsAqW/F+YvYX9h8NpHpDimToDut39mW/3nbTkLg3gcs3m9qjmj73t1Gu8CahAuGC4cs9NbdO03DiqwiNY/sr+v4bHq7GBTuL2sUgEOyGW4Zrp/Pt+Jn6Bu79u21UiS2YW5j3K11vs/vjDuvtv692BTnkPjgJlhTU6MwDHnPEsWyw+oCsLC0AGJcXmRztmzbqn0H9tt7/jh4gIU10JRAHP2Q1lD+0JXSQT+GZfqkDostC8YBJgKWCzbaxs05JCLlAuGUjph+077XVfbI/6iU7FBKL5WOOlPRmddIdbgVVWrv5G7s+XUVRWp/7Q+mYVWX9hm1jvqsKuHu3P0zda5+xNpUCZVU1A8agk7NoX6/VLpG2v684m/cotAffqjirHOVkzJAoWvPUMvkC9R8xxkKjzlRJZk9VHzvT6Xt06S2gxIWlnUV9uKSuGPwwSqzpfl3qTjrK6oY2Vc1Sf1VNup8tTyeJu2b7zhhHUHTYscNdH4h8Zoqi40psFFaPVWBe65Q7pizLduIakVx5tnqBHwrd5gUTysKrNhYXYBF4wJ3++vEaoRYue4JFf7+u8ob0Uc1o09VQVpfRWjysekZqZaaPlqhNTh3mDgU34MHhwpsxQ7pvRdV/+hQVWYMVN2wzys0tLtKJ3xFEVMZfU9SlYuheRMcGxFLzySLIyFpy8sqmfJTFY7speKss9S67G6pepcDLAC3E9IrNysP9InpmcUIB42mFs1OEXbHXAUf+LVCaf1Vk9Fb+dedJy28RQq+48asuURxhdWiarUKae6wOxcUE4yXxHGxbQcMvLIIWDQw3QEsMluoG3wUYCUuKn52AO2sDYLodIY2esOCeaZBhQ7VayuXCjeMgDzsdl8Tyl+wuEKs3E8CWEvfXOkUEDxaA4Blx3BMwNk/Tl79n21ho0S6+X2LZwFWAB8UCSyt5Wve1KZtW3UoL9cUVcn61dSHLc7FK7/D64K6QInPqrffMrAjLgf4MYaMHzwvP0bHmEBSBQTRwsdKAhRxFc06TKB0cE0sA+kBF5ZWZWWl6urqugCLrGcwVK792QessSyuLqDFezt371JpoMxA0K4zPCwOwAKxxKesVf2TKrv529ZcM5AxRMEHhkoHV0rNTg/LgrncAzzAcnkRIMZjHzNRSUIYIwrAcvK6lulA7rdkvepenqTC9NNVPbKvFTLHn06WQhulWNDavrM1m/BNtdLu1xR8+NfKG9VbtVnd1TS2nyrGDFbpHd9T+Pmx0tt/kXbMt89p0wzFFt1pzG0kUKqu+aqaRp2n4v/tp0NJp6p16uXSinHSzP9R9IYzFEzro4p7fiRtfUaKHDLWPIvBl2ghFtZK23p01Q+8q8D9qdo/4jQFkweoKuVUhbK+rHqamb77mFS1QWqltKRA6iyWorlSeLvp22vW7Wq69SeqH3O+KkefoX1X9dL+9HPVOv0a6cibUmO+LWRoGDyBLcLUuIV4ZGZI4GK30ktwnQIvjNeW5HOUlzRAjTYefVR57w+kNfdIJW95rlWOY9TX7pHqtrv3Vz2owN0/N/evIfVk62a9d+QQhZ7MsAyqWo6Yy+ab++wap4w4kshYNgWlrTNVcs/lKkk9RWXjz1dk6X1SzR7Hm0OFtRMWXNTY/mb4kDmldX2cNmAUaiM7VGcF6nUzx5liRvt4wg+9VHfXZdLiO6W8FQ4EY0VSLE9qy3FNMapypQY0wJpcfM+r3Twqi6ZOE91Dk50Mnh/D8omVdm4sIDN1Plz8LAgegIW7DRP767AFDb0BdwtrjUWMmgPBbkijgCFhCMDKByyzgj4hYK14a7WBzfw3XtcHW7eoxgMsA2XP/bPjSqBfsH2OEcBin8gn812soumzZpqVRewJRjpPQJEWYfC1CKRzPvyOACDv4dYyVnDOsBqRjgGYcTUXv7XKaAzwrigMp+AZCxbGPY070OjCMsQKQ3Oe2BQWm7mffqG5G1pzDQGscDhsQMY5NLe2iJrMwtISi2lhWfFd3EYsLioK/GvCazdsK+IBFrsJ50mrn1TR9d9W+ciBKhgxSMH7R0gH3pS4u1pKnEDn0YBlw2f0aodb3PiwvODwIDoD29tuhq1NUvVeRRZN0aH0c5T/vyebMF7r1KukvFVSa4lNbCaK3TvbIlL1PoXfuFM7r7tI2ak9Fc7qqcbMHgqm9bNMW/COy1T7wC/U8NCvFb7n5wrd8HUV0RA0qb9CV/dR5VW0HDtH5ZN/Jb03VSp9VVpyrWrGf0nFwwcoNOWn0qbnpPo8WwgEfLGRACti6M3RDsUbm6TagLRxngru/R/ljD5TgRF9VZ0yQJBJa+7+qRpnTlTzm/dJu16ScuYruulp1S+4Tc2Ppapy3DdU87sBqr2qt3KH99bu0eco9PRY6eAKqfWIOpsDpvfeHJcaicPZvtEXIxYXU6zZSyNYx+YCxbfPVf4Dydo2bIhCKScrlPRZBcedqpJbL1H5k8mKrXzQZT4PzVHnpifU8MaNqnpyuIpuuVQF1EWm9FZ5aj9ljxykwgdHKr55jgys4jWuaJrrh1trdjfEUdzuiNRUKm2epry7fqwjIwbqSNZ5alj6oFSzV6KjN2VKxoSzKKSBloFtR1Q01TDSCrFBKhkaDii2/lFraFuWepKCqd1VNW6Iam/8tsTYvPmkgaP2zVXHe88pOP9uFbz2iMJ71kqNQccl60T6xqlRYHUw0X2XkEVIWQ0cIjhSnxSwDMcAAw+AcJW27NphbhKWB9uzNP/C15yAHkoOXrCfBdUFLh5gHS+GZXEaP+i+YpmIEc2eP8+C6BQys51ES4ptJrqCZrUkgCtrBarD1p07tHTlCtveS7NnmbWFS2clNW+8ZtQEgNfAacE8o2sAUihNYDESo3v9zeWa/+YysyKxJHmuWP+21m5+T2veX68V7661FmaQSX0AZ3vPvzRdNPzAzeV4PMfAgyr3goVFxtAHLM6xtb3NBd/ras0txbIKVVYYYBHnAtCwuLi2bPNDHhagQvZt1RPKv+ZbKr16oPKGnqrAfUnS/rUSGSJjIDKNGVJ3mQArK71wV9rRkom3Uy5ipMOIx8Bm9bfYnbJ1zZPKHn2hDv5PH+UnD1Hwrv+WWDRYeJ1NXnNVwC/uVEuzV6vkpRuVffOlCozqo0ja59SW+gVFUk9QbdZJqhx3ssozeqg2vbeaiTNdfZKakvqoKnWwcjO/oqpH09QBe7tmixT+QFXzbtf+kefrwO+GqHjKb6QPXpbqSolk2vxyDGs6/2IVRBWjpg/CZVOROra8qJLHf6sjY85SeVJfKy2pTOqrgqRTFZhwoVrv+4U6Hv9fa3R6OOssBUYOVu3Qfmq66mTRlebI9V9R+NVrpMNvS/XF5oZG4w1q65AilE92njH2oQAAE79JREFUASZK+0itwH+KeORBxr5Wqj8obZmv8geSdTBliIFP09jTVJk6QMVJZ6rmpm+r9v6fqm7qj1R+58XWALc8vb/KR/Y2oM8e2Vd5N12m8mcnqHPHQgfW1AISv3PJXhfj7sSJg2uGDhr0kAJ1bn5eB//0A2VfPUCHMs5X3dKHpFoK0MOW4aNcGvYWoA/g2ywzJQ6X0WtBHABSa6xYKl6hypeylD3hfBWmn6Lq1EGqHjZY1clfVs1131PjXb9U7KErVPPH72tn2pe1+Zrvq2blXyS6M9EgI+7aj2FhMfmxOLi7Iz0MsLww62VbrDuy95lkMQsp0cLyg/WJq8pNY2dl8XkkZLAkiAu9Mm+OBfIBQmJGCNghXcxK4LM+YNn2/OzgMSuXXxMB67WFb+ilWa9o1uxXtfH990TWLHE7nBcPAykvbuwv3q5teURMXDQC+cShcAkBEI4T/awXX51pBFgSCFiHvAJWz8+bpRlvzNMrS16350sL52vaG3PF68zFCzRr6Rv2dz734txZJlQILw0yrU+q5ednX55uWUUfsDgHjpOHnUNHp1qbW1RVUam6mlor7Od9LCiKt3EruXYHcw/b8ZcFA3Y9cRmJc7E9zrcbGfgYdz2yWuFSRde+rD23/rf2jb5IO0Z9TdkPj5Gy33Epfia03Xe9TAAD6UnB2rjiDjIvqXE1ZrPXyRnyI8feAjm1WC2b5mrnrb/R9oxLtD3zYu2+/QrVvTVNqnOAhSQLlp+5FO2NUmuFLfDQy7fo4MSv6MiIHgqn9VVDek9Vpn1e5RmfVyDpBNWm9FTjyL6qHt5flWPOVf4N31LtS9dK+153TTqjxVJ9tgLLntKua67Q9vTvad99GYpuYdFWEU00V5Q6tnYhnVGndmIumAlkyaJ1Uku2tG+WKp9JV97EixTIGKzK5P4KDB+owPBBKhtxqhUo5w0foOLU01SReqaq0s9WKONshe/6kbTiD1Lxm65VfGudWZQG7riDnnVlkUKLhRF/avDIbCwi7jK0uy9zXYF2LFbztOt0eOIlOph0msrSzlAw+WzlDz9F+4b1UG5mH+WmnqSyzJ5OfSNpgIKTLlTOrT9Q9aw/SkbNKLWMamNnRA3WNNW7xKY52GmA1QpgUVmAFND2Odpx35XalHGxtk76kUpX0n36iJOF8agGJE6YKUwF875IFRtPr0PNUSYyf6mWWg5KBatU8vwEHbzxezqYfLYqU89T5fCzlP/bU0yZIv/KnipOGajdV/XXzgnfUuRNAOuQiTrGYy2Kx9q7Jj9AQCiYBcCCJR2PS0TWjCYTR4GKbwHZkvIWVYJlwOLwn3TUeeuddVqwaKEBFzEi4kV5xWSWnSwNC6oLDNnmxwAWnyfIvWTZUs2eO0dz5s3V+5s+MKkYW5wJQOUdor1wTAAB++JzPHyLi99Y3MSYyPZBe1i5do25hFicxKNwkbEQu2JUby43ywpLCnIsTxIKllRYulBzvCfuIW7igpVLzbLCuuLJdtg2Y7JoxTLLXHLj8MeO4zPA6pTaWlpVXVml2uoaV/8rWTaQukyyggTwiWUtXb7Mgu6cIxaWvz3Ou5sz2TlrGnzWKpa3TdXr56hixdOqWPOMInuXulIYNKYImlodmsuVu+HyrqwNnfuZ9x1dAq4MwVHY1ZSuoFpZqc7gPjVuW6WqldPUuOxpRVZPV9vuNVJ1vllYfJ44Dndplqnawq5JRHC3FQgHHx2n7Gsv1+EJ31HJ9V9TybXnK3Dt11R+w2UqvfG/FJx8pVrm3ynte02q2ya15ymuoOIEb5uLFM3drJa35qt6wYtq3vGOOkpzXIaRMTCRTlLAZCscstupmduMDE616x1YsFGdH8xU/XOjVHL793Xkmm+oeNKlKsr6mgpGXazCcd/SoXHfVu6NP1HFoxnSikekQ0ul8E4J4OykwBn+uXOA/fnNouLZlcxgcXuL3bdsjf3eVu/0vgo3SxtfUWjGbTp015Xaf/0PdGjiJTo84SvKHXeuCiddoPxrvqo8xua+YWp+/T5p/0rL1BlzPU4fvIgRTo1IQfyRSibcQo8SYYE0CKwtYalsn8JbFqt85YsqWjFNbcFsRSMVjpHvNdywIL03LZisRu605eVcffs77i1Zy2YyqLvVsWWuSp+/QQdv/aXyJn1bJRO+ptJxF6hw9DkqmnSxdk34lnZPGa7IxjlSON/mRJQqB48pbYuCeRePWRaqqKTY1Djh9+Bm4Vb489Udk/+bP3Hdq/83/5V3WTS4KsRUDufl6mDOIRUUFRoXCtDwgePoLX30bxw3Wb78/Hzl5OTo8OHDKi8vV3Nzc5c19dFbcH/lOH0qgf95jofz5bgJYhMPwmJhLDgH+E288oQa8WmeuQX59n22YTypokLL8pHpI0AOTYHj4cGx+Q/eI0sISZRzhBDKg/c4Pjtv+i+Wl6uwsNAoEIlusL8dUxw1w4n0N65PpEqqLZSqD4suxJ1oFLWXuQwaKXp4Sv5k9ALsXTPBe58FB8b6TqOVg9g9F9G4JpfxqS9XZ0WeFNwnBfZJNQVSFJkZYh0w5p1L4e7SmGwtUluNVH5Q2rNWHetfl9a94mIdyx6Qlk+V1jwrvTtL2rpEKtpiBc1k/trUIKr+WqwFfFhigZXnS2V5Ui0UCCxATAqyYa5UgKHmSS9Bu5v5gGtxpSZn9VVlS0dWmc653n1GolfgogelNx6QVj0lvT1Nen+2dGCVa2sGNYRGGjD5rQqSjNdfPy2hQVKjK+LOQLsn7/EdC14TV2JMqnOlI5uk3cuk91+R1j4tLXtIWjRFenOqO64NtD1bKhXtkBoDTgI6ynHAc6Iik/8cyRSiLwlSAIsYOc1r1U7TChqLhKXaUqkqX511RYo2VTpSMPZUQoyT4zXXzz9us8Sxu3mieeZ1EyLZE6+TwoVS7gZpyzzpnWelVQ9KC++Ult0jvf2E4mueVuP6V6WinVJLlVCS4Lqw8I8FLSY68ZLGxsajFoc/6Y9d4DafveybD1T+K3/j8yww/wkZku0nfs9++Yh/Erfnf4/twehmsbKQ/UX8EZs57p/8bfPqPxgDf3v87DPHOW6eAAVP3v+4p//Z472yD7bHOfB3H6z840h89Y+J7yR+jvHkGvLwx8K/Ronnxs/d3KokykwWqtml8WnFRBCVxg/cBZHSpbSmI2LcKjbcNTT2g0NU/30fsAAtSjUoKoaTZaCDJhRlK6TeKUiG/dxRo854vXGZmMgETqmqsQJYvAmjPkNebPSOK+R4YU0FTv64Jt9ZZ+GA1IDSaFgiYN8RtW1R64doSVMnP3llM2SqiLuY2J9nxQBY7Ms7P9u/ZTydNjsuiEzTCmomfC/GpVJqK3LgCFG16qBUud+ptzYWuBpMrFPT7YoYPSDaFlO8tdPWP/s7Hmj57/lA5b8eBVjIz9BNiFIbdO/pUkQmL1zsbgBk1fgZgIL02QTNwqcH0IIe/S8cOFeHyPVi2vhPu7T8g/lHyIDzR3YHkGyrdjceEwjkthJzDTe6QNYjTtpourutHbsBlgMu42vZOQBa3rWldVmkzI0fdBJauTWXuix1U7mztinDQmue6+RZGP4E93Z33JfEye9/IPG94/3MQkp8n+/5vx/7s7/Nv/XK9473SNwef2dh8/xbn/8k2+Az/nYTX4/9LuP2Uc9jP/9Rvyfux//5oz7P3/icf8PhnH3g4m8Am78d/7UbP9jDv51ClmwnjU1miPgJPzeqI9rkgRXT2RnB7pv+3d/bDAfhfeL/a+9cmBu3YSCc//9fO23vLrbj2Fbn28VSCC07TnM3085FGYUSHyBIEUsQfJhYaxzSMRv5bODBiHv+pllEb9w4LPvzy8JxvMQknZY26AHaZwmYzlPSem72G7LpF12sRIxxDOt+QDsOSQDjsO+ynIoxtJZiAKC75XT8Y7kc/1zOh28LB9WBHjqPvMqG8GIEZLaISQWA91WCAhD6ZqqeowJZkW2rDRokFigA7cdyPLHN5u8FG9D+slP5OOpGJhzYlqGOj2Zt6p6rOq940bB0dA0ASl3qRntF+GvjMxWYseaZhkFvuq+hLvYwr2Wybcz2nw5adDxKThvRzgVok18Z4U+sXPe+RX4dSFuJMKhLq3JjdKtYhccaVgDLbYK1a2zd4tY6NmlqNiO8Hp8X3ada+X9hryQQ6wU1fThGW+7Ct/UefuJGELbcDoKEI0ABE1yupAu9j7rkAS3cXD3f+L3n3uIj/M40id/zvEWfOO/dybu7oRe/vM9uB6gtHpM+7hPH9sayIITIEbdIeRbAadhiYPKIHYMfDT5gtVZ28CUN3R8DNYleuG6dJOC9doAIyjWyq+FfSiSjaJDLnuQJeNBY0QuYjWL/oQ9W4efr+Wl7/yiDtYIiilzUsAZNj8WNh8tfNQvIpkt6NFT+g4RZ9qvSO3zypTf1oo14oOvhDDYUKvl0PC/nl+NyOuyX8wtzY4g9hnug2CdK+akWbFA5FHjv87TvAdUcFs1LoKUfwPAxyEPQlbfBBw2RDeVkRRVY8/V3A6wEWKxlquEQws+toZZCL+OHcTOE0899af5vp58580wdx8Z4mDo3uvE5pyGX2493C/pECGu/HIT4etzpFiAzC31kpz91D1CxZMKDWOrUm63dLZIXZYmApVzhYctNnFtugCm0Q2OOH/9H3KQNzfD7SNpH4/Q8ttIkPIB2y91KO/uF1uyf94Tj9ot3yp4r4d2f534/2SjOmPLVlnuNg7CtX5bDDjXfvezoqNWoafQeBrg3bZkGYwCc2gUvle/VPTA9MbYO9aqABxNwPu3Cxl4MvbWlAY1Hs0Bsc6khAGKGFuZfLER8mEI/aLj37fyshY40a9LqlNEftSuY+XQOr+OAsst++b58X4itJRllX6HxY2gHsKRR1fBFz+UXwMZFsBneGYcvy/lwEnAxzS5aWv7pE6X8S9nYinzQoHjZ1bR8s2PNALX1PoMWp1Ro2F2/VgMYMKxGQ2TmhU4h64qsMfL1DMIC9vq4aRgdsBh4eZsx9XZYDuwL5FSM804zqOSb1a3weguwaJShL1fQyDYswIelAWwfoT0YsE4cREgnx3YvHbUNlBKfjoA/nq0hdrr38u88REi62+nkOYDF+/ycvAi7dYVOD+9+0AhYhB5xe5yedn7eyhs/aHGHVt5DN3FmevN7j3/rObRxidPzDL2kzXt3CUN7jbbFO8+hl7S4TzQC2TEAFApIfnXjaNkDwIOygilDR1a4r7YmkX7ZyQYj1BV36CkgnjQ0i4LiQI5bwfBAbspx1cr0XukRMI7H0PAD4ERLBLoAIOYXeX8R2LG2qlSLTL9J42CFFZtI9hhU6wwgWACIEHhpFEKivFvArZdQa74BBdKNi/LWr4IQh1Kyjdj6A2kGG0rSP8bW86DbGjHxuPifqpOZj6qjTqLNSuCj1drQqQ6iaVzzN4K2oYEd+WhqMpHXEMzvHtD5u2f4Fz5ThvU9T9eu4uqzVy9KJ1MdmqdcdjX8ZqhtPVGgWKYG14Lpiu8S0vAwuxGAa07e94FWByzJSvsm9yhs5Qu9X3X1ciePW/n1uFvPSf+r3eTd89ni+SkC2gOjVSEMGhm2Bj6qGeCigUm8abzbgMXxKLLDFicRBjQbNXYkiHU6R4xOtV7nVEb6ArVoc/S+ms2DQW7sCBiD1QMbGjxQpLfmvQAYnKvV22Adg7asZg+AwA1l0FBFDAc0A7JrGXsax0Koa+YuFVHFS132NAQpeFRm/0yPP5Oc7yPek6/AHM2Em7Ov6px8OoGKQ5Ski99wJYQeNgaY+FZ5Ji9pae0YFTjeanD2t6a9VSrJbPiOKwSFV2vhY664VrUPPvm0MHPn6m36TrS7QSlXACqRO3g9ks8cJ+9xQ5d8AnBzWOK85/Z0PPe7p+3xuv9nnpNXaLyXx616Jf1W2qcQHg2hPGg/tAfuLmwKJhA5ZthXcUZ7U04OGzQJrCvxTRsi1pCGfUu5keMKFG+fDRHmagWk0EUjwFLEHb6VPf+K38RN+SqoOEy+lQ+IE+BrZQgNxzKYqbxEx7MUm+GGmZDHhcgnL/GeAsQdNKt+un+et9yervQs65GUr8o44vyEB3hIfRQ/OGlz9QVUnfjr6ml+Uh2G9Jf736+Ba8BSy3ArorHazI3e0RpsGhluw6ZRXGjMdwXiHaAAXLBJoBVZI7LGNuiEePOw4JivoUE1IDJ982utYGVFZMLXkJQJNwgXQCHs9PS4k+AXDedFeVpF8DgDViSPgqfuBh+tcP/mMXRw69rwckgCZh5aWkdMhDDO+/RN8bpK52gP/yd9sirecLYACz9lV/GULs8PZ/gV8f9eA16HlQ+vFkELssTZAmNbU3paFZgoET6l2aiG0JyC8CapGyWaEEZUQIs/+4tk0m80aAc1rSZxcWWHq6GlACdCF78aKrH1RbOVxWCnMUBqG6jeFIl0kbo36QJ0qU9btDzHyfxmQJrwz1xVQeStGkx5y3/4NZUvti3ZCoMEnYekbW7qJ17t+6sKevJHnkNPddd5vpU4GScu5eEZ/6/rd6mBa8BSw0/j9u+d2Gxc2g8NjTbSGuxmZY0G+TY03itg2erkYdwKZsGAkQ95TpoUtIYmJ56wazHtWIfJ60D5sudk6CmQqrVUAq1q8GFsuAGclscIqzLlXSBZ8QdAWLA8x+YZMCYEXrQQgzlDfibJq/rf1tBH3siTfPK9utsFG38sd6zPyg1g439LUaJe2j3Kev39CfrwpUTQN5CvZag8Z/Af9ZoyUh6eif91/S418A+qLihWC1OTpwAAAABJRU5ErkJggg==;" vertex="1" parent="1">
          <mxGeometry x="940" y="212" width="81" height="81" as="geometry" />
        </mxCell>
        <mxCell id="529dLqMRrzq7dsGYqpGg-8" value="&lt;span&gt;Authorization&lt;/span&gt;" style="ellipse;whiteSpace=wrap;html=1;rounded=0;shadow=1;comic=0;labelBackgroundColor=none;strokeWidth=1;fontFamily=Verdana;fontSize=12;align=center;" vertex="1" parent="1">
          <mxGeometry x="202" y="350" width="90" height="50" as="geometry" />
        </mxCell>
        <mxCell id="529dLqMRrzq7dsGYqpGg-9" value="Configure" style="ellipse;whiteSpace=wrap;html=1;rounded=0;shadow=1;comic=0;labelBackgroundColor=none;strokeWidth=1;fontFamily=Verdana;fontSize=12;align=center;" vertex="1" parent="1">
          <mxGeometry x="340" y="350" width="90" height="50" as="geometry" />
        </mxCell>
        <mxCell id="529dLqMRrzq7dsGYqpGg-10" value="System" style="ellipse;whiteSpace=wrap;html=1;rounded=0;shadow=1;comic=0;labelBackgroundColor=none;strokeWidth=1;fontFamily=Verdana;fontSize=12;align=center;" vertex="1" parent="1">
          <mxGeometry x="330" y="444" width="90" height="50" as="geometry" />
        </mxCell>
        <mxCell id="529dLqMRrzq7dsGYqpGg-11" value="Bimmodel" style="ellipse;whiteSpace=wrap;html=1;rounded=0;shadow=1;comic=0;labelBackgroundColor=none;strokeWidth=1;fontFamily=Verdana;fontSize=12;align=center;" vertex="1" parent="1">
          <mxGeometry x="1110.5" y="577" width="90" height="50" as="geometry" />
        </mxCell>
        <mxCell id="529dLqMRrzq7dsGYqpGg-12" value="messaging" style="ellipse;whiteSpace=wrap;html=1;rounded=0;shadow=1;comic=0;labelBackgroundColor=none;strokeWidth=1;fontFamily=Verdana;fontSize=12;align=center;" vertex="1" parent="1">
          <mxGeometry x="820" y="720" width="90" height="50" as="geometry" />
        </mxCell>
        <mxCell id="529dLqMRrzq7dsGYqpGg-13" value="taskservice" style="ellipse;whiteSpace=wrap;html=1;rounded=0;shadow=1;comic=0;labelBackgroundColor=none;strokeWidth=1;fontFamily=Verdana;fontSize=12;align=center;" vertex="1" parent="1">
          <mxGeometry x="1000" y="330" width="90" height="50" as="geometry" />
        </mxCell>
        <mxCell id="529dLqMRrzq7dsGYqpGg-14" value="schema-validation" style="ellipse;whiteSpace=wrap;html=1;rounded=0;shadow=1;comic=0;labelBackgroundColor=none;strokeWidth=1;fontFamily=Verdana;fontSize=12;align=center;" vertex="1" parent="1">
          <mxGeometry x="545" y="710" width="90" height="50" as="geometry" />
        </mxCell>
        <mxCell id="529dLqMRrzq7dsGYqpGg-15" value="structure" style="ellipse;whiteSpace=wrap;html=1;rounded=0;shadow=1;comic=0;labelBackgroundColor=none;strokeWidth=1;fontFamily=Verdana;fontSize=12;align=center;" vertex="1" parent="1">
          <mxGeometry x="380" y="720" width="90" height="50" as="geometry" />
        </mxCell>
        <mxCell id="529dLqMRrzq7dsGYqpGg-16" value="thirdtable" style="ellipse;whiteSpace=wrap;html=1;rounded=0;shadow=1;comic=0;labelBackgroundColor=none;strokeWidth=1;fontFamily=Verdana;fontSize=12;align=center;" vertex="1" parent="1">
          <mxGeometry x="170" y="780" width="90" height="50" as="geometry" />
        </mxCell>
        <mxCell id="529dLqMRrzq7dsGYqpGg-17" value="bimfaceproxy" style="ellipse;whiteSpace=wrap;html=1;rounded=0;shadow=1;comic=0;labelBackgroundColor=none;strokeWidth=1;fontFamily=Verdana;fontSize=12;align=center;" vertex="1" parent="1">
          <mxGeometry x="1120" y="330" width="90" height="50" as="geometry" />
        </mxCell>
        <mxCell id="529dLqMRrzq7dsGYqpGg-18" value="bimcode" style="ellipse;whiteSpace=wrap;html=1;rounded=0;shadow=1;comic=0;labelBackgroundColor=none;strokeWidth=1;fontFamily=Verdana;fontSize=12;align=center;" vertex="1" parent="1">
          <mxGeometry x="1320" y="828" width="90" height="50" as="geometry" />
        </mxCell>
        <mxCell id="529dLqMRrzq7dsGYqpGg-19" value="webapp" style="ellipse;whiteSpace=wrap;html=1;rounded=0;shadow=1;comic=0;labelBackgroundColor=none;strokeWidth=1;fontFamily=Verdana;fontSize=12;align=center;" vertex="1" parent="1">
          <mxGeometry x="1230" y="740" width="90" height="50" as="geometry" />
        </mxCell>
        <mxCell id="529dLqMRrzq7dsGYqpGg-20" value="admin-console" style="ellipse;whiteSpace=wrap;html=1;rounded=0;shadow=1;comic=0;labelBackgroundColor=none;strokeWidth=1;fontFamily=Verdana;fontSize=12;align=center;" vertex="1" parent="1">
          <mxGeometry x="1350" y="660" width="90" height="50" as="geometry" />
        </mxCell>
        <mxCell id="529dLqMRrzq7dsGYqpGg-21" value="bops" style="ellipse;whiteSpace=wrap;html=1;rounded=0;shadow=1;comic=0;labelBackgroundColor=none;strokeWidth=1;fontFamily=Verdana;fontSize=12;align=center;" vertex="1" parent="1">
          <mxGeometry x="960" y="720" width="90" height="50" as="geometry" />
        </mxCell>
        <mxCell id="529dLqMRrzq7dsGYqpGg-22" value="datasetworker" style="ellipse;whiteSpace=wrap;html=1;rounded=0;shadow=1;comic=0;labelBackgroundColor=none;strokeWidth=1;fontFamily=Verdana;fontSize=12;align=center;" vertex="1" parent="1">
          <mxGeometry x="1110.5" y="502" width="90" height="50" as="geometry" />
        </mxCell>
        <mxCell id="529dLqMRrzq7dsGYqpGg-23" value="bimface-translation-worker" style="ellipse;whiteSpace=wrap;html=1;rounded=0;shadow=1;comic=0;labelBackgroundColor=none;strokeWidth=1;fontFamily=Verdana;fontSize=12;align=center;" vertex="1" parent="1">
          <mxGeometry x="1250" y="502" width="90" height="50" as="geometry" />
        </mxCell>
      </root>
    </mxGraphModel>
  </diagram>
</mxfile>
